<?xml version="1.0" encoding="utf-8"?>
<!-- Generator: Adobe Illustrator 26.0.2, SVG Export Plug-In . SVG Version: 6.00 Build 0)  -->
<svg version="1.1" id="bg" xmlns="http://www.w3.org/2000/svg" xmlns:xlink="http://www.w3.org/1999/xlink" x="0px" y="0px"
	 viewBox="0 0 93 134" style="enable-background:new 0 0 93 134;" xml:space="preserve">
<style type="text/css">
	.st0{opacity:0.1;}
	.st1{fill:#298C6D;}
</style>
<g transform="translate(303.791 -27.987)" class="st0">
	<g id="bg-14" transform="translate(58.438 -7.406)">
		<path id="中マド_2-4" class="st1" d="M-330.2,99.5c-2.6,0-5.1-0.5-7.5-1.5c-2.5-1-4.7-2.5-6.6-4.4l-12.1-12.1
			c-1.9-1.9-3.4-4.1-4.4-6.6c-1-2.4-1.5-4.9-1.5-7.5c0-2.6,0.5-5.1,1.5-7.5c1-2.5,2.5-4.7,4.4-6.6l12.1-12.1
			c1.9-1.9,4.1-3.4,6.6-4.4c2.4-1,4.9-1.5,7.5-1.5c2.6,0,5.1,0.5,7.5,1.5c2.5,1,4.7,2.5,6.6,4.4l12.1,12.1c1.9,1.9,3.4,4.1,4.4,6.6
			c1,2.4,1.5,4.9,1.5,7.5c0,2.6-0.5,5.1-1.5,7.5c-1,2.5-2.5,4.7-4.4,6.6L-316,93.7c-1.9,1.9-4.1,3.4-6.6,4.4
			C-325,99-327.6,99.5-330.2,99.5z M-330.2,52.9c-6.1,0-11,4.9-11,11c0,2.4,0.8,4.8,2.3,6.8c1.5,1.9,3.6,3.2,5.9,3.8
			c0.2,0.1,0.3,0.2,0.3,0.4c0,2,0,7.9,0,7.9c0,0.7,0.2,1.4,0.6,2c0.4,0.5,1,0.8,1.7,0.8h0.2c0.6,0,1.1-0.2,1.5-0.6
			c0.6-0.6,0.9-1.4,0.8-2.3c0,0,0-5.9,0-7.9c0-0.2,0.1-0.4,0.3-0.5c2.3-0.6,4.4-1.9,5.9-3.8c1.5-1.9,2.3-4.3,2.3-6.8
			C-319.2,57.8-324.1,52.9-330.2,52.9z M-330.2,72c-4.5,0-8.1-3.6-8.1-8.1c0-2.2,0.9-4.2,2.4-5.7c1.5-1.5,3.6-2.4,5.7-2.4
			c4.5,0,8.1,3.6,8.1,8.1C-322,68.3-325.7,72-330.2,72L-330.2,72z M-331.7,57.2c-0.1,0-0.3,0-0.4,0.1c-3.7,1.5-5.4,5.6-3.9,9.3
			c0.2,0.4,0.6,0.7,1.1,0.7c0.1,0,0.3,0,0.4-0.1c0.1-0.1,0.3-0.1,0.4-0.2c0.3-0.3,0.4-0.8,0.2-1.2c-0.5-1.2-0.5-2.5,0-3.7
			c0.5-1.2,1.5-2.1,2.7-2.6c0.3-0.1,0.5-0.3,0.6-0.6c0.1-0.3,0.1-0.6,0-0.9C-330.8,57.5-331.2,57.2-331.7,57.2L-331.7,57.2z"/>
	</g>
</g>
<g transform="translate(210.791 -27.987)" class="st0">
	<g id="bg-21" transform="translate(58.438 -7.406)">
		<path id="中マド_3-11" class="st1" d="M-281.2,166.5c-2.6,0-5.1-0.5-7.5-1.5c-2.5-1-4.7-2.5-6.6-4.4l-12.1-12.1
			c-1.9-1.9-3.4-4.1-4.4-6.6c-1-2.4-1.5-4.9-1.5-7.5c0-2.6,0.5-5.1,1.5-7.5c1-2.5,2.5-4.7,4.4-6.6l12.1-12.1
			c1.9-1.9,4.1-3.4,6.6-4.4c2.4-1,4.9-1.5,7.5-1.5c2.6,0,5.1,0.5,7.5,1.5c2.5,1,4.7,2.5,6.6,4.4l12.1,12.1c1.9,1.9,3.4,4.1,4.4,6.6
			c1,2.4,1.5,4.9,1.5,7.5c0,2.6-0.5,5.1-1.5,7.5c-1,2.5-2.5,4.7-4.4,6.6l-12.1,12.1c-1.9,1.9-4.1,3.4-6.6,4.4
			C-276,166-278.6,166.5-281.2,166.5z M-281.2,119.9c-6.1,0-11,4.9-11,11c0,2.4,0.8,4.8,2.3,6.8c1.5,1.9,3.6,3.2,5.9,3.8
			c0.2,0.1,0.3,0.2,0.3,0.4v7.9c0,1.7,1,2.9,2.3,2.9h0.2c0.6,0,1.1-0.2,1.5-0.6c0.6-0.6,0.9-1.4,0.8-2.3v-7.9c0-0.2,0.1-0.4,0.3-0.5
			c2.3-0.6,4.4-1.9,5.9-3.8c1.5-1.9,2.3-4.3,2.3-6.8C-270.2,124.8-275.1,119.9-281.2,119.9L-281.2,119.9z M-281.2,139
			c-4.5,0-8.1-3.6-8.1-8.1c0-2.2,0.9-4.2,2.4-5.7c1.5-1.5,3.6-2.4,5.7-2.4c4.5,0,8.1,3.6,8.1,8.1C-273,135.3-276.7,139-281.2,139
			L-281.2,139z M-282.7,124.2c-0.1,0-0.3,0-0.4,0.1c-3.7,1.5-5.4,5.6-3.9,9.3c0.2,0.4,0.6,0.7,1.1,0.7c0.1,0,0.3,0,0.4-0.1
			c0.1-0.1,0.3-0.1,0.4-0.2c0.3-0.3,0.4-0.8,0.2-1.2c-0.5-1.2-0.5-2.5,0-3.7c0.5-1.2,1.5-2.1,2.7-2.6c0.6-0.2,0.9-0.9,0.6-1.5
			C-281.8,124.5-282.2,124.2-282.7,124.2L-282.7,124.2z"/>
	</g>
</g>
<g transform="translate(303.791 -27.987)" class="st0">
	<g id="bg-22" transform="translate(58.438 -7.406)">
		<path id="中マド_3-12" class="st1" d="M-281.2,166.5c-2.6,0-5.1-0.5-7.5-1.5c-2.5-1-4.7-2.5-6.6-4.4l-12.1-12.1
			c-1.9-1.9-3.4-4.1-4.4-6.6c-1-2.4-1.5-4.9-1.5-7.5c0-2.6,0.5-5.1,1.5-7.5c1-2.5,2.5-4.7,4.4-6.6l12.1-12.1
			c1.9-1.9,4.1-3.4,6.6-4.4c2.4-1,4.9-1.5,7.5-1.5c2.6,0,5.1,0.5,7.5,1.5c2.5,1,4.7,2.5,6.6,4.4l12.1,12.1c1.9,1.9,3.4,4.1,4.4,6.6
			c1,2.4,1.5,4.9,1.5,7.5c0,2.6-0.5,5.1-1.5,7.5c-1,2.5-2.5,4.7-4.4,6.6l-12.1,12.1c-1.9,1.9-4.1,3.4-6.6,4.4
			C-276,166-278.6,166.5-281.2,166.5z M-281.2,119.9c-6.1,0-11,4.9-11,11c0,2.4,0.8,4.8,2.3,6.8c1.5,1.9,3.6,3.2,5.9,3.8
			c0.2,0.1,0.3,0.2,0.3,0.4v7.9c0,1.7,1,2.9,2.3,2.9h0.2c0.6,0,1.1-0.2,1.5-0.6c0.6-0.6,0.9-1.4,0.8-2.3v-7.9c0-0.2,0.1-0.4,0.3-0.5
			c2.3-0.6,4.4-1.9,5.9-3.8c1.5-1.9,2.3-4.3,2.3-6.8C-270.2,124.8-275.1,119.9-281.2,119.9L-281.2,119.9z M-281.2,139
			c-4.5,0-8.1-3.6-8.1-8.1c0-2.2,0.9-4.2,2.4-5.7c1.5-1.5,3.6-2.4,5.7-2.4c4.5,0,8.1,3.6,8.1,8.1C-273,135.3-276.7,139-281.2,139
			L-281.2,139z M-282.7,124.2c-0.1,0-0.3,0-0.4,0.1c-3.7,1.5-5.4,5.6-3.9,9.3c0.2,0.4,0.6,0.7,1.1,0.7c0.1,0,0.3,0,0.4-0.1
			c0.1-0.1,0.3-0.1,0.4-0.2c0.3-0.3,0.4-0.8,0.2-1.2c-0.5-1.2-0.5-2.5,0-3.7c0.5-1.2,1.5-2.1,2.7-2.6c0.6-0.2,0.9-0.9,0.6-1.5
			C-281.8,124.5-282.2,124.2-282.7,124.2L-282.7,124.2z"/>
	</g>
</g>
</svg>
