<svg xmlns="http://www.w3.org/2000/svg" xmlns:xlink="http://www.w3.org/1999/xlink" width="379" height="65" viewBox="0 0 379 65">
  <defs>
    <clipPath id="clip-path">
      <rect id="長方形_28" data-name="長方形 28" width="379" height="65" transform="translate(-2 106)" fill="#fff" stroke="#707070" stroke-width="1"/>
    </clipPath>
  </defs>
  <g id="course_bg_head" transform="translate(2 -106)" clip-path="url(#clip-path)">
    <path id="bg" d="M-45.153-107.638,88.039-96.559a15.573,15.573,0,0,0,2.576,0l133.194-11.08a15.579,15.579,0,0,1,10.9,3.266l25.665,20.087a15.7,15.7,0,0,1,2.774,2.8l19.983,25.979a15.9,15.9,0,0,1,3.253,10.791L275.28,115.72a15.816,15.816,0,0,0,0,2.2L286.3,277.2a15.884,15.884,0,0,1-4.552,12.278l-.746.753h0L90.275,278.592a15.645,15.645,0,0,0-1.892,0l-190.726,11.634h0l-.745-.753A15.884,15.884,0,0,1-107.64,277.2l11.018-159.275a16.133,16.133,0,0,0,0-2.2l-11.1-160.438a15.9,15.9,0,0,1,3.252-10.791l19.984-25.979a15.761,15.761,0,0,1,2.773-2.8l25.663-20.087A15.583,15.583,0,0,1-45.153-107.638Z" transform="translate(100.759 213.696)" fill="#fff"/>
  </g>
</svg>
