<svg xmlns="http://www.w3.org/2000/svg" xmlns:xlink="http://www.w3.org/1999/xlink" width="365" height="31" viewBox="0 0 365 31">
  <defs>
    <clipPath id="clip-path">
      <rect id="長方形_31" data-name="長方形 31" width="365" height="31" transform="translate(25.206)" fill="#fff" stroke="#707070" stroke-width="1"/>
    </clipPath>
  </defs>
  <g id="footer_bg" transform="translate(-25.206)" clip-path="url(#clip-path)">
    <path id="パス_20" data-name="パス 20" d="M339.352,115.083l-5.96-3.051-5.9,3.051-5.9-3.051-5.9,3.051-5.9-3.051-5.9,3.051-5.9-3.051-5.9,3.051-5.9-3.051-5.9,3.051-5.9-3.051-5.9,3.051-5.9-3.051-5.9,3.051-5.9-3.051-5.9,3.051-5.9-3.051-5.9,3.051-5.9-3.051-5.9,3.051-5.9-3.051-5.9,3.051-5.9-3.051-5.9,3.051-5.9-3.051-5.9,3.051-5.9-3.051-5.9,3.051-5.9-3.051-5.894,3.051-5.9-3.051-5.9,3.051-5.894-3.051-5.893,3.051-5.893-3.051-5.9,3.051-5.9-3.051-5.9,3.051-5.9-3.051-5.9,3.051-5.9-3.051-5.9,3.051-5.9-3.051-5.9,3.051-5.9-3.051-5.9,3.051-5.9-3.051-5.9,3.051-5.9-3.051-5.9,3.051-5.9-3.051-5.9,3.051-5.9-3.049-5.9,3.051-5.9-3.051-5.9,3.051-5.9-3.051-5.9,3.051-5.9-3.051-5.9,3.051-5.9-3.051-5.9,3.051-5.9-3.051-5.9,3.051-5.9-3.051-5.9,3.051-5.9-3.051-5.9,3.051-5.909-3.051-5.913,3.051-5.855-3.051-1.144,1.077,2.16-.45-2.16-.45,2.16-.45-2.16-.45,2.16-.45-2.16-.45,2.16-.45-2.16-.452,2.16-.452-2.16-.452,2.16-.454-2.16-.454,2.16-.454-2.16-.454,2.16-.454-2.16-.454,2.16-.454-2.16-.452,2.16-.452-2.16-.452,2.16-.452-2.16-.452,2.16-.452-2.16-.445,2.16-.447-2.16-.449,2.16-.45-2.16-.452,2.16-.454-2.16-.456,2.16-.456-2.16-.454,2.16-.454-2.16-.452,2.16-.452-2.16-.45,2.16-.45-2.16-.45,2.16-.45-2.16-.45,2.16-.45-2.16-.45,2.16-.452-2.16-.452,2.16-.454-2.16-.456,2.16-.458-2.16-.459,2.16-.458-2.16-.456,2.16-.456-2.16-.456,2.16-.456-2.16-.458,2.16-.459-2.16-.461,2.16-.449-2.16-.452,2.16-.456-2.16-.463,2.16-.459-2.16-.458,2.16-.459-2.16-.461,2.16-.465-2.16-.458,2.16-.461-2.16-.47,2.16-.472-1.144-2,5.96,3.051,5.9-3.051,5.9,3.051,5.9-3.051,5.9,3.051,5.9-3.051,5.9,3.051,5.9-3.051,5.9,3.051,5.9-3.051,5.9,3.051,5.9-3.051,5.907,3.052,5.9-3.051,5.9,3.051,5.9-3.051,5.9,3.051,5.887-3.051,5.9,3.051,5.9-3.051,5.9,3.051,5.9-3.051,5.9,3.051,5.9-3.051,5.9,3.051,5.9-3.051,5.9,3.051,5.9-3.051,5.9,3.051,5.894-3.051,5.9,3.051,5.9-3.051,5.894,3.051,5.893-3.051,5.893,3.051,5.9-3.051,5.9,3.051,5.9-3.051,5.9,3.051,5.9-3.051,5.9,3.051,5.9-3.051,5.9,3.051,5.9-3.051,5.9,3.051,5.9-3.051,5.9,3.051,5.9-3.051,5.9,3.051,5.9-3.051,5.9,3.051,5.9-3.051,5.9,3.051,5.9-3.051,5.9,3.051,5.9-3.051,5.9,3.051,5.9-3.051,5.9,3.051,5.9-3.051,5.9,3.051,5.9-3.051,5.9,3.051,5.9-3.051,5.9,3.051,5.9-3.051,5.9,3.051,5.9-3.051,5.91,3.051,5.913-3.051,5.855,3.051,1.144-1.077-2.16.449,2.16.45-2.16.45,2.16.45-2.16.45,2.16.45-2.16.45,2.16.452-2.16.452,2.16.452-2.16.454,2.16.454-2.16.454,2.16.454-2.16.454,2.16.454-2.16.454,2.16.452-2.16.452,2.16.452-2.16.452,2.16.452-2.16.452,2.16.445-2.16.447,2.16.449-2.16.45,2.16.452-2.16.454,2.16.456-2.16.456,2.16.454-2.16.454,2.16.452-2.16.452,2.16.45-2.16.45,2.16.45-2.16.45,2.16.45-2.16.45,2.16.45-2.16.452,2.16.452-2.16.454,2.16.456-2.16.458,2.16.459-2.16.458,2.16.456-2.16.456,2.16.456-2.16.456,2.16.458-2.16.459,2.16.461-2.16.449,2.16.452-2.16.456,2.16.463-2.16.459,2.16.458-2.16.459,2.16.461-2.16.465,2.16.458-2.16.461,2.16.47-2.16.526Z" transform="translate(80.641 -79.426)" fill="#298c6d"/>
  </g>
</svg>
