<svg xmlns="http://www.w3.org/2000/svg" xmlns:xlink="http://www.w3.org/1999/xlink" width="375" height="92" viewBox="0 0 375 92">
  <defs>
    <clipPath id="clip-path">
      <rect id="長方形_27" data-name="長方形 27" width="375" height="92" fill="none" stroke="#707070" stroke-width="1"/>
    </clipPath>
  </defs>
  <g id="heading_bg" clip-path="url(#clip-path)">
    <g id="bg" transform="translate(0 -8)">
      <path id="パス_21" data-name="パス 21" d="M-95.57,54.429,57.87,61.878a8.467,8.467,0,0,0,.85,0l153.445-7.45c5.963-.29,10.6,5.369,9.43,11.506l-1.378,7.234a10.053,10.053,0,0,0,.6,5.772l4.574,10.877a10.042,10.042,0,0,1-.578,8.927l-19.921,33.985a9.421,9.421,0,0,1-3.016,3.162l-34,21.907a8.849,8.849,0,0,1-5.467,1.4L58.953,151.407a8.886,8.886,0,0,0-1.316,0L-45.82,159.2a8.851,8.851,0,0,1-5.467-1.4l-34-21.907a9.431,9.431,0,0,1-3.016-3.162l-19.923-33.99a10.037,10.037,0,0,1-.581-8.919l4.582-10.921a10.064,10.064,0,0,0,.6-5.768L-105,65.938C-106.172,59.8-101.533,54.14-95.57,54.429Z" transform="translate(166.104 -95.29) rotate(14)" fill="#f4bd24"/>
      <path id="パス_21-2" data-name="パス 21" d="M-95.57,54.429,57.87,61.878a8.467,8.467,0,0,0,.85,0l153.445-7.45c5.963-.29,10.6,5.369,9.43,11.506l-1.378,7.234a10.053,10.053,0,0,0,.6,5.772l4.574,10.877a10.042,10.042,0,0,1-.578,8.927l-19.921,33.985a9.421,9.421,0,0,1-3.016,3.162l-34,21.907a8.849,8.849,0,0,1-5.467,1.4L58.953,151.407a8.886,8.886,0,0,0-1.316,0L-45.82,159.2a8.851,8.851,0,0,1-5.467-1.4l-34-21.907a9.431,9.431,0,0,1-3.016-3.162l-19.923-33.99a10.037,10.037,0,0,1-.581-8.919l4.582-10.921a10.064,10.064,0,0,0,.6-5.768L-105,65.938C-106.172,59.8-101.533,54.14-95.57,54.429Z" transform="translate(97.166 -67.085) rotate(-14)" fill="#ef694c"/>
      <path id="パス_21-3" data-name="パス 21" d="M-95.57,54.429,57.868,61.878a8.467,8.467,0,0,0,.85,0l153.443-7.45c5.963-.29,10.6,5.369,9.43,11.506l-1.378,7.234a10.053,10.053,0,0,0,.6,5.772l4.574,10.877a10.042,10.042,0,0,1-.578,8.927l-19.92,33.985a9.421,9.421,0,0,1-3.016,3.162l-34,21.907a8.849,8.849,0,0,1-5.466,1.4L58.951,151.407a8.886,8.886,0,0,0-1.316,0L-45.821,159.2a8.851,8.851,0,0,1-5.466-1.4l-34-21.907a9.431,9.431,0,0,1-3.016-3.162l-19.922-33.99a10.037,10.037,0,0,1-.581-8.919l4.582-10.921a10.064,10.064,0,0,0,.6-5.768L-105,65.938C-106.172,59.8-101.534,54.14-95.57,54.429Z" transform="translate(129.976 -62.693)" fill="#298c6d"/>
    </g>
  </g>
</svg>
