<svg xmlns="http://www.w3.org/2000/svg" width="271.26" height="67.056" viewBox="0 0 271.26 67.056">
  <path id="パス_13" data-name="パス 13" d="M-59.088-1.3a.732.732,0,0,0-.256-.592l-2-1.3a10.679,10.679,0,0,0,1.824-6c0-.816-.432-1.488-1.232-1.488h-7.792a.676.676,0,0,0-.592.736.67.67,0,0,0,.592.72h7.136a.359.359,0,0,1,.368.352v.032c-.24,4.96-3.152,7.648-7.9,8.288a.672.672,0,0,0-.576.656A.727.727,0,0,0-68.9.88h.064A10.616,10.616,0,0,0-62.3-2.048l2.128,1.44a.554.554,0,0,0,.32.112A.843.843,0,0,0-59.088-1.3Zm17.328-4.9V-9.52a1.2,1.2,0,0,0-1.168-1.216H-52.48a1.125,1.125,0,0,0-1.184,1.1,6.069,6.069,0,0,1-.624,2.56.744.744,0,0,0-.08.336A.862.862,0,0,0-53.536-6a.478.478,0,0,0,.416-.224,6.791,6.791,0,0,0,.752-2.656.393.393,0,0,1,.4-.384H-43.6c.24,0,.384.144.384.448v2.608a5.48,5.48,0,0,1-3.04,4.784l-2.4-4.272a.539.539,0,0,0-.5-.256.778.778,0,0,0-.8.7.452.452,0,0,0,.064.24l2.272,4.144a9.315,9.315,0,0,1-2.592.352h-2.576a.664.664,0,0,0-.592.7.7.7,0,0,0,.624.736h2.608C-44.7.928-41.76-2.784-41.76-6.192Zm16.448-5.936c0-.288-.128-.784-.464-.784-.416,0-.8.176-.8.5s.128.784.5.784C-25.808-11.632-25.312-11.776-25.312-12.128Zm-2.464.048c0-.3-.128-.8-.48-.8-.4,0-.784.176-.784.512,0,.32.128.768.5.768C-28.288-11.6-27.776-11.728-27.776-12.08Zm-5.456.832a.566.566,0,0,0-.416-.592l-3.6-.72h-.08a.626.626,0,0,0-.576.688.55.55,0,0,0,.4.592l3.632.736c.032,0,.048.016.08.016A.659.659,0,0,0-33.232-11.248Zm7.7,6.288a.828.828,0,0,0-.784-.768.578.578,0,0,0-.48.224A11.577,11.577,0,0,1-35.664-.56a.632.632,0,0,0-.544.64c0,.3.208.8.672.8A12.277,12.277,0,0,0-25.6-4.688.49.49,0,0,0-25.536-4.96Zm-7.7-1.664a.543.543,0,0,0-.416-.592l-3.616-.736h-.08a.625.625,0,0,0-.576.688.549.549,0,0,0,.416.592l3.68.736A.683.683,0,0,0-33.232-6.624Zm24-2.672a.67.67,0,0,0-.576-.72h-1.728v-1.728a.67.67,0,0,0-.72-.592.67.67,0,0,0-.72.592v1.728h-5.616a.67.67,0,0,0-.592.72.676.676,0,0,0,.592.736h5.616v.576a76.958,76.958,0,0,1-9.616,6.7.569.569,0,0,0-.256.528.7.7,0,0,0,.592.768.539.539,0,0,0,.272-.08,79.176,79.176,0,0,0,9.008-6.208V-.544a.659.659,0,0,0,.72.576.659.659,0,0,0,.72-.576V-8.56h1.728A.676.676,0,0,0-9.232-9.3Zm14.144,8a.732.732,0,0,0-.256-.592l-2-1.3a10.679,10.679,0,0,0,1.824-6c0-.816-.432-1.488-1.232-1.488H-4.544a.676.676,0,0,0-.592.736.67.67,0,0,0,.592.72H2.592a.359.359,0,0,1,.368.352v.032c-.24,4.96-3.152,7.648-7.9,8.288A.672.672,0,0,0-5.52.112.727.727,0,0,0-4.9.88h.064A10.616,10.616,0,0,0,1.7-2.048L3.824-.608a.554.554,0,0,0,.32.112A.843.843,0,0,0,4.912-1.3ZM23.44-11.984a1.786,1.786,0,0,0-1.776-1.792,1.8,1.8,0,0,0-1.792,1.792,1.767,1.767,0,0,0,1.008,1.6H9.712a.664.664,0,0,0-.592.7.676.676,0,0,0,.592.736h10.88a.383.383,0,0,1,.4.384c-.016,4.768-2.3,7.6-6.9,8.064a.64.64,0,0,0-.528.624c0,.3.288.816.688.816h.032c5.536-.512,8.16-3.984,8.16-9.584v-.7a1,1,0,0,0-.48-.9A1.759,1.759,0,0,0,23.44-11.984Zm-.88,0a.912.912,0,0,1-.9.928.947.947,0,0,1-.912-.928.93.93,0,0,1,.912-.9A.894.894,0,0,1,22.56-11.984ZM38.384-5.936A.709.709,0,0,0,37.76-6.7H26.208a.709.709,0,0,0-.624.768.7.7,0,0,0,.624.736H37.76A.7.7,0,0,0,38.384-5.936Zm8.608-4.448a.662.662,0,0,0-.48-.672l-3.68-.64c-.368,0-.624.448-.624.8a.633.633,0,0,0,.48.64L46.32-9.6A.738.738,0,0,0,46.992-10.384ZM54.24-4.912a.759.759,0,0,0-.736-.752.684.684,0,0,0-.544.256,11.549,11.549,0,0,1-8.752,4.9.632.632,0,0,0-.56.64.775.775,0,0,0,.688.832A12.213,12.213,0,0,0,54.16-4.608.613.613,0,0,0,54.24-4.912Zm16.9-.96c0-3.984-2.432-6.512-6.64-6.512a7.211,7.211,0,0,0-7.568,7.52c0,3.056,1.616,5.488,3.792,5.488,2.656,0,4.16-3.536,4.336-9.616,0-.272-.272-.5-.672-.5-.432,0-.72.208-.72.48C63.536-3.872,62.5-.88,60.752-.88c-1.344,0-2.384-1.632-2.384-4,0-3.3,2.032-6.112,6.064-6.112C68-10.992,69.7-8.944,69.7-5.9a4.823,4.823,0,0,1-.656,2.256.451.451,0,0,0-.064.24.909.909,0,0,0,.864.784.425.425,0,0,0,.384-.176A6.049,6.049,0,0,0,71.136-5.872ZM-103.81,43.92a1.3,1.3,0,0,0-.72-1.32c-2.6-1.16-5.16-2.36-7.88-3.36v-6.2h5.08c.64,0,1.12-.6,1.12-1.56s-.48-1.6-1.12-1.6h-5.08V23.6h5.08c.64,0,1.12-.6,1.12-1.56s-.48-1.56-1.12-1.56h-5.08V18.64c0-.72-.68-1.24-1.76-1.24s-1.76.52-1.76,1.24v1.84h-10.4c-.64,0-1.12.6-1.12,1.56s.48,1.56,1.12,1.56h10.4v6.28h-10.44c-.6,0-1.08.6-1.08,1.52,0,.88.48,1.48,1.08,1.48h8.52l.76.16h1.16v5.08a32.106,32.106,0,0,0-8.72-1.24c-7,0-10.6,3.68-10.6,7.8s2.84,8.08,10.76,8.08c9.44,0,12-4.8,12.08-9.88,2.12.92,4.24,2,6.48,3.16a1.065,1.065,0,0,0,.48.12C-104.61,46.16-103.81,45.08-103.81,43.92Zm-12.12-2.32c0,4.36-1.36,8-8.56,8-5.28,0-7.08-2.52-7.08-5,0-2.56,2.8-4.56,7.12-4.56a26.269,26.269,0,0,1,8.52,1.44Zm53.84.44c0-3.64-2.96-10.36-12.32-10.36a23.674,23.674,0,0,0-13.04,4.04,1,1,0,0,1-.44.2c-.16,0-.24-.12-.24-.32a.781.781,0,0,1,.04-.28c.56-2.52,1.28-6.84,1.72-10.92h10.32c.68,0,1.2-.72,1.2-1.76,0-1.08-.52-1.76-1.2-1.76h-10c.04-.72.08-1.44.08-2.08v-.04c0-.72-.72-1.24-1.84-1.24-2.32,0-1.84,1.76-2,3.36h-5.88c-.72,0-1.24.68-1.24,1.76,0,1.04.52,1.76,1.24,1.76h5.6a91.417,91.417,0,0,1-2.4,14.32,1.107,1.107,0,0,0-.04.36c0,1.08,1.52,1.8,2.64,1.8a1.6,1.6,0,0,0,1.08-.36c3.56-2.68,8.52-5.28,13.88-5.28,7.12,0,9.08,4.92,9.08,6.88a10.876,10.876,0,0,1-2.44,6.36,1.363,1.363,0,0,0-.28.88,2.189,2.189,0,0,0,2.12,1.92,1.117,1.117,0,0,0,.8-.32A13.894,13.894,0,0,0-62.09,42.04ZM-20.25,20c0-.28-.68-1.92-1.6-1.92-.56,0-1.92.72-1.92,1.52,0,.56.72,1.96,1.44,1.96C-21.73,21.56-20.25,20.84-20.25,20Zm-6.28,1.92c0-.36-.68-1.96-1.56-1.96-.6,0-1.96.76-1.96,1.52,0,.56.72,1.96,1.48,1.96C-27.97,23.44-26.53,22.72-26.53,21.92Zm4.68,12.84v-8.6c0-.68-.68-1.2-1.72-1.2-1,0-1.72.52-1.72,1.2v8.6c0,.68.72,1.2,1.72,1.2C-22.53,35.96-21.85,35.44-21.85,34.76Zm-9.48,7.48V34.08c0-6.88-3.8-11.64-10.88-11.64h-4.28a30.163,30.163,0,0,0,.24-3.24c0-.68-.68-1.24-1.76-1.24s-1.8.52-1.84,1.24q-.06,1.5-.24,3.24h-4.8c-.72,0-1.24.68-1.24,1.72s.52,1.72,1.24,1.72h4.44A156.948,156.948,0,0,1-53.37,41.6c0,.08-.04.16-.04.24,0,.88,1.16,1.44,2.08,1.44a1.281,1.281,0,0,0,1.36-.88,136.583,136.583,0,0,0,3.12-16.52h4.44c5.48,0,7.48,4.12,7.48,8.08v8.32c0,5-1.6,6.8-6.64,6.8h-2.12c-.72,0-1.16.72-1.16,1.8,0,1.12.44,1.84,1.16,1.84h2.16C-34.25,52.72-31.33,49.96-31.33,42.24Zm49.08-6.16v-.12a50.157,50.157,0,0,0-2.12-8.68,1.342,1.342,0,0,0-1.4-.76c-1.32,0-2,.76-2,1.44a.593.593,0,0,0,.04.28,56.989,56.989,0,0,1,1.96,8.08c.08.6.64,1.04,1.52,1.04C16.83,37.36,17.75,36.84,17.75,36.08ZM2.19,43.8A2.422,2.422,0,0,0,.07,41.68,1,1,0,0,0-.69,42l-5.64,5.68a1.044,1.044,0,0,1-.8.36A1.107,1.107,0,0,1-7.49,48c-2.2-.72-3.76-3.68-3.76-7.88V19.24c0-.68-.76-1.24-1.8-1.24-1.12,0-1.84.56-1.84,1.24V40.48c0,5.36,2.2,10.28,6.68,11.52a5.063,5.063,0,0,0,1.04.16,2.814,2.814,0,0,0,2.08-.88l6.92-6.64A1.151,1.151,0,0,0,2.19,43.8ZM58.87,23.44v-3a2.98,2.98,0,0,0-3.04-3H38.91a2.98,2.98,0,0,0-3.04,3v3a1.473,1.473,0,0,0,2.92,0V21.52a.924.924,0,0,1,.96-.96h8.56v7.08a4.087,4.087,0,0,0,4.04,4.28h2.92a1.465,1.465,0,0,0,1.32-1.52,1.491,1.491,0,0,0-1.32-1.6H52.95a1.693,1.693,0,0,1-1.72-1.76V20.56h3.76a.957.957,0,0,1,1,.96v1.92a1.4,1.4,0,0,0,1.48,1.28A1.371,1.371,0,0,0,58.87,23.44ZM44.15,26.56a1.48,1.48,0,0,0-1.56-1.36,1.287,1.287,0,0,0-1.2.72,8.227,8.227,0,0,1-4.32,3.8,1.356,1.356,0,0,0-.76,1.24,1.5,1.5,0,0,0,1.52,1.44,1.015,1.015,0,0,0,.48-.08,11.01,11.01,0,0,0,5.76-5.36A1.183,1.183,0,0,0,44.15,26.56ZM55.71,46.12c0-.76-1.28-1.8-1.92-1.8a2.459,2.459,0,0,0-1.8,1.92,2.4,2.4,0,0,0,1.92,1.8C54.71,48.04,55.71,46.68,55.71,46.12Zm3.6-8.04a1.51,1.51,0,0,0-1.4-1.56H48.95V33.44a1.606,1.606,0,0,0-3.16,0v3.08h-8.8a1.539,1.539,0,0,0-1.4,1.56,1.523,1.523,0,0,0,1.4,1.6h6.28a18.93,18.93,0,0,1-7.08,9.04,1.488,1.488,0,0,0-.68,1.2,1.567,1.567,0,0,0,1.48,1.52,1.223,1.223,0,0,0,.8-.28,22.081,22.081,0,0,0,8-11.32V51.96a1.606,1.606,0,0,0,3.16,0V39.68h8.96A1.5,1.5,0,0,0,59.31,38.08ZM34.71,23.84a1.523,1.523,0,0,0-1.4-1.6h-3V20.2a1.723,1.723,0,0,0-3.4,0v2.04H23.67a1.493,1.493,0,0,0-1.36,1.6,1.468,1.468,0,0,0,1.36,1.6h3.24V36.32a33.334,33.334,0,0,1-3.44.88,1.647,1.647,0,0,0-1.2,1.68,1.6,1.6,0,0,0,1.44,1.68,21.088,21.088,0,0,0,3.2-.84V48a1.59,1.59,0,0,1-1.52,1.6H24.15a1.451,1.451,0,0,0-1.32,1.56,1.563,1.563,0,0,0,1.4,1.64h2.28a3.716,3.716,0,0,0,3.8-3.64V38.6a33.276,33.276,0,0,0,3.2-1.2,1.656,1.656,0,0,0,.88-1.52,1.622,1.622,0,0,0-1.56-1.6,13.8,13.8,0,0,0-2.52.92V25.44h3A1.5,1.5,0,0,0,34.71,23.84Zm57.04,27.2c0-1.08-.44-2.04-1.24-2.04h-.16a21.232,21.232,0,0,1-2.88.2c-7.04,0-12-1.64-12-10.44V18.92c0-.68-.72-1.24-1.8-1.24-1.12,0-1.8.56-1.8,1.24v20.2c0,9.6,5.04,13.64,15.36,13.64a31.389,31.389,0,0,0,3.56-.28C91.35,52.4,91.75,51.84,91.75,51.04Zm16.4.2c0-.54-2.4-3.58-2.4-8.62,0-4.9,2.4-8.26,2.4-8.7,0-.1-.1-.18-.46-.18h-.6a.922.922,0,0,0-.96.6,17.876,17.876,0,0,0-2.16,8.28,17.3,17.3,0,0,0,2.16,8.24.9.9,0,0,0,.96.6h.6C108.03,51.46,108.15,51.36,108.15,51.24Zm20.82-1.2a.747.747,0,0,0-.46-.68,12.78,12.78,0,0,1-3.06-1.66,10.811,10.811,0,0,0,2.96-7.36,1.446,1.446,0,0,0-1.64-1.5h-7.48v-3a.474.474,0,0,1,.48-.48h7.26a.781.781,0,0,0,.68-.82.767.767,0,0,0-.68-.82h-7.94a1.485,1.485,0,0,0-1.5,1.5v6.44a10.779,10.779,0,0,1-1.1,5.28.657.657,0,0,0-.08.34.826.826,0,0,0,.88.82.745.745,0,0,0,.66-.34,12.3,12.3,0,0,0,1.34-6.1V40.52h7.06a.4.4,0,0,1,.42.42,8.062,8.062,0,0,1-2.66,5.58,11.088,11.088,0,0,1-1.8-2.72.776.776,0,0,0-.68-.36.763.763,0,0,0-.78.76c0,.68,1.54,2.84,2.02,3.38a12.031,12.031,0,0,1-3.04,1.7.766.766,0,0,0-.58.76.888.888,0,0,0,.96.9c1.14,0,3.2-1.36,4.02-2.04a13.661,13.661,0,0,0,3.6,2.06,1,1,0,0,0,.24.04A.935.935,0,0,0,128.97,50.04ZM115.35,35.5a.775.775,0,0,0-.84-.7.809.809,0,0,0-.86.7c-.06,2.34-.94,4.86-2.46,6.14a.92.92,0,0,0-.34.72.91.91,0,0,0,.88.92c.46,0,1.04-.7,1.3-1.02v7.28a.809.809,0,0,0,.86.7.8.8,0,0,0,.86-.7V41.68a.769.769,0,0,0-.78-.7A11.7,11.7,0,0,0,115.35,35.5Zm20.66,7.12a18.215,18.215,0,0,0-2.18-8.28.884.884,0,0,0-.94-.6h-.6c-.38,0-.48.08-.48.18,0,.44,2.42,3.8,2.42,8.7,0,5.04-2.42,8.08-2.42,8.62,0,.12.12.22.48.22h.6a.889.889,0,0,0,.94-.6A17.624,17.624,0,0,0,136.01,42.62Z" transform="translate(135.25 13.776)" fill="#707070"/>
</svg>
