<svg xmlns="http://www.w3.org/2000/svg" width="279.54" height="383.164" viewBox="0 0 279.54 383.164">
  <g id="loupe" transform="translate(139.695 0) rotate(45)">
    <rect id="長方形_8" data-name="長方形 8" width="28.223" height="36.689" transform="translate(172.136 197.751) rotate(-135)" fill="#cbcbcb"/>
    <circle id="楕円形_1" data-name="楕円形 1" cx="87.49" cy="87.49" r="87.49" transform="translate(11.289 11.289)" fill="#e3e3e3"/>
    <path id="パス_1" data-name="パス 1" d="M168.772,168.772c-38.383,38.383-101.6,38.383-139.985,0s-38.383-101.6,0-139.985,101.6-38.383,139.985,0S207.719,130.389,168.772,168.772ZM45.156,45.156a76.234,76.234,0,1,0,107.811,0C123.051,15.24,74.508,15.24,45.156,45.156Z" transform="translate(0 0)" fill="#cbcbcb"/>
    <path id="パス_2" data-name="パス 2" d="M34.432,0C64.348,20.885,86.926,37.254,93.7,44.592A34.724,34.724,0,0,1,44.592,93.7C37.819,86.926,20.885,64.348,0,34.432Z" transform="translate(167.078 167.078)" fill="#f3705a"/>
    <path id="パス_3" data-name="パス 3" d="M10.725,49.672C7.338,44.592,3.387,39.512,0,34.432L34.432,0c5.645,3.951,10.725,7.338,15.24,10.725Z" transform="translate(167.643 167.643)" fill="#f05540"/>
    <path id="パス_4" data-name="パス 4" d="M14.958,49.39,49.39,14.958a8.859,8.859,0,0,0,0-12.418,8.859,8.859,0,0,0-12.418,0L2.54,36.972a8.859,8.859,0,0,0,0,12.418A7.986,7.986,0,0,0,14.958,49.39Z" transform="translate(158.33 158.329)" fill="#f3705a"/>
    <ellipse id="楕円形_2" data-name="楕円形 2" cx="26.529" cy="12.418" rx="26.529" ry="12.418" transform="translate(72.25 40.641)" fill="#fff"/>
  </g>
</svg>
