<svg xmlns="http://www.w3.org/2000/svg" width="154.843" height="58.562" viewBox="0 0 154.843 58.562">
  <g id="icon" transform="matrix(0.985, -0.174, 0.174, 0.985, 10.402, 24.407)">
    <path id="長方形_21" data-name="長方形 21" d="M2.89,0H123.213a17.341,17.341,0,0,1,17.341,17.341v0a17.341,17.341,0,0,1-17.341,17.341H2.89A2.89,2.89,0,0,1,0,31.792V2.89A2.89,2.89,0,0,1,2.89,0Z" transform="translate(0 0)" fill="#ef694c"/>
    <path id="パス_86" data-name="パス 86" d="M15.912-2.736a.587.587,0,0,0-.324-.594c-1.17-.522-2.322-1.062-3.546-1.512v-2.79h2.286c.288,0,.5-.27.5-.7s-.216-.72-.5-.72H12.042V-11.88h2.286c.288,0,.5-.27.5-.7s-.216-.7-.5-.7H12.042v-.828c0-.324-.306-.558-.792-.558s-.792.234-.792.558v.828H5.778c-.288,0-.5.27-.5.7s.216.7.5.7h4.68v2.826H5.76c-.27,0-.486.27-.486.684,0,.4.216.666.486.666H9.594l.342.072h.522v2.286A14.448,14.448,0,0,0,6.534-5.9c-3.15,0-4.77,1.656-4.77,3.51S3.042,1.242,6.606,1.242c4.248,0,5.4-2.16,5.436-4.446.954.414,1.908.9,2.916,1.422a.479.479,0,0,0,.216.054C15.552-1.728,15.912-2.214,15.912-2.736ZM10.458-3.78c0,1.962-.612,3.6-3.852,3.6C4.23-.18,3.42-1.314,3.42-2.43c0-1.152,1.26-2.052,3.2-2.052a11.821,11.821,0,0,1,3.834.648Zm24.21-4.968c0-.432-.234-.738-.522-.738H32.058v-3.1h2.088c.288,0,.522-.288.522-.738s-.234-.738-.522-.738H27.54c-.288,0-.522.288-.522.738s.234.738.522.738h2.934v3.1H27.54c-.288,0-.522.306-.522.738,0,.45.234.756.522.756h2.934V-4.95a10.905,10.905,0,0,0-2.9-.45C24.444-5.4,23.2-3.6,23.2-2.034s.882,3.4,4.41,3.4c3.114,0,4.446-1.782,4.446-3.888v-.342a15.2,15.2,0,0,0,1.8.81c.36,0,.63-.468.63-.918a.6.6,0,0,0-.342-.594c-.666-.288-1.368-.576-2.088-.846V-7.992h2.088C34.434-7.992,34.668-8.3,34.668-8.748ZM21.1.81V-11.142c0-.306-.288-.54-.774-.54-.468,0-.756.234-.756.54V.81c0,.324.288.558.756.558C20.808,1.368,21.1,1.134,21.1.81Zm9.378-3.564c0,1.494-.9,2.718-3.006,2.718-2.322,0-2.826-1.224-2.826-2,0-1.134,1.206-2,2.844-2a9.311,9.311,0,0,1,2.988.558ZM47.34-13.14c0-.468-.252-.774-.558-.774h-6.75c-.306,0-.54.306-.54.774s.234.774.54.774h6.75C47.088-12.366,47.34-12.672,47.34-13.14Zm4.536,8.082c0-3.222-2.016-5.238-5.814-5.166l-.864.018-6.138.324c-.342.018-.576.306-.576.81,0,.432.234.846.558.828l6.246-.36c.216-.018.432-.018.648-.018,2.844,0,4.248,1.332,4.248,3.564,0,2.682-1.6,4.356-6.408,4.77-.288.018-.522.288-.522.72,0,.5.252.882.594.882h.018C50.2,1.314,51.876-1.854,51.876-5.058ZM65.557-.4V-7.644a.966.966,0,0,0-.975-.975H57.588a.544.544,0,0,0-.481.585.549.549,0,0,0,.481.6h6.474a.3.3,0,0,1,.312.312v6.2a.3.3,0,0,1-.312.312H55.417a.544.544,0,0,0-.481.585.544.544,0,0,0,.481.585h9.165A.963.963,0,0,0,65.557-.4Zm13.13-4.42a.576.576,0,0,0-.507-.624H68.794a.576.576,0,0,0-.507.624.567.567,0,0,0,.507.6H78.18A.567.567,0,0,0,78.687-4.823Zm11.8,3.77a.6.6,0,0,0-.208-.481L88.658-2.587A8.677,8.677,0,0,0,90.14-7.462c0-.663-.351-1.209-1-1.209H82.808a.549.549,0,0,0-.481.6.544.544,0,0,0,.481.585h5.8a.292.292,0,0,1,.3.286v.026c-.195,4.03-2.561,6.214-6.422,6.734a.546.546,0,0,0-.468.533.591.591,0,0,0,.507.624h.052a8.625,8.625,0,0,0,5.3-2.379l1.729,1.17a.45.45,0,0,0,.26.091A.685.685,0,0,0,90.491-1.053Z" transform="translate(19.831 24.414)" fill="#fff"/>
    <circle id="楕円形_5" data-name="楕円形 5" cx="4.29" cy="4.29" r="4.29" transform="translate(6.701 13)" fill="#fff"/>
    <path id="パス_15" data-name="パス 15" d="M526.6-1528.947c1.278-1.807-.551-4.32-5.358-5.48s-6.059,4.473-14.578,2.458" transform="matrix(0.985, 0.174, -0.174, 0.985, -776.405, 1432.474)" fill="none" stroke="#333" stroke-linecap="round" stroke-width="2"/>
  </g>
</svg>
