<svg xmlns="http://www.w3.org/2000/svg" xmlns:xlink="http://www.w3.org/1999/xlink" width="374" height="404.276" viewBox="0 0 374 404.276">
  <defs>
    <clipPath id="clip-path">
      <path id="長方形_11" data-name="長方形 11" d="M0,0H374a0,0,0,0,1,0,0V42a60,60,0,0,1-60,60H60A60,60,0,0,1,0,42V0A0,0,0,0,1,0,0Z" transform="translate(-0.255 0.262)" fill="#fafafa"/>
    </clipPath>
  </defs>
  <g id="main" transform="translate(-3 -162.957)">
    <g id="bg">
      <g id="mission_bg" transform="translate(14.255 14.089)">
        <path id="mission_bg-2" data-name="mission_bg" d="M-62.163-107.653l97,8.069a11.342,11.342,0,0,0,1.876,0l97.005-8.069a11.346,11.346,0,0,1,7.935,2.378l18.692,14.629a11.433,11.433,0,0,1,2.021,2.038l14.554,18.92a11.58,11.58,0,0,1,2.369,7.859L171.209,55.019c-.037.533-.037,116.416,0,116.95,8.139,117.654-271.124,119.3-271.032,4.869,0-1.552.059-118.546.174-120.216a11.751,11.751,0,0,0,0-1.6l-8.083-116.847a11.579,11.579,0,0,1,2.368-7.859l14.554-18.92a11.479,11.479,0,0,1,2.02-2.038l18.69-14.629A11.349,11.349,0,0,1-62.163-107.653Z" transform="translate(140.047 291.692)" fill="#fff"/>
        <g id="bg-2" data-name="bg" transform="translate(-11 450.606)" clip-path="url(#clip-path)">
          <path id="bg-3" data-name="bg" d="M-62.163-107.653l97,8.069a11.342,11.342,0,0,0,1.876,0l97.005-8.069a11.346,11.346,0,0,1,7.935,2.378l18.692,14.629a11.433,11.433,0,0,1,2.021,2.038l14.554,18.92a11.58,11.58,0,0,1,2.369,7.859L171.209,55.019c-.037.533-.037,116.416,0,116.95,8.139,117.654-271.124,119.3-271.032,4.869,0-1.552.059-118.546.174-120.216a11.751,11.751,0,0,0,0-1.6l-8.083-116.847a11.579,11.579,0,0,1,2.368-7.859l14.554-18.92a11.479,11.479,0,0,1,2.02-2.038l18.69-14.629A11.349,11.349,0,0,1-62.163-107.653Z" transform="translate(151.047 -158.955)" fill="#fafafa"/>
        </g>
        <line id="線_12" data-name="線 12" x2="271.292" transform="translate(40.564 451.071)" fill="none" stroke="#bebebe" stroke-width="1" stroke-dasharray="5 7"/>
      </g>
    </g>
    <g id="main_" data-name="main " transform="translate(-16 -2.918)">
      <g id="main-2" data-name="main" transform="translate(0 -2.552)">
        <g id="text">
          <path id="パス_89" data-name="パス 89" d="M-43.876-10.36a1.572,1.572,0,0,0-1.554-1.568A1.574,1.574,0,0,0-47-10.36,1.554,1.554,0,0,0-45.43-8.806,1.55,1.55,0,0,0-43.876-10.36ZM-44.912-.336A3.185,3.185,0,0,0-44.94-.7c-.406-2.212-.686-4.424-1.372-6.874a.535.535,0,0,0-.588-.364c-.336,0-.686.266-.686.546a.208.208,0,0,0,.014.1A47.64,47.64,0,0,1-46.2-.252c.028.252.266.406.574.406C-45.22.154-44.912,0-44.912-.336ZM-53.3-7.686V-10.3a.586.586,0,0,0-.63-.518.591.591,0,0,0-.644.518V-7.77c0,2.66-.476,4.564-1.568,5.81a.55.55,0,0,0-.154.392.783.783,0,0,0,.714.742.377.377,0,0,0,.28-.126C-53.9-2.548-53.3-4.97-53.3-7.686Zm8.666-2.674a.81.81,0,0,1-.8.812.831.831,0,0,1-.812-.812.807.807,0,0,1,.812-.784A.786.786,0,0,1-44.632-10.36Zm14.35,1.414V-8.96a.6.6,0,0,0-.63-.532.631.631,0,0,0-.672.518,8.251,8.251,0,0,1-7.14,8.12.53.53,0,0,0-.406.5.679.679,0,0,0,.6.728h.07A9.171,9.171,0,0,0-30.282-8.946Zm-9.17,3.29a.5.5,0,0,0-.028-.154l-1.176-3.332a.553.553,0,0,0-.532-.322.654.654,0,0,0-.686.574.6.6,0,0,0,.028.154l1.12,3.332a.51.51,0,0,0,.546.336A.689.689,0,0,0-39.452-5.656ZM-16.184-.434v-7.8a1.04,1.04,0,0,0-1.05-1.05h-7.532a.586.586,0,0,0-.518.63.591.591,0,0,0,.518.644h6.972a.324.324,0,0,1,.336.336V-.994a.324.324,0,0,1-.336.336H-27.1a.586.586,0,0,0-.518.63A.586.586,0,0,0-27.1.6h9.87A1.037,1.037,0,0,0-16.184-.434Zm8.092-8.652a.579.579,0,0,0-.42-.588l-3.22-.56c-.322,0-.546.392-.546.7a.554.554,0,0,0,.42.56L-8.68-8.4A.645.645,0,0,0-8.092-9.086ZM-1.75-4.3a.664.664,0,0,0-.644-.658.6.6,0,0,0-.476.224A10.105,10.105,0,0,1-10.528-.448a.553.553,0,0,0-.49.56.678.678,0,0,0,.6.728,10.686,10.686,0,0,0,8.6-4.872A.536.536,0,0,0-1.75-4.3Zm15.2-.84c0-3.486-2.128-5.7-5.81-5.7a6.309,6.309,0,0,0-6.622,6.58c0,2.674,1.414,4.8,3.318,4.8,2.324,0,3.64-3.094,3.794-8.414,0-.238-.238-.434-.588-.434-.378,0-.63.182-.63.42C6.8-3.388,5.894-.77,4.368-.77,3.192-.77,2.282-2.2,2.282-4.27A5.016,5.016,0,0,1,7.588-9.618c3.122,0,4.606,1.792,4.606,4.452a4.22,4.22,0,0,1-.574,1.974.4.4,0,0,0-.056.21.8.8,0,0,0,.756.686.372.372,0,0,0,.336-.154A5.293,5.293,0,0,0,13.454-5.138Zm14.1-2.66v-2.618a1,1,0,0,0-1.036-.98h-5.74a.992.992,0,0,0-1.022.98V-7.8a1,1,0,0,0,1.008.994h5.754A1,1,0,0,0,27.552-7.8ZM27.93-.91V-2.786a1.04,1.04,0,0,0-1.05-1.05h-4.8a3.566,3.566,0,0,0,.56-1.008H26.8a.468.468,0,0,0,.42-.49.478.478,0,0,0-.42-.49H20.524a.478.478,0,0,0-.42.49.468.468,0,0,0,.42.49h1.12a3.183,3.183,0,0,1-2,1.68A.409.409,0,0,0,19.4-2.8a.463.463,0,0,0,.434.49A3.349,3.349,0,0,0,21.1-2.9h1.68a4.328,4.328,0,0,1-2.786,1.876.354.354,0,0,0-.294.364.484.484,0,0,0,.476.49.238.238,0,0,0,.1-.014A5.892,5.892,0,0,0,23.758-2.9h1.414A4.6,4.6,0,0,1,21.784-.014.354.354,0,0,0,21.5.35a.467.467,0,0,0,.476.49h.028A5.521,5.521,0,0,0,26.124-2.9h.448a.347.347,0,0,1,.35.35V-.924c0,.6-.294.938-.84.938h-.35A.443.443,0,0,0,25.34.49a.468.468,0,0,0,.42.49h.49A1.68,1.68,0,0,0,27.93-.91ZM19.068-.952a.563.563,0,0,0-.518-.588.321.321,0,0,0-.2.056,5.257,5.257,0,0,1-.742.378V-7.532h.84a.538.538,0,0,0,.49-.574.547.547,0,0,0-.49-.574h-.84v-1.6a.557.557,0,0,0-.574-.49.543.543,0,0,0-.56.49v1.6h-.854a.547.547,0,0,0-.49.574.538.538,0,0,0,.49.574h.854v6.8c-.308.084-.616.14-.938.2a.5.5,0,0,0-.406.518.53.53,0,0,0,.49.588h.028a10.189,10.189,0,0,0,3.192-1.05A.56.56,0,0,0,19.068-.952ZM26.4-9.534H20.916v-.686a.317.317,0,0,1,.322-.322h4.844a.317.317,0,0,1,.322.322Zm0,1.54a.317.317,0,0,1-.322.322H21.238a.317.317,0,0,1-.322-.322v-.7H26.4Zm15.736.252a.515.515,0,0,0-.364-.546,9.509,9.509,0,0,1-4.69-2.9,1.366,1.366,0,0,0-1.064-.476,1.259,1.259,0,0,0-1.022.5,9.8,9.8,0,0,1-4.69,2.87c-.21.056-.392.2-.392.6s.224.574.5.574a.617.617,0,0,0,.224-.028,10.6,10.6,0,0,0,5.18-3.332.287.287,0,0,1,.224-.126.266.266,0,0,1,.21.126,9.818,9.818,0,0,0,5.166,3.318.819.819,0,0,0,.182.028A.541.541,0,0,0,42.14-7.742Zm-4,1.162a.552.552,0,0,0-.49-.588H34.412a.552.552,0,0,0-.49.588.547.547,0,0,0,.49.574h3.234A.547.547,0,0,0,38.136-6.58ZM41.79-.224V-3.29a1.04,1.04,0,0,0-1.05-1.05H31.332a1.04,1.04,0,0,0-1.05,1.05V-.224A1.037,1.037,0,0,0,31.332.812H40.74A1.037,1.037,0,0,0,41.79-.224Zm-1.232-.42a.332.332,0,0,1-.336.336H31.85a.332.332,0,0,1-.336-.336V-2.87a.344.344,0,0,1,.336-.35h8.372a.344.344,0,0,1,.336.35ZM48.146.378A.431.431,0,0,0,48.1.2,23.9,23.9,0,0,0,45.85-3.92a.506.506,0,0,0-.434-.21.622.622,0,0,0-.672.574.337.337,0,0,0,.056.21A25.75,25.75,0,0,1,46.886.686a.542.542,0,0,0,.532.336A.711.711,0,0,0,48.146.378ZM-80.626,17.142v-3.08a1.028,1.028,0,0,0-1.05-1.036H-86v-1.9a.611.611,0,0,0-.644-.518.611.611,0,0,0-.644.518v1.9h-4.228a1.028,1.028,0,0,0-1.05,1.036V16.19a.586.586,0,0,0,.63.518c.392,0,.644-.238.644-.476v-1.61a.324.324,0,0,1,.336-.336h8.722a.324.324,0,0,1,.336.336V17.1c0,3.626-1.932,4.186-4.914,4.368a.511.511,0,0,0-.448.532c0,.462.252.714.574.714h.056C-83.426,22.406-80.626,21.762-80.626,17.142Zm11.83-2.324a.6.6,0,0,0-.63-.518.482.482,0,0,0-.49.266c-.546,1.134-1.652,1.75-3.388,2.128l-2.534.56a.493.493,0,0,0-.378.518.528.528,0,0,0,.476.574c.028,0,.056-.014.084-.014l2.6-.588c.252-.056.49-.1.714-.168V22.7a.532.532,0,0,0,.56.462.532.532,0,0,0,.56-.462V17.2a4.257,4.257,0,0,0,2.38-2.212A.373.373,0,0,0-68.8,14.818Zm10.234-1.9a.579.579,0,0,0-.42-.588l-3.22-.56c-.322,0-.546.392-.546.7a.554.554,0,0,0,.42.56l3.178.574A.645.645,0,0,0-58.562,12.914ZM-52.22,17.7a.664.664,0,0,0-.644-.658.6.6,0,0,0-.476.224A10.105,10.105,0,0,1-61,21.552a.553.553,0,0,0-.49.56.678.678,0,0,0,.6.728,10.686,10.686,0,0,0,8.6-4.872A.536.536,0,0,0-52.22,17.7Zm15.106-6.3c0-.2-.168-.7-.462-.7s-.672.2-.672.476c0,.224.14.686.448.686C-37.59,11.864-37.114,11.682-37.114,11.4Zm-2.226,0c0-.2-.14-.7-.434-.7s-.686.2-.686.476c0,.224.154.672.448.672C-39.788,11.85-39.34,11.682-39.34,11.4Zm-.084,5.8a.622.622,0,0,0-.42-.616,14.61,14.61,0,0,1-4.34-1.54v-3.92a.586.586,0,0,0-.63-.518.586.586,0,0,0-.63.518v11.55a.586.586,0,0,0,.63.518.586.586,0,0,0,.63-.518v-6.23a15.983,15.983,0,0,0,4.144,1.414h.056A.626.626,0,0,0-39.424,17.2Zm16.478-.056v-3.08A1.028,1.028,0,0,0-24,13.026h-4.326v-1.9a.611.611,0,0,0-.644-.518.611.611,0,0,0-.644.518v1.9h-4.228a1.028,1.028,0,0,0-1.05,1.036V16.19a.586.586,0,0,0,.63.518c.392,0,.644-.238.644-.476v-1.61a.324.324,0,0,1,.336-.336h8.722a.324.324,0,0,1,.336.336V17.1c0,3.626-1.932,4.186-4.914,4.368a.511.511,0,0,0-.448.532c0,.462.252.714.574.714h.056C-25.746,22.406-22.946,21.762-22.946,17.142Zm12.824-6.048a.459.459,0,0,0-.42-.49H-13.3a.459.459,0,0,0-.42.49.468.468,0,0,0,.42.49h2.758A.468.468,0,0,0-10.122,11.094Zm1.246,4.018V13.894A.948.948,0,0,0-9.87,12.9h-4.1a.948.948,0,0,0-.994.994v1.218a.937.937,0,0,0,.994.98h4.1A.937.937,0,0,0-8.876,15.112Zm.378,6.664V18.444a1.04,1.04,0,0,0-1.05-1.05h-4.718a1.04,1.04,0,0,0-1.05,1.05v3.332a1.037,1.037,0,0,0,1.05,1.036h4.718A1.037,1.037,0,0,0-8.5,21.776Zm-7.56-1.246V12.886a1.04,1.04,0,0,0-1.05-1.05h-.672V10.814a.434.434,0,0,0-.448-.392.439.439,0,0,0-.462.392v1.022h-.658a1.04,1.04,0,0,0-1.05,1.05v6.23a.43.43,0,0,0,.434.392.42.42,0,0,0,.434-.392V13.208a.344.344,0,0,1,.35-.336h.49v9.842a.439.439,0,0,0,.462.406.435.435,0,0,0,.448-.406V12.872h.518a.332.332,0,0,1,.336.336V20.53a1.072,1.072,0,0,1-.14.658.44.44,0,0,0-.154.35.417.417,0,0,0,.434.378.331.331,0,0,0,.266-.112A1.641,1.641,0,0,0-16.058,20.53Zm6.076-5.7a.335.335,0,0,1-.336.35h-3.206a.335.335,0,0,1-.336-.35v-.686a.332.332,0,0,1,.336-.336h3.206a.332.332,0,0,1,.336.336Zm.448,4.83H-11.48V18.29h1.61a.335.335,0,0,1,.336.35Zm0,1.918a.335.335,0,0,1-.336.35h-1.61V20.558h1.946Zm-2.814-1.918H-14.28V18.64a.335.335,0,0,1,.336-.35h1.6Zm0,2.268h-1.6a.335.335,0,0,1-.336-.35V20.558h1.932Zm18.41-5.978c0-.322-.182-.658-.462-.658H5.558a28.724,28.724,0,0,0-2.94.588A4.3,4.3,0,0,0-.644,14.51a4.12,4.12,0,0,0-2.576.742l-.042-.028a15.446,15.446,0,0,0,.938-2.464h2.3c.238,0,.42-.238.42-.6,0-.336-.182-.588-.42-.588H-2.044a3.21,3.21,0,0,0,.126-.616c0-.21-.238-.406-.588-.406-.742,0-.686.49-.8,1.022H-5.138c-.224,0-.406.252-.406.588,0,.364.182.6.406.6h1.554a16.176,16.176,0,0,1-1.358,3.318.35.35,0,0,0-.056.2c0,.392.49.658.742.658a.341.341,0,0,0,.28-.112A4.03,4.03,0,0,1-.994,15.476a3.521,3.521,0,0,1,2.338.756c-2.926.924-4.956,2.31-4.956,4.242,0,1.554,1.078,2.562,3.612,2.562H.714c.224,0,.406-.224.406-.588s-.168-.574-.392-.574H.07c-1.61,0-2.394-.42-2.394-1.47,0-1.358,1.764-2.478,4.4-3.22a3.988,3.988,0,0,1,.364,1.722v.574c0,.238.238.322.616.322s.6-.168.6-.406v-.658a4.364,4.364,0,0,0-.392-1.848,20.984,20.984,0,0,1,2.464-.42C5.922,16.442,6.062,16.232,6.062,15.952ZM20.72,13.334V12.242a1.028,1.028,0,0,0-1.05-1.036H17.514v-.532a.547.547,0,0,0-.6-.476c-.364,0-.616.224-.616.476v.532H14.14a1.028,1.028,0,0,0-1.05,1.036v1.092a.562.562,0,0,0,1.106.028v-.77a.327.327,0,0,1,.336-.35h4.746a.327.327,0,0,1,.336.35v.77a.544.544,0,0,0,.56.448A.528.528,0,0,0,20.72,13.334Zm-.378,8.442v-4.3a1.04,1.04,0,0,0-1.05-1.05H18.06l.406-1.582h1.078a.523.523,0,0,0,0-1.036h-2.9a.523.523,0,0,0,0,1.036H17.4L17,16.428h-.028a1.04,1.04,0,0,0-1.05,1.05v4.3a1.037,1.037,0,0,0,1.05,1.036h2.324A1.037,1.037,0,0,0,20.342,21.776ZM15.386,14.37v-.014a.494.494,0,0,0-.5-.448.509.509,0,0,0-.518.434,5.494,5.494,0,0,1-1.218,3.444.574.574,0,0,0-.1.308.484.484,0,0,0,.5.5c.266,0,.42-.21.56-.406V21.86a.468.468,0,0,0,.49.42.483.483,0,0,0,.5-.42V17.688a.475.475,0,0,0-.434-.42A7.022,7.022,0,0,0,15.386,14.37Zm-2.73,3.43v-.056l-.5-2.66a.383.383,0,0,0-.378-.308.407.407,0,0,0-.392.364l.224,1.2a2.564,2.564,0,0,1-1.246.224H9.618c-.126,0-.21-.056-.21-.126a.226.226,0,0,1,.056-.14L11.9,12.83a.417.417,0,0,0,.07-.21.541.541,0,0,0-.532-.532.437.437,0,0,0-.308.154l-.644.924H9.422c-.126,0-.2-.042-.2-.126a.363.363,0,0,1,.056-.14l1.078-1.568a.423.423,0,0,0,.07-.224.52.52,0,0,0-.5-.5.4.4,0,0,0-.308.14l-1.2,1.75a1.465,1.465,0,0,0-.238.812.883.883,0,0,0,.952.854H9.8L8.456,16.05a1.355,1.355,0,0,0-.28.812.788.788,0,0,0,.84.784H9.9V22.6a.474.474,0,0,0,.938,0V17.618a2.981,2.981,0,0,0,.952-.28l.1.56a.38.38,0,0,0,.378.266A.4.4,0,0,0,12.656,17.8Zm.028,3.654c0-.266-.182-.644-.462-.644-.224,0-.644.154-.644.434,0,.238.168.658.434.658S12.684,21.72,12.684,21.454ZM9.2,20.572c0-.336-.35-.448-.63-.448-.336,0-.434.378-.434.658,0,.322.392.42.658.42C9.1,21.2,9.2,20.824,9.2,20.572ZM19.39,19.158H16.842V17.8a.335.335,0,0,1,.35-.336h1.862a.324.324,0,0,1,.336.336Zm0,2.3a.324.324,0,0,1-.336.336H17.192a.335.335,0,0,1-.35-.336V20.082H19.39ZM35.014,16.82a4.812,4.812,0,0,0-3.4-4.844l.154-.728c0-.028.014-.056.014-.084,0-.266-.322-.462-.672-.462a.5.5,0,0,0-.546.35l-.14.658a7.318,7.318,0,0,0-1.134-.084,7.152,7.152,0,0,0-3.668.98L25.144,11.6a.394.394,0,0,0-.378-.21c-.322,0-.742.28-.742.588a.252.252,0,0,0,.028.14l.574,1.218a6.054,6.054,0,0,0-2.086,4.438c0,2.45,1.484,3.99,3.3,3.99,2.562,0,4.032-2.576,5.488-8.624a3.778,3.778,0,0,1,.182,7,.5.5,0,0,0-.252.448.743.743,0,0,0,.588.756.409.409,0,0,0,.126-.028A4.683,4.683,0,0,0,35.014,16.82ZM30.17,12.858c-1.3,5.7-2.646,7.616-4.214,7.616-1.344,0-2.226-1.176-2.226-2.716a4.972,4.972,0,0,1,1.554-3.388l1.2,2.576a.322.322,0,0,0,.308.168c.252,0,.63-.252.63-.532a.208.208,0,0,0-.028-.126l-1.3-2.73a5.728,5.728,0,0,1,3.192-.924A8.762,8.762,0,0,1,30.17,12.858Zm19.026,5.8c0-2.2-1.512-3.948-5.082-3.948a8.12,8.12,0,0,0-2.59.434v-.056l4.354-3.094a.426.426,0,0,0,.154-.336c0-.238-.2-.784-.616-.784H37.772c-.238,0-.42.238-.42.588s.182.588.42.588h5.7c.126,0,.182.042.182.1,0,.028-.028.084-.112.14l-4.172,3.108a.4.4,0,0,0-.154.336c0,.336.308.728.588.728a.23.23,0,0,0,.14-.028,8.815,8.815,0,0,1,3.43-.742c3.248,0,4.508,1.344,4.508,3,0,1.47-1.288,3.178-4.48,3.178-2.548,0-3.346-.994-3.346-1.778a1.369,1.369,0,0,1,1.54-1.386,3.056,3.056,0,0,1,2.492,1.5.329.329,0,0,0,.266.1.586.586,0,0,0,.546-.546.282.282,0,0,0-.042-.154,4.312,4.312,0,0,0-3.3-1.862,2.429,2.429,0,0,0-2.7,2.338c0,1.344.938,2.912,4.606,2.912C47.782,22.98,49.2,20.684,49.2,18.654Zm13.384-6.4c0-.406-.252-.826-.588-.826H55.58c-.238,0-.434.238-.434.616s.2.6.434.6h4.942c.126,0,.2.028.2.1a.279.279,0,0,1-.1.154l-.77.756a.319.319,0,0,0-.1.266.758.758,0,0,0,.658.644.4.4,0,0,0,.28-.126l1.75-1.834A.473.473,0,0,0,62.58,12.256ZM62.552,22.1c0-.364-.182-.6-.434-.6H57.372c-2.73,0-4.116-.434-4.1-2.1.014-.826.56-1.372.56-1.582,0-.252-.42-.5-.77-.5a.477.477,0,0,0-.448.224,3.718,3.718,0,0,0-.644,2c0,2.24,1.484,3.178,5.418,3.178h4.732C62.37,22.714,62.552,22.476,62.552,22.1ZM76.58,11.864c0-.406-.28-.77-.574-.77a40.615,40.615,0,0,0-4.158,2.128c-.2.112-.378.238-.56.35l-.924-2.632a.428.428,0,0,0-.448-.266c-.35,0-.826.28-.826.616a.409.409,0,0,0,.028.126l1.064,2.926c-1.9,1.442-2.772,2.912-2.772,4.648,0,1.932,1.372,3.682,4.942,3.682h2.562c.238,0,.434-.266.434-.644,0-.35-.2-.6-.434-.6H72.408c-2.6,0-3.7-1.218-3.7-2.45,0-1.638,1.148-3.108,3.7-4.662.924-.56,2.758-1.5,3.92-2.016A.436.436,0,0,0,76.58,11.864Zm16.856,3.248c0-.154-.224-.7-.5-.7-.182,0-.672.224-.672.518.014.154.224.672.518.672C92.918,15.6,93.436,15.406,93.436,15.112Zm-2.184.672c0-.154-.238-.7-.5-.7-.2,0-.672.224-.672.5,0,.224.238.686.5.686C90.734,16.274,91.252,16.064,91.252,15.784Zm1.554-3.794c0-.35-.168-.686-.532-.686h-11.1c-.252,0-.434.252-.434.63s.182.616.434.616l8.148-.042c.112,0,.154.014.154.042s-.042.056-.154.084c-4.97,1.372-7.2,3.416-7.2,5.7,0,1.694.98,3.5,3.724,4.242a.388.388,0,0,0,.126.014c.322,0,.532-.392.532-.784a.471.471,0,0,0-.308-.476c-1.9-.63-2.744-1.708-2.744-3.052,0-2.3,2.716-4.032,8.96-5.754A.463.463,0,0,0,92.806,11.99ZM-58.968,43.622V33.654a1.04,1.04,0,0,0-1.05-1.05h-3.15a1.04,1.04,0,0,0-1.05,1.05v2.128a1.04,1.04,0,0,0,1.05,1.05h3.052v6.426a.631.631,0,0,1-.616.658h-.35c-.182,0-.392.182-.392.532a.494.494,0,0,0,.462.532h.658A1.332,1.332,0,0,0-58.968,43.622Zm-3.752-5.7c0-.28-.434-.476-.658-.476-.252,0-.448.448-.448.658,0,.266.406.462.644.462C-62.9,38.568-62.72,38.162-62.72,37.924Zm-3.164.2c0-.224-.182-.672-.434-.672s-.672.2-.672.462c0,.238.21.658.476.658C-66.276,38.568-65.884,38.372-65.884,38.12Zm.308-2.338V33.654a1.04,1.04,0,0,0-1.05-1.05H-69.79a1.04,1.04,0,0,0-1.05,1.05v9.408a.547.547,0,0,0,.574.476.547.547,0,0,0,.574-.476v-6.23h3.066A1.04,1.04,0,0,0-65.576,35.782Zm3.724,5.306v-1.4a1.04,1.04,0,0,0-1.05-1.05h-4a1.04,1.04,0,0,0-1.05,1.05v1.4a1.04,1.04,0,0,0,1.05,1.05h.406A2.258,2.258,0,0,1-68,43.972a.351.351,0,0,0-.252.364.532.532,0,0,0,.518.546.562.562,0,0,0,.21-.042,3.192,3.192,0,0,0,2-2.7h1.092v1.428c0,.77.308,1.246,1.232,1.246h.7a.469.469,0,0,0,.434-.49.427.427,0,0,0-.406-.476h-.462c-.364,0-.518-.14-.518-.518v-1.19h.546A1.04,1.04,0,0,0-61.852,41.088Zm1.736-6.734h-2.968V33.78a.332.332,0,0,1,.336-.336h2.3a.332.332,0,0,1,.336.336Zm0,1.68h-2.632a.324.324,0,0,1-.336-.336V35.11h2.968Zm-6.594-1.68h-2.982V33.78a.332.332,0,0,1,.336-.336h2.31a.332.332,0,0,1,.336.336Zm0,1.344a.324.324,0,0,1-.336.336h-2.646V35.11h2.982Zm3.738,5.166a.335.335,0,0,1-.336.35h-3.206a.344.344,0,0,1-.336-.35v-.98a.332.332,0,0,1,.336-.336h3.206a.323.323,0,0,1,.336.336Zm17.92-7.028a.469.469,0,0,0-.434-.49h-2.646a2.866,2.866,0,0,0,.154-.686.513.513,0,0,0-.532-.462.581.581,0,0,0-.6.434,5.051,5.051,0,0,1-.826,1.932.353.353,0,0,0-.07.224.581.581,0,0,0,.616.5.417.417,0,0,0,.378-.182,4.1,4.1,0,0,0,.49-.784h3.038A.469.469,0,0,0-45.052,33.836Zm0,2.66a.469.469,0,0,0-.434-.49h-2.548a.469.469,0,0,0-.434.49.469.469,0,0,0,.434.49h2.548A.469.469,0,0,0-45.052,36.5ZM-50.54,35.32V34.7c0-.406-.238-.686-.756-.686h-.98V33.36h.756a.372.372,0,0,0,.35-.378.372.372,0,0,0-.35-.378h-3.85a1.04,1.04,0,0,0-1.05,1.05v2.8a1.04,1.04,0,0,0,1.05,1.05h3.85a.376.376,0,0,0,.35-.392.372.372,0,0,0-.35-.378h-.756v-.686h.98A.684.684,0,0,0-50.54,35.32Zm5.978,6.636V39.128a1.04,1.04,0,0,0-1.05-1.05h-9.772a1.04,1.04,0,0,0-1.05,1.05v2.828a1.04,1.04,0,0,0,1.05,1.05h2.226c-.35.56-1.036.91-2.506.994-.2.014-.364.154-.364.49a.436.436,0,0,0,.42.448h.028c2.142-.168,3.122-.84,3.682-1.932h2.324v.5a1.216,1.216,0,0,0,1.316,1.3h2.772a.459.459,0,0,0,.42-.49.441.441,0,0,0-.42-.462h-2.338c-.392,0-.518-.2-.518-.532v-.322h2.73A1.04,1.04,0,0,0-44.562,41.956Zm-8.694-7.938h-2.03V33.71a.335.335,0,0,1,.336-.35h1.694Zm1.638,1.134a.218.218,0,0,1-.224.21h-3.444V34.7h3.444a.2.2,0,0,1,.224.2Zm5.838,4.354h-9.436v-.364a.335.335,0,0,1,.35-.336h8.75a.323.323,0,0,1,.336.336Zm-7.476-2.772H-54.95a.324.324,0,0,1-.336-.336v-.35h2.03Zm7.476,4.158h-9.436v-.686h9.436Zm0,1.05a.323.323,0,0,1-.336.336h-8.75a.335.335,0,0,1-.35-.336v-.336h9.436Zm16.2-8.75a.562.562,0,0,0-.49-.588h-9.1a.562.562,0,0,0-.49.588.567.567,0,0,0,.49.6h7.434v9.422a.583.583,0,0,1-.56.574h-1.68a.562.562,0,0,0-.5.588.567.567,0,0,0,.5.6H-32.2a1.667,1.667,0,0,0,1.694-1.666v-9.52h.434A.567.567,0,0,0-29.582,33.192Zm-3.766,7.868V37.1a1.04,1.04,0,0,0-1.05-1.05h-6.16a1.031,1.031,0,0,0-1.05,1.05V41.06a1.031,1.031,0,0,0,1.05,1.05h6.16A1.04,1.04,0,0,0-33.348,41.06Zm-1.246-.434a.356.356,0,0,1-.35.35h-5.068a.347.347,0,0,1-.35-.35V37.532a.335.335,0,0,1,.35-.336h5.068a.344.344,0,0,1,.35.336Zm19.25-7.154a.506.506,0,0,0-.49-.532.238.238,0,0,0-.1.014l-3.486,1.092V32.7a.562.562,0,0,0-.588-.5.581.581,0,0,0-.616.5V36.58A1.512,1.512,0,0,0-19.1,38.106h2.044a.537.537,0,0,0,.462-.574.532.532,0,0,0-.462-.56h-1.834a.535.535,0,0,1-.532-.546V35.152l3.766-1.19A.484.484,0,0,0-15.344,33.472Zm-6.188,2.254a.178.178,0,0,0-.014-.084l-.686-2.478a.54.54,0,0,0-.532-.364.583.583,0,0,0-.588.518.178.178,0,0,0,.014.084l.294,1.022a9.8,9.8,0,0,1-3.178.406l.588-1.82a.388.388,0,0,0,.014-.126.582.582,0,0,0-.616-.532.53.53,0,0,0-.532.35l-.658,2.128h-.224a.517.517,0,0,0-.462.546.522.522,0,0,0,.462.56c2.73,0,3.864-.112,4.872-.546l.14.5a.518.518,0,0,0,.5.35A.587.587,0,0,0-21.532,35.726Zm6.188,4.3a.572.572,0,0,0-.5-.588.178.178,0,0,0-.084.014l-3.486,1.106v-1.3a.552.552,0,0,0-.588-.49.571.571,0,0,0-.616.49v4.018A1.521,1.521,0,0,0-19.1,44.8h2.044a.542.542,0,0,0,.462-.588.5.5,0,0,0-.462-.518h-1.834a.544.544,0,0,1-.532-.546v-1.47l3.766-1.19A.491.491,0,0,0-15.344,40.024Zm-6.44,3.57V38.162a1.037,1.037,0,0,0-1.05-1.036h-3.7a1.037,1.037,0,0,0-1.05,1.036v5.46a.557.557,0,0,0,.6.49.557.557,0,0,0,.6-.49v-.966H-23v.9a.508.508,0,0,1-.5.49h-1.078a.43.43,0,0,0-.35.462.454.454,0,0,0,.42.476h1.358A1.3,1.3,0,0,0-21.784,43.594ZM-23,39.408h-3.374V38.4a.335.335,0,0,1,.35-.336h2.674A.335.335,0,0,1-23,38.4Zm0,2.31h-3.374V40.346H-23ZM-2.73,33.864c0-.406-.28-.77-.574-.77a40.616,40.616,0,0,0-4.158,2.128c-.2.112-.378.238-.56.35l-.924-2.632a.428.428,0,0,0-.448-.266c-.35,0-.826.28-.826.616a.409.409,0,0,0,.028.126l1.064,2.926c-1.9,1.442-2.772,2.912-2.772,4.648,0,1.932,1.372,3.682,4.942,3.682H-4.4c.238,0,.434-.266.434-.644,0-.35-.2-.6-.434-.6H-6.9c-2.6,0-3.7-1.218-3.7-2.45,0-1.638,1.148-3.108,3.7-4.662.924-.56,2.758-1.5,3.92-2.016A.436.436,0,0,0-2.73,33.864Zm15.764.322c0-.35-.168-.588-.406-.588H10.08c-.238,0-.406.238-.406.588s.168.574.406.574h2.548C12.866,34.76,13.034,34.536,13.034,34.186Zm.364,6.342a.423.423,0,0,0-.28-.462c-.322-.112-.672-.224-1.064-.336v-2.6c0-.238-.238-.434-.6-.434s-.6.2-.6.434v2.3a12.369,12.369,0,0,0-2.66-.308c-2.072,0-3.528,1.2-3.528,3.038,0,1.582,1.372,2.842,3.43,2.842,2.674,0,3.962-1.526,3.962-3.668v-.378a6.052,6.052,0,0,0,.854.28C13.174,41.228,13.4,40.948,13.4,40.528ZM7,34.648c0-.364-.182-.588-.42-.588H4.494a6.786,6.786,0,0,0,.154-1.05c0-.21-.224-.392-.588-.392s-.63.2-.658.434-.084.588-.154,1.008h-1.9c-.238,0-.42.224-.42.588s.182.588.42.588H3.038c-.266,1.372-.6,3.01-.938,4.228a.208.208,0,0,0-.014.1c0,.294.364.518.756.518a.422.422,0,0,0,.462-.294c.35-1.288.714-3.08.98-4.55h2.3C6.818,35.236,7,35.012,7,34.648Zm3.85,6.538a2.412,2.412,0,0,1-2.66,2.66c-1.582,0-2.31-.84-2.31-1.736,0-1.162.98-1.876,2.366-1.876a10.531,10.531,0,0,1,2.6.35Zm16.408-2.31c0-4.368-2.2-6.034-5.068-6.034a4.967,4.967,0,0,0-4.732,3.122V33.038c0-.252-.238-.434-.616-.434s-.616.182-.616.434V38.82c0,.238.238.434.616.434s.616-.2.616-.434v-.532c.028-.112.042-.21.07-.322a4.681,4.681,0,0,1,4.62-3.822c2.394,0,3.822,1.512,3.822,4.718,0,2.926-1.26,4.256-3.85,4.69a.472.472,0,0,0-.364.5c0,.434.21.742.518.742h.07C25.592,44.252,27.258,42.446,27.258,38.876Zm14.168,3a.457.457,0,0,0-.252-.462c-.91-.406-1.806-.826-2.758-1.176v-2.17h1.778c.224,0,.392-.21.392-.546s-.168-.56-.392-.56H38.416v-2.2h1.778c.224,0,.392-.21.392-.546s-.168-.546-.392-.546H38.416v-.644c0-.252-.238-.434-.616-.434s-.616.182-.616.434v.644h-3.64c-.224,0-.392.21-.392.546s.168.546.392.546h3.64v2.2H33.53c-.21,0-.378.21-.378.532s.168.518.378.518h2.982l.266.056h.406v1.778a11.237,11.237,0,0,0-3.052-.434c-2.45,0-3.71,1.288-3.71,2.73s.994,2.828,3.766,2.828c3.3,0,4.2-1.68,4.228-3.458.742.322,1.484.7,2.268,1.106a.373.373,0,0,0,.168.042C41.146,42.656,41.426,42.278,41.426,41.872Zm-4.242-.812c0,1.526-.476,2.8-3,2.8-1.848,0-2.478-.882-2.478-1.75,0-.9.98-1.6,2.492-1.6a9.194,9.194,0,0,1,2.982.5Zm18.48-6.832c0-.364-.182-.6-.42-.6h-1.3v-.574c0-.252-.266-.448-.658-.448s-.658.2-.658.448v.574H47.32c-.252,0-.434.238-.434.6s.182.616.434.616h5.306v2.31a6.679,6.679,0,0,0-3.346-.812c-2.814,0-4.27,1.834-4.27,3.486,0,1.4,1.008,3.4,3.934,3.4a4.864,4.864,0,0,0,4.564-3.458,3.475,3.475,0,0,1,.364,1.554,3.813,3.813,0,0,1-1.12,2.6.4.4,0,0,0-.14.308.722.722,0,0,0,.7.644.329.329,0,0,0,.238-.084,4.869,4.869,0,0,0,1.512-3.472,4.774,4.774,0,0,0-1.12-3.094V34.844h1.3C55.482,34.844,55.664,34.592,55.664,34.228Zm-3.052,4.326a3.675,3.675,0,0,1-3.6,3.514c-2.184,0-2.758-1.428-2.758-2.3,0-1.022.924-2.38,3.094-2.38A4.805,4.805,0,0,1,52.612,38.554ZM63.98,42.138a2.814,2.814,0,1,0-2.814,2.814A2.814,2.814,0,0,0,63.98,42.138Zm-.938-.014a1.869,1.869,0,1,1-3.738,0,1.869,1.869,0,1,1,3.738,0Z" transform="translate(206 498.427)" fill="#333"/>
        </g>
        <g id="グループ_23" data-name="グループ 23" transform="translate(0 -0.624)">
          <path id="パス_88" data-name="パス 88" d="M-76.632-1.944a1.1,1.1,0,0,0-.384-.888l-3-1.944a16.019,16.019,0,0,0,2.736-9c0-1.224-.648-2.232-1.848-2.232H-90.816a1.014,1.014,0,0,0-.888,1.1,1,1,0,0,0,.888,1.08h10.7a.538.538,0,0,1,.552.528v.048c-.36,7.44-4.728,11.472-11.856,12.432a1.008,1.008,0,0,0-.864.984,1.09,1.09,0,0,0,.936,1.152h.1a15.924,15.924,0,0,0,9.792-4.392l3.192,2.16a.832.832,0,0,0,.48.168A1.265,1.265,0,0,0-76.632-1.944ZM-51.384-13.7v-3.024a1.783,1.783,0,0,0-1.8-1.8h-14.3a1,1,0,0,0-.888,1.08,1.014,1.014,0,0,0,.888,1.1h13.272a.555.555,0,0,1,.576.576v2.04c0,6.648-3.888,9.024-10.32,9.1L-65.9-8.544a.989.989,0,0,0-.84-.48,1.247,1.247,0,0,0-1.224,1.08.639.639,0,0,0,.072.288l4.224,8.688a1,1,0,0,0,.888.5A1.234,1.234,0,0,0-61.536.456.767.767,0,0,0-61.608.12l-1.3-2.592C-55.656-2.832-51.384-6.576-51.384-13.7Zm24.96,4.8a1.064,1.064,0,0,0-.936-1.152H-44.688A1.064,1.064,0,0,0-45.624-8.9a1.047,1.047,0,0,0,.936,1.1H-27.36A1.047,1.047,0,0,0-26.424-8.9Zm21,.672a1.066,1.066,0,0,0-.72-1.056,25.046,25.046,0,0,1-7.44-2.64v-6.72a1,1,0,0,0-1.08-.888,1,1,0,0,0-1.08.888v19.8a1,1,0,0,0,1.08.888,1,1,0,0,0,1.08-.888V-9.528A27.4,27.4,0,0,0-6.48-7.1h.1A1.072,1.072,0,0,0-5.424-8.232Zm27.24-4.92v-1.056a1.48,1.48,0,0,0-1.536-1.56H2.712a1,1,0,0,0-.888,1.08,1,1,0,0,0,.888,1.08H19.056a.569.569,0,0,1,.576.576C19.608-5.64,16.176-1.536,9.288-.84A.922.922,0,0,0,8.52.1c0,.72.408,1.224,1.008,1.224H9.6C17.9.576,21.816-4.512,21.816-13.152Zm21.816,1.728a.9.9,0,0,0-.792-.96H40.632V-14.4a.912.912,0,0,0-.96-.816.921.921,0,0,0-.984.816v2.016H31.944a.9.9,0,0,0-.792.96.9.9,0,0,0,.792.96h6.744v.264A82.449,82.449,0,0,1,26.76-1.728a.858.858,0,0,0-.432.768.884.884,0,0,0,.816.936.844.844,0,0,0,.432-.12A72.863,72.863,0,0,0,38.688-7.968V-.576a.9.9,0,0,0,.984.792.9.9,0,0,0,.96-.792v-9.888H42.84A.9.9,0,0,0,43.632-11.424Zm14.856-4.152a.993.993,0,0,0-.72-1.008l-5.52-.96c-.552,0-.936.672-.936,1.2a.95.95,0,0,0,.72.96l5.448.984A1.106,1.106,0,0,0,58.488-15.576ZM69.36-7.368a1.138,1.138,0,0,0-1.1-1.128,1.026,1.026,0,0,0-.816.384A17.324,17.324,0,0,1,54.312-.768a.948.948,0,0,0-.84.96A1.162,1.162,0,0,0,54.5,1.44,18.319,18.319,0,0,0,69.24-6.912.919.919,0,0,0,69.36-7.368Zm26.5-4.44c0-.264-.384-1.2-.864-1.2-.312,0-1.152.384-1.152.888.024.264.384,1.152.888,1.152C94.968-10.968,95.856-11.3,95.856-11.808Zm-3.744,1.152c0-.264-.408-1.2-.864-1.2-.336,0-1.152.384-1.152.864,0,.384.408,1.176.864,1.176C91.224-9.816,92.112-10.176,92.112-10.656Zm2.664-6.5c0-.6-.288-1.176-.912-1.176H74.832c-.432,0-.744.432-.744,1.08s.312,1.056.744,1.056L88.8-16.272c.192,0,.264.024.264.072s-.072.1-.264.144C80.28-13.7,76.464-10.2,76.464-6.288c0,2.9,1.68,6,6.384,7.272a.664.664,0,0,0,.216.024c.552,0,.912-.672.912-1.344a.808.808,0,0,0-.528-.816c-3.264-1.08-4.7-2.928-4.7-5.232,0-3.936,4.656-6.912,15.36-9.864A.794.794,0,0,0,94.776-17.16ZM-73.776,20.12V16.64c0-.408-.432-.72-1.032-.72-.624,0-1.032.312-1.032.72v3.48c0,.432.408.72,1.032.72C-74.208,20.84-73.776,20.552-73.776,20.12Zm.216,10.008c0-5.112-3.7-7.248-9.96-7.248-.336,0-.648.024-.984.024V19.472H-81c.408,0,.744-.408.744-1.032,0-.648-.336-1.056-.744-1.056h-3.5V16.376c0-.408-.408-.72-1.056-.72-.624,0-1.032.312-1.032.72v1.008h-4.056c-.408,0-.72.408-.72,1.056,0,.624.312,1.032.72,1.032h4.056V23.12C-91.56,23.888-94.7,26.6-94.7,30.7c0,3.048,1.968,5.664,5.28,5.664,3.48,0,4.92-2.328,4.92-5.352V24.992a6.339,6.339,0,0,1,.7-.048h.408c5.472,0,7.584,1.848,7.584,5.016a4.742,4.742,0,0,1-.816,2.592.885.885,0,0,0-.12.408c0,.648.888,1.176,1.392,1.176a.574.574,0,0,0,.5-.24A5.7,5.7,0,0,0-73.56,30.128Zm-13.032.48c0,2.472-.792,3.6-3.1,3.6a3.145,3.145,0,0,1-3-3.456c0-2.952,2.04-4.92,6.1-5.544Zm35.928-12.024c0-.384-.408-1.1-.84-1.1-.36,0-1.056.408-1.056.84,0,.408.384,1.08.816,1.08C-51.36,19.4-50.664,19.04-50.664,18.584Zm0,5.712c0-.456-.7-.816-1.056-.816-.456,0-.84.672-.84,1.08,0,.432.7.84,1.08.84C-51.072,25.4-50.664,24.656-50.664,24.3Zm1.728,5.016a.887.887,0,0,0-.792-.936h-9.264V27.032h2.04a1.783,1.783,0,0,0,1.8-1.8V18.368a1.762,1.762,0,0,0-1.8-1.776H-59.76l.312-.6a.677.677,0,0,0,.1-.36c0-.36-.336-.672-.912-.672a1,1,0,0,0-.984.552l-.576,1.08h-1.248a1.762,1.762,0,0,0-1.8,1.776v6.864a1.783,1.783,0,0,0,1.8,1.8h2.04v1.344H-70.32a.887.887,0,0,0-.792.936.871.871,0,0,0,.792.936h7.464a11,11,0,0,1-5.832,3.888.9.9,0,0,0-.7.864.96.96,0,0,0,.912.984.408.408,0,0,0,.168-.024,12.687,12.687,0,0,0,7.272-5.04V36.1A.971.971,0,0,0-60,36.968a.963.963,0,0,0,1.008-.864v-5.16a12.951,12.951,0,0,0,7.248,5.016.356.356,0,0,0,.168.024.989.989,0,0,0,.912-.96.911.911,0,0,0-.7-.888,11.025,11.025,0,0,1-5.808-3.888h7.44A.871.871,0,0,0-48.936,29.312ZM-67.608,18.368c0-.456-.672-.864-1.08-.864-.432,0-.84.768-.84,1.1,0,.432.7.816,1.08.816C-67.992,19.424-67.608,18.776-67.608,18.368Zm-.024,6.216c0-.408-.36-1.08-.816-1.08-.384,0-1.08.36-1.08.816,0,.36.432,1.1.84,1.1S-67.632,25.016-67.632,24.584Zm10.584-3.552H-63V18.92a.569.569,0,0,1,.576-.576h4.8a.555.555,0,0,1,.576.576Zm0,3.72a.555.555,0,0,1-.576.576h-4.8A.569.569,0,0,1-63,24.752V22.664h5.952Zm27.6,10.872c0-.648-.264-1.224-.744-1.224h-.1a12.739,12.739,0,0,1-1.728.12c-4.224,0-7.2-.984-7.2-6.264v-11.9c0-.408-.432-.744-1.08-.744-.672,0-1.08.336-1.08.744v12.12c0,5.76,3.024,8.184,9.216,8.184a18.833,18.833,0,0,0,2.136-.168C-29.688,36.44-29.448,36.1-29.448,35.624Zm28.3-7.824a.871.871,0,0,0-.456-.84c-.336-.144-.672-.312-1.008-.48.168-1.464.288-3,.312-4.584,0-.408-.408-.744-1.056-.744s-1.08.336-1.08.744a37.256,37.256,0,0,1-.24,3.72,27.387,27.387,0,0,0-6.6-1.824,51.9,51.9,0,0,0,.288-5.472,1.752,1.752,0,0,0-1.776-1.752h-4.944c-.408,0-.7.384-.7.984,0,.624.288,1.032.7,1.032h3.864a.631.631,0,0,1,.648.648c0,1.608-.048,3.048-.144,4.344-.36,0-.7-.024-1.056-.024-4.44,0-8.4,2.184-8.4,7.032,0,2.976,1.656,5.52,4.752,5.52,3,0,5.5-2.424,6.552-10.272a27.542,27.542,0,0,1,6.5,1.968,17.894,17.894,0,0,1-1.44,4.776.829.829,0,0,0-.072.312c0,.552.7.96,1.344.96a.723.723,0,0,0,.672-.336,17.962,17.962,0,0,0,1.512-4.8,2.983,2.983,0,0,0,.96.384C-1.512,29.1-1.152,28.5-1.152,27.8Zm-12.384-2.184c-.768,6.168-2.592,8.328-4.56,8.328-1.344,0-2.592-.936-2.592-3.5,0-3.288,2.76-4.848,6.1-4.848C-14.256,25.592-13.9,25.616-13.536,25.616ZM19.08,34.928a.728.728,0,0,0-.288-.6A95.359,95.359,0,0,0,8.52,28.256c-1.632-.84-2.136-1.68-2.136-2.664V25.16c0-1.344.744-2.16,2.568-3.144l7.464-4.08a.615.615,0,0,0,.312-.6c0-.6-.48-1.248-.984-1.248a.547.547,0,0,0-.264.072L7.488,20.528c-1.824.984-3.312,2.424-3.312,4.512v.552c0,1.992.84,3.12,3.192,4.392a102.592,102.592,0,0,1,10.224,6.192.542.542,0,0,0,.36.12A1.4,1.4,0,0,0,19.08,34.928ZM47.28,16.4c0-.264-.36-1.224-.84-1.224-.312,0-1.152.36-1.152.888,0,.24.336,1.176.84,1.176C46.392,17.24,47.28,16.88,47.28,16.4Zm-3.456,1.128c0-.264-.36-1.224-.84-1.224-.312,0-1.152.36-1.152.888,0,.24.336,1.176.84,1.176C42.936,18.368,43.824,18.032,43.824,17.528ZM46.3,24.8c0-.648-.312-1.056-.72-1.056H36.72c-.408,0-.744.408-.744,1.056,0,.624.336,1.056.744,1.056h8.856C45.984,25.856,46.3,25.424,46.3,24.8ZM39.96,18.392c0-.624-.336-1.032-.744-1.032H31.68l.12-1.128c0-.36-.408-.672-1.032-.672-1.272,0-1.128.888-1.248,1.8H26.352c-.432,0-.744.408-.744,1.032,0,.648.312,1.056.744,1.056h2.88c-.6,4.344-1.7,11.256-2.208,13.824,0,.048-.024.1-.024.144,0,.5.576.792,1.152.792a.871.871,0,0,0,.936-.576c.5-2.64,1.656-9.72,2.3-14.184h7.824C39.624,19.448,39.96,19.04,39.96,18.392Zm3.624,16.92c0-.624-.312-1.032-.72-1.032h-3.7c-4.008,0-4.656-1.128-4.656-2.208,0-1.128.744-1.848.744-2.208,0-.408-.672-.792-1.224-.792a.792.792,0,0,0-.7.336,6.16,6.16,0,0,0-.96,3.024c0,2.064,1.56,3.936,6.576,3.936h3.912C43.272,36.368,43.584,35.96,43.584,35.312ZM70.008,19.76c0-.648-.336-1.08-.744-1.08h-5.64c-.24-.84-.432-1.68-.576-2.448-.072-.432-.5-.72-1.176-.72-.648,0-1.032.336-1.032.7a20.061,20.061,0,0,0,.552,2.472H55.32c-.408,0-.744.432-.744,1.08s.336,1.08.744,1.08h6.72a34.7,34.7,0,0,0,3.528,7.56.84.84,0,0,0,.744.36c.84,0,1.344-.528,1.344-.984a.461.461,0,0,0-.1-.288A28.566,28.566,0,0,1,64.3,20.84h4.968C69.672,20.84,70.008,20.408,70.008,19.76Zm-7.44,15.264c0-.624-.312-1.032-.744-1.032h-2.4c-5.4,0-6.984-1.248-6.984-3.624,0-1.608,1.392-2.64,1.392-3.24,0-.456-.456-.864-1.2-.864a.781.781,0,0,0-.624.24A6.65,6.65,0,0,0,50.28,30.68c0,3.264,2.16,5.4,8.856,5.4h2.688C62.256,36.08,62.568,35.672,62.568,35.024Zm31.584-8.376v-.072a30.1,30.1,0,0,0-1.272-5.208.8.8,0,0,0-.84-.456c-.792,0-1.2.456-1.2.864a.356.356,0,0,0,.024.168,34.192,34.192,0,0,1,1.176,4.848c.048.36.384.624.912.624C93.6,27.416,94.152,27.1,94.152,26.648ZM84.816,31.28a1.453,1.453,0,0,0-1.272-1.272.6.6,0,0,0-.456.192L79.7,33.608a.626.626,0,0,1-.48.216.664.664,0,0,1-.216-.024c-1.32-.432-2.256-2.208-2.256-4.728V16.544c0-.408-.456-.744-1.08-.744-.672,0-1.1.336-1.1.744V29.288c0,3.216,1.32,6.168,4.008,6.912a3.038,3.038,0,0,0,.624.1,1.689,1.689,0,0,0,1.248-.528L84.6,31.784A.691.691,0,0,0,84.816,31.28Z" transform="translate(206 412.97)" fill="#333"/>
          <g id="icon" transform="translate(6.434 9.148)">
            <g id="Layer_7" data-name="Layer 7" transform="translate(161.159 242.903)">
              <g id="パス_86" data-name="パス 86" transform="translate(-7.5 -2)" fill="#298c6d">
                <path d="M 70.88999176025391 128.2799987792969 L 21.08356094360352 128.2799987792969 C 17.58882904052734 128.2799987792969 14.30324459075928 126.919059753418 11.8320951461792 124.4478912353516 C 9.360928535461426 121.9767227172852 7.99999475479126 118.691162109375 7.99999475479126 115.1964111328125 L 7.99999475479126 15.58357524871826 C 7.99999475479126 12.08882522583008 9.360928535461426 8.803258895874023 11.8320951461792 6.332091808319092 C 14.30324459075928 3.860941648483276 17.58882904052734 2.500008344650269 21.08357810974121 2.500008344650269 L 70.88999176025391 2.500008344650269 C 74.38474273681641 2.500008344650269 77.67031097412109 3.860941648483276 80.14146423339844 6.332091808319092 C 82.61262512207031 8.803258895874023 83.97356414794922 12.08882522583008 83.97356414794922 15.58357524871826 L 83.97356414794922 115.1964111328125 C 83.97356414794922 118.691162109375 82.61262512207031 121.9767227172852 80.14146423339844 124.4478912353516 C 77.67031097412109 126.919059753418 74.38472747802734 128.2799987792969 70.88999176025391 128.2799987792969 Z M 21.08357810974121 10.55570888519287 C 18.31119537353516 10.55570888519287 16.05571174621582 12.81119155883789 16.05571174621582 15.58357524871826 L 16.05571174621582 115.1964111328125 C 16.05571174621582 117.9687728881836 18.31119537353516 120.2242584228516 21.08357810974121 120.2242584228516 L 70.88999176025391 120.2242584228516 C 73.66236114501953 120.2242584228516 75.9178466796875 117.9687728881836 75.9178466796875 115.1964111328125 L 75.9178466796875 15.58357524871826 C 75.9178466796875 12.81119155883789 73.66236114501953 10.55570888519287 70.88999176025391 10.55570888519287 L 66.36212921142578 10.55570888519287 L 65.86212921142578 10.55570888519287 L 65.86212921142578 11.05570888519287 C 65.86212921142578 13.2766752243042 64.05524444580078 15.08357524871826 61.83427810668945 15.08357524871826 L 30.13927841186523 15.08357524871826 C 27.91831207275391 15.08357524871826 26.11142730712891 13.2766752243042 26.11142730712891 11.05570888519287 L 26.11142730712891 10.55570888519287 L 25.61142730712891 10.55570888519287 L 21.08357810974121 10.55570888519287 Z" stroke="none"/>
                <path d="M 21.08358001708984 2.999992370605469 C 17.72238159179688 2.999992370605469 14.5623779296875 4.308906555175781 12.18564605712891 6.685638427734375 C 9.808914184570312 9.0623779296875 8.499992370605469 12.22237396240234 8.499992370605469 15.58357238769531 L 8.499992370605469 115.1964111328125 C 8.499992370605469 118.5576095581055 9.808914184570312 121.7176055908203 12.18564605712891 124.0943450927734 C 14.56236267089844 126.471061706543 17.72238159179688 127.7799758911133 21.08356475830078 127.7799758911133 L 70.88999938964844 127.7799758911133 C 74.25117492675781 127.7799758911133 77.41119384765625 126.471061706543 79.78791046142578 124.0943450927734 C 82.16464233398438 121.7176055908203 83.47356414794922 118.5576095581055 83.47356414794922 115.1964111328125 L 83.47356414794922 15.58357238769531 C 83.47356414794922 12.22237396240234 82.16464233398438 9.0623779296875 79.78791046142578 6.685638427734375 C 77.41119384765625 4.308906555175781 74.25117492675781 2.999992370605469 70.88999938964844 2.999992370605469 L 21.08358001708984 2.999992370605469 M 61.83427810668945 14.58357238769531 C 63.77954483032227 14.58357238769531 65.36212921142578 13.0009765625 65.36212921142578 11.05570983886719 L 65.36212921142578 10.05570983886719 L 70.88999938964844 10.05570983886719 C 73.93806457519531 10.05570983886719 76.4178466796875 12.53549194335938 76.4178466796875 15.58357238769531 L 76.4178466796875 115.1964111328125 C 76.4178466796875 118.2444763183594 73.93806457519531 120.7242584228516 70.88999938964844 120.7242584228516 L 21.08358001708984 120.7242584228516 C 18.03549194335938 120.7242584228516 15.55570983886719 118.2444763183594 15.55570983886719 115.1964111328125 L 15.55570983886719 15.58357238769531 C 15.55570983886719 12.53549194335938 18.03549194335938 10.05570983886719 21.08358001708984 10.05570983886719 L 26.61142730712891 10.05570983886719 L 26.61142730712891 11.05570983886719 C 26.61142730712891 13.0009765625 28.19401168823242 14.58357238769531 30.13927841186523 14.58357238769531 L 61.83427810668945 14.58357238769531 M 21.08358001708984 1.999984741210938 L 70.88999938964844 1.999984741210938 C 78.39197540283203 1.999984741210938 84.47356414794922 8.081573486328125 84.47356414794922 15.58357238769531 L 84.47356414794922 115.1964111328125 C 84.47356414794922 122.6984100341797 78.39197540283203 128.7799682617188 70.88999938964844 128.7799682617188 L 21.08356475830078 128.7799682617188 C 13.58158111572266 128.7799682617188 7.499992370605469 122.6984100341797 7.499992370605469 115.1964111328125 L 7.499992370605469 15.58357238769531 C 7.499992370605469 8.081573486328125 13.58158111572266 1.999984741210938 21.08358001708984 1.999984741210938 Z M 61.83427810668945 15.58357238769531 L 30.13927841186523 15.58357238769531 C 27.63861083984375 15.58357238769531 25.61142730712891 13.55637359619141 25.61142730712891 11.05570983886719 L 21.08358001708984 11.05570983886719 C 18.58289337158203 11.05570983886719 16.55570983886719 13.08289337158203 16.55570983886719 15.58357238769531 L 16.55570983886719 115.1964111328125 C 16.55570983886719 117.6970596313477 18.58289337158203 119.7242584228516 21.08358001708984 119.7242584228516 L 70.88999938964844 119.7242584228516 C 73.39066314697266 119.7242584228516 75.4178466796875 117.6970596313477 75.4178466796875 115.1964111328125 L 75.4178466796875 15.58357238769531 C 75.4178466796875 13.08289337158203 73.39066314697266 11.05570983886719 70.88999938964844 11.05570983886719 L 66.36212921142578 11.05570983886719 C 66.36212921142578 13.55637359619141 64.33494567871094 15.58357238769531 61.83427810668945 15.58357238769531 Z" stroke="none" fill="#fff"/>
              </g>
              <g id="グループ_13" data-name="グループ 13" transform="translate(5.758 60) rotate(-45)">
                <path id="パス_13" data-name="パス 13" d="M40.793,32.053A18.781,18.781,0,0,0,14.233,5.492a18.416,18.416,0,0,0-2.825,22.667.79.79,0,0,1-.109.941L1.717,38.682c-1.907,1.907-2.361,4.574-.67,6.265l.291.291C3.03,46.93,5.7,46.476,7.6,44.569l9.562-9.562a.8.8,0,0,1,.961-.129A18.416,18.416,0,0,0,40.793,32.053ZM17.7,28.585a13.877,13.877,0,1,1,19.625,0A13.893,13.893,0,0,1,17.7,28.585Z" transform="translate(0 0)" fill="#298c6d"/>
                <g id="グループ_12" data-name="グループ 12" transform="translate(16.961 7.516)">
                  <path id="パス_14" data-name="パス 14" d="M1.938,10.141A1.939,1.939,0,0,1,.154,7.447,12.216,12.216,0,0,1,16.147.965a1.938,1.938,0,1,1-1.511,3.57A8.335,8.335,0,0,0,3.724,8.958,1.939,1.939,0,0,1,1.938,10.141Z" transform="translate(0 0)" fill="#298c6d"/>
                </g>
              </g>
            </g>
          </g>
        </g>
      </g>
      <g id="mission_hedding">
        <g id="ribon" transform="translate(38 165.875)">
          <path id="パス_16" data-name="パス 16" d="M425.428,344.71a19.863,19.863,0,0,0,5.694.769c3-.125,7.1-.429,12.137-.829.393-2.685.932-5.853,1.464-8.966.139-.808.272-1.634.4-2.458-1.546.846-3.495,1.856-5.988,3.127-4.746,2.422-10.127,5.166-12.363,7.04A9.216,9.216,0,0,0,425.428,344.71Z" transform="translate(-367.046 -326.651)" fill="#296e58"/>
          <path id="パス_17" data-name="パス 17" d="M534.983,384.115c23.241,0,41.919,1.91,60.545,3.245,23.575,1.689,50.258,3.6,53.487.584-.373-5.135-.811-10.382-1.3-15.608-.41-4.327-.874-8.712-1.368-13.114-.162-1.436-.341-2.873-.511-4.31q-.391-3.319-.815-6.643a27.127,27.127,0,0,1-6.347.8c-4.366-.169-10.168-.636-17.513-1.227-19.561-1.574-49.124-3.927-86.122-3.833-37.03-.135-66.577,2.259-86.136,3.833-7.345.591-13.147,1.058-17.331,1.227a27.943,27.943,0,0,1-6.531-.811q-.418,3.316-.811,6.625c-.172,1.458-.355,2.916-.518,4.373-.492,4.388-.954,8.762-1.363,13.076-.492,5.224-.931,10.474-1.3,15.608,3.233,3.011,29.914,1.1,53.488-.584C493.155,386.025,511.743,384.115,534.983,384.115Z" transform="translate(-367.487 -325.568)" fill="#33b98e"/>
          <path id="パス_18" data-name="パス 18" d="M401.269,373.923c6.754-1.2,13.719-2.433,21.511-2.48.276-2.826.6-5.69.909-8.546.143-1.31.267-2.608.417-3.919q.782-6.86,1.683-13.751c0-.029.01-.061.013-.09.008-.061.014-.12.026-.187v0l0-.02h0c0-.01.01-.018.012-.027.273-1.444,1.321-2.892,3.251-4.5,2.638-2.207,8.026-4.956,13.238-7.615a87.248,87.248,0,0,0,9.059-4.995.469.469,0,0,0-.02-.123c-1.554-1.482-12.563,1.305-20.6,3.334-15.011,3.787-34.757,8.773-49.952,5.365q7.738,10.439,15.456,20.822l1.517,2.039-2.16,1.344q-11.657,7.238-23.263,14.513C382.6,377.228,391.707,375.617,401.269,373.923Z" transform="translate(-372.374 -327.251)" fill="#33b98e"/>
          <path id="パス_19" data-name="パス 19" d="M624.1,343.994h0v0Z" transform="translate(-347.096 -325.57)" fill="#298c6d"/>
          <path id="パス_20" data-name="パス 20" d="M620.113,345.48a18.818,18.818,0,0,0,5.53-.774,10.264,10.264,0,0,0-1.356-1.307c-2.242-1.878-7.623-4.623-12.369-7.045-2.5-1.276-4.46-2.29-6.009-3.14l.419,2.463c.533,3.114,1.073,6.287,1.466,8.974C612.841,345.051,616.974,345.355,620.113,345.48Z" transform="translate(-348.923 -326.652)" fill="#296e58"/>
          <path id="パス_21" data-name="パス 21" d="M630.628,344.926h0l0,.02v0c.011.067.019.127.026.187,0,.03.01.062.012.09q.9,6.878,1.684,13.749c.151,1.325.277,2.634.42,3.957.31,2.843.63,5.7.906,8.51,7.793.047,14.757,1.283,21.511,2.48,9.56,1.694,18.663,3.3,28.894,1.162q-11.584-7.286-23.262-14.513l-2.16-1.344,1.518-2.039q7.718-10.387,15.456-20.822c-15.191,3.408-34.939-1.576-49.952-5.365-8.024-2.029-19.011-4.8-20.62-3.3a.462.462,0,0,1,0,.086,86.8,86.8,0,0,0,9.061,5c5.212,2.659,10.6,5.407,13.242,7.619,1.924,1.6,2.972,3.05,3.245,4.493A.32.32,0,0,1,630.628,344.926Z" transform="translate(-349.007 -327.249)" fill="#33b98e"/>
        </g>
        <path id="パス_87" data-name="パス 87" d="M-26.246-1.782A1.006,1.006,0,0,0-26.6-2.6l-2.75-1.782a14.684,14.684,0,0,0,2.508-8.25c0-1.122-.594-2.046-1.694-2.046H-39.248a.929.929,0,0,0-.814,1.012.921.921,0,0,0,.814.99h9.812a.493.493,0,0,1,.506.484v.044c-.33,6.82-4.334,10.516-10.868,11.4a.924.924,0,0,0-.792.9,1,1,0,0,0,.858,1.056h.088a14.6,14.6,0,0,0,8.976-4.026l2.926,1.98a.762.762,0,0,0,.44.154A1.16,1.16,0,0,0-26.246-1.782ZM-3.1-12.562v-2.772a1.634,1.634,0,0,0-1.65-1.65H-17.864a.921.921,0,0,0-.814.99.929.929,0,0,0,.814,1.012H-5.7a.508.508,0,0,1,.528.528v1.87c0,6.094-3.564,8.272-9.46,8.338l-1.782-3.586a.907.907,0,0,0-.77-.44,1.143,1.143,0,0,0-1.122.99.586.586,0,0,0,.066.264L-14.366.946a.915.915,0,0,0,.814.462,1.131,1.131,0,0,0,1.144-.99A.7.7,0,0,0-12.474.11l-1.188-2.376C-7.018-2.6-3.1-6.028-3.1-12.562ZM20.13-2.244a.776.776,0,0,0-.066-.308l-1.738-3.41a.813.813,0,0,0-.77-.418,1.1,1.1,0,0,0-1.1.968.609.609,0,0,0,.066.286l1.694,3.454a.863.863,0,0,0,.792.44A1.1,1.1,0,0,0,20.13-2.244Zm.616-9.394a.937.937,0,0,0-.814-.99h-8.14v-4.6a.937.937,0,0,0-.99-.814.945.945,0,0,0-1.012.814v4.6h-7.9a.937.937,0,0,0-.836.99.944.944,0,0,0,.836,1.012h7.9V.924a.929.929,0,0,0,1.012.814.921.921,0,0,0,.99-.814v-11.55h8.14A.945.945,0,0,0,20.746-11.638ZM5.192-5.412A1.109,1.109,0,0,0,4.07-6.38a.862.862,0,0,0-.77.418L1.562-2.552a.776.776,0,0,0-.066.308A1.1,1.1,0,0,0,2.618-1.232a.9.9,0,0,0,.814-.44L5.126-5.126A.609.609,0,0,0,5.192-5.412Zm38.676-5.412c0-.242-.352-1.1-.792-1.1-.286,0-1.056.352-1.056.814.022.242.352,1.056.814,1.056C43.054-10.054,43.868-10.362,43.868-10.824ZM40.436-9.768c0-.242-.374-1.1-.792-1.1-.308,0-1.056.352-1.056.792,0,.352.374,1.078.792,1.078C39.622-9,40.436-9.328,40.436-9.768Zm2.442-5.962c0-.55-.264-1.078-.836-1.078H24.6c-.4,0-.682.4-.682.99s.286.968.682.968l12.8-.066c.176,0,.242.022.242.066s-.066.088-.242.132C29.59-12.562,26.092-9.35,26.092-5.764c0,2.662,1.54,5.5,5.852,6.666a.609.609,0,0,0,.2.022c.506,0,.836-.616.836-1.232a.74.74,0,0,0-.484-.748c-2.992-.99-4.312-2.684-4.312-4.8,0-3.608,4.268-6.336,14.08-9.042A.728.728,0,0,0,42.878-15.73Z" transform="translate(206.289 213.918)" fill="#fff"/>
      </g>
    </g>
  </g>
</svg>
