<?xml version="1.0" encoding="utf-8"?>
<!-- Generator: Adobe Illustrator 26.0.2, SVG Export Plug-In . SVG Version: 6.00 Build 0)  -->
<svg version="1.1" id="レイヤー_1" xmlns="http://www.w3.org/2000/svg" xmlns:xlink="http://www.w3.org/1999/xlink" x="0px"
	 y="0px" viewBox="0 0 402 416.4" style="enable-background:new 0 0 402 416.4;" xml:space="preserve">
<style type="text/css">
	.st0{fill:#FFFFFF;}
	.st1{clip-path:url(#SVGID_00000083790401985212712500000000184111447561809550_);}
	.st2{fill:#FAFAFA;}
	.st3{fill:none;stroke:#BEBEBE;stroke-dasharray:5,7;}
	.st4{fill:#333333;}
	.st5{fill:#298C6D;}
</style>
<g id="main" transform="translate(11 -164.957)">
	<g id="bg">
		<g id="mission_bg">
			<path id="mission_bg-2" class="st0" d="M84.7,184l104.4,8.7c0.7,0.1,1.3,0.1,2,0l104.4-8.7c3.1-0.3,6.1,0.7,8.5,2.6l20.1,15.7
				c0.8,0.6,1.5,1.4,2.2,2.2l15.7,20.4c1.9,2.4,2.8,5.4,2.6,8.5l-8.7,125.8c0,0.6,0,125.3,0,125.9c8.8,126.6-291.8,128.4-291.7,5.2
				c0-1.7,0.1-127.6,0.2-129.4c0-0.6,0-1.2,0-1.7l-8.7-125.8c-0.2-3,0.7-6,2.5-8.5l15.7-20.4c0.6-0.8,1.4-1.6,2.2-2.2l20.1-15.7
				C78.5,184.7,81.6,183.8,84.7,184z"/>
			<g>
				<defs>
					<path id="SVGID_1_" d="M-11,471h402l0,0v50c0,33.1-26.9,60-60,60H49c-33.1,0-60-26.9-60-60V471L-11,471z"/>
				</defs>
				<clipPath id="SVGID_00000031199180057216452050000004121473137681351851_">
					<use xlink:href="#SVGID_1_"  style="overflow:visible;"/>
				</clipPath>
				
					<g id="bg-2" transform="translate(2 120.957)" style="clip-path:url(#SVGID_00000031199180057216452050000004121473137681351851_);">
					<path id="bg-3" class="st2" d="M82.7,63l104.4,8.7c0.7,0.1,1.3,0.1,2,0L293.5,63c3.1-0.3,6.1,0.7,8.5,2.6l20.1,15.7
						c0.8,0.6,1.5,1.4,2.2,2.2l15.7,20.4c1.9,2.4,2.8,5.4,2.6,8.5l-8.7,125.8c0,0.6,0,125.3,0,125.9
						c8.8,126.6-291.8,128.4-291.7,5.2c0-1.7,0.1-127.6,0.2-129.4c0-0.6,0-1.2,0-1.7l-8.7-125.8c-0.2-3,0.7-6,2.5-8.5l15.7-20.4
						c0.6-0.8,1.4-1.6,2.2-2.2l20.1-15.7C76.5,63.7,79.6,62.8,82.7,63z"/>
				</g>
			</g>
			<line id="線_12" class="st3" x1="44.5" y1="471.5" x2="336.5" y2="471.5"/>
		</g>
	</g>
	<g id="main_" transform="translate(-16 -2.918)">
		<g id="main-2" transform="translate(0 -2.552)">
			<g id="text">
				<path id="パス_89" class="st4" d="M142.6,496.1c0-0.9-0.7-1.6-1.6-1.6c-0.9,0-1.6,0.7-1.6,1.6c0,0.9,0.7,1.6,1.6,1.6
					c0,0,0,0,0,0C141.9,497.6,142.6,496.9,142.6,496.1C142.6,496.1,142.6,496.1,142.6,496.1z M141.6,506.1c0-0.1,0-0.2,0-0.4
					c-0.4-2.2-0.7-4.4-1.4-6.9c-0.1-0.2-0.3-0.4-0.6-0.4c-0.3,0-0.7,0.3-0.7,0.5c0,0,0,0.1,0,0.1c0.6,2.3,1.1,4.7,1.4,7
					c0,0.3,0.3,0.4,0.6,0.4C141.2,506.6,141.6,506.4,141.6,506.1z M133.2,498.7v-2.6c0-0.3-0.3-0.5-0.6-0.5c-0.3,0-0.6,0.2-0.6,0.5
					v2.5c0,2.7-0.5,4.6-1.6,5.8c-0.1,0.1-0.2,0.2-0.2,0.4c0,0.4,0.3,0.7,0.7,0.7c0.1,0,0.2,0,0.3-0.1
					C132.6,503.9,133.2,501.5,133.2,498.7z M141.8,496.1c0,0.4-0.4,0.8-0.8,0.8c-0.4,0-0.8-0.4-0.8-0.8c0-0.4,0.4-0.8,0.8-0.8
					C141.5,495.3,141.8,495.6,141.8,496.1C141.8,496.1,141.8,496.1,141.8,496.1z M155.8,497.5L155.8,497.5c0-0.3-0.3-0.6-0.6-0.5
					c-0.3,0-0.6,0.2-0.7,0.5c0,4.1-3.1,7.6-7.1,8.1c-0.2,0.1-0.4,0.3-0.4,0.5c0,0.4,0.2,0.7,0.6,0.7h0.1
					C152.3,506.3,155.9,502.2,155.8,497.5z M146.6,500.8c0-0.1,0-0.1,0-0.2l-1.2-3.3c-0.1-0.2-0.3-0.3-0.5-0.3
					c-0.3,0-0.6,0.2-0.7,0.6c0,0.1,0,0.1,0,0.2l1.1,3.3c0.1,0.2,0.3,0.4,0.5,0.3C146.2,501.4,146.5,501.1,146.6,500.8L146.6,500.8z
					 M169.4,506v-7.8c0-0.6-0.5-1-1-1c0,0,0,0,0,0h-7.5c-0.3,0-0.5,0.3-0.5,0.6c0,0.3,0.2,0.6,0.5,0.6h7c0.2,0,0.3,0.1,0.3,0.3
					c0,0,0,0,0,0v6.7c0,0.2-0.1,0.3-0.3,0.3c0,0,0,0,0,0h-9.3c-0.3,0-0.5,0.3-0.5,0.6c0,0.3,0.2,0.6,0.5,0.6h9.9
					C169,507,169.4,506.6,169.4,506C169.4,506,169.4,506,169.4,506z M177.1,497.3c0-0.3-0.2-0.5-0.4-0.6l-3.2-0.6
					c-0.3,0-0.5,0.4-0.5,0.7c0,0.3,0.2,0.5,0.4,0.6l3.2,0.6C176.9,498,177.1,497.7,177.1,497.3z M183.5,502.1c0-0.4-0.3-0.6-0.6-0.7
					c-0.2,0-0.4,0.1-0.5,0.2c-1.8,2.5-4.6,4.1-7.7,4.3c-0.3,0-0.5,0.3-0.5,0.6c0,0.4,0.2,0.7,0.6,0.7c3.5-0.1,6.7-1.9,8.6-4.9
					C183.4,502.3,183.5,502.2,183.5,502.1z M198.9,499.5c0-0.2-0.2-0.7-0.5-0.7c-0.2,0-0.7,0.2-0.7,0.5c0,0.2,0.2,0.7,0.5,0.7
					C198.4,500,198.9,499.8,198.9,499.5L198.9,499.5z M196.7,500.2c0-0.2-0.2-0.7-0.5-0.7c-0.2,0-0.7,0.2-0.7,0.5
					c0,0.2,0.2,0.7,0.5,0.7C196.2,500.7,196.7,500.5,196.7,500.2L196.7,500.2z M198.3,496.4c0-0.4-0.2-0.7-0.5-0.7h-11.1
					c-0.3,0-0.4,0.3-0.4,0.6s0.2,0.6,0.4,0.6l8.1,0c0.1,0,0.2,0,0.2,0c0,0,0,0.1-0.2,0.1c-5,1.4-7.2,3.4-7.2,5.7
					c0,1.7,1,3.5,3.7,4.2c0,0,0.1,0,0.1,0c0.3,0,0.5-0.4,0.5-0.8c0-0.2-0.1-0.4-0.3-0.5c-1.9-0.6-2.7-1.7-2.7-3.1c0-2.3,2.7-4,9-5.8
					C198.1,496.9,198.3,496.7,198.3,496.4C198.3,496.4,198.3,496.4,198.3,496.4L198.3,496.4z M211.9,506v-10c0-0.6-0.5-1-1-1
					c0,0,0,0,0,0h-3.1c-0.6,0-1,0.5-1.1,1c0,0,0,0,0,0v2.1c0,0.6,0.5,1,1,1c0,0,0,0,0,0h3.1v6.4c0,0.3-0.3,0.6-0.6,0.7c0,0,0,0,0,0
					h-0.4c-0.2,0-0.4,0.2-0.4,0.5c0,0.3,0.2,0.5,0.5,0.5c0,0,0,0,0,0h0.7C211.3,507.4,211.9,506.9,211.9,506
					C211.9,506.1,211.9,506.1,211.9,506z M208.2,500.3c0-0.3-0.4-0.5-0.7-0.5c-0.3,0-0.4,0.4-0.4,0.7c0,0.3,0.4,0.5,0.6,0.5
					C208,501,208.2,500.6,208.2,500.3z M205,500.5c0-0.2-0.2-0.7-0.4-0.7s-0.7,0.2-0.7,0.5c0,0.2,0.2,0.7,0.5,0.7
					C204.6,501,205,500.8,205,500.5L205,500.5z M205.3,498.2v-2.1c0-0.6-0.5-1-1-1.1c0,0,0,0,0,0h-3.2c-0.6,0-1,0.5-1.1,1
					c0,0,0,0,0,0v9.4c0,0.3,0.3,0.5,0.6,0.5c0.3,0,0.5-0.2,0.6-0.5v-6.2h3.1C204.8,499.3,205.3,498.8,205.3,498.2
					C205.3,498.2,205.3,498.2,205.3,498.2L205.3,498.2z M209,503.5v-1.4c0-0.6-0.5-1-1-1.1c0,0,0,0,0,0h-4c-0.6,0-1,0.5-1.1,1
					c0,0,0,0,0,0v1.4c0,0.6,0.5,1,1,1c0,0,0,0,0,0h0.4c-0.1,0.8-0.7,1.6-1.5,1.8c-0.2,0-0.3,0.2-0.3,0.4c0,0.3,0.2,0.5,0.5,0.5
					c0,0,0,0,0,0c0.1,0,0.1,0,0.2,0c1.1-0.4,1.9-1.5,2-2.7h1.1v1.4c0,0.8,0.3,1.2,1.2,1.2h0.7c0.3,0,0.4-0.2,0.4-0.5
					c0-0.2-0.1-0.4-0.4-0.5c0,0,0,0,0,0H208c-0.4,0-0.5-0.1-0.5-0.5v-1.2h0.5C208.6,504.6,209,504.1,209,503.5
					C209,503.5,209,503.5,209,503.5z M210.8,496.8h-3v-0.6c0-0.2,0.1-0.3,0.3-0.3c0,0,0,0,0,0h2.3c0.2,0,0.3,0.1,0.3,0.3
					c0,0,0,0,0,0L210.8,496.8z M210.8,498.5h-2.6c-0.2,0-0.3-0.1-0.3-0.3c0,0,0,0,0,0v-0.6h3V498.5z M204.2,496.8h-3v-0.6
					c0-0.2,0.1-0.3,0.3-0.3c0,0,0,0,0,0h2.3c0.2,0,0.3,0.1,0.3,0.3c0,0,0,0,0,0L204.2,496.8z M204.2,498.1c0,0.2-0.1,0.3-0.3,0.3
					c0,0,0,0,0,0h-2.6v-0.9h3V498.1z M207.9,503.3c0,0.2-0.1,0.3-0.3,0.3c0,0,0,0,0,0h-3.2c-0.2,0-0.3-0.2-0.3-0.4v-1
					c0-0.2,0.1-0.3,0.3-0.3c0,0,0,0,0,0h3.2c0.2,0,0.3,0.1,0.3,0.3c0,0,0,0,0,0V503.3z M225.4,496.3c0-0.3-0.2-0.5-0.4-0.5h-2.6
					c0.1-0.2,0.1-0.5,0.2-0.7c0-0.3-0.3-0.5-0.5-0.5c-0.3,0-0.5,0.2-0.6,0.4c-0.1,0.7-0.4,1.4-0.8,1.9c0,0.1-0.1,0.1-0.1,0.2
					c0,0.3,0.3,0.5,0.6,0.5c0.1,0,0.3-0.1,0.4-0.2c0.2-0.2,0.4-0.5,0.5-0.8h3C225.2,496.7,225.4,496.5,225.4,496.3z M225.4,498.9
					c0-0.3-0.2-0.5-0.4-0.5h-2.5c-0.3,0-0.5,0.2-0.4,0.5c0,0.3,0.2,0.5,0.4,0.5h2.5C225.2,499.4,225.4,499.2,225.4,498.9
					L225.4,498.9z M219.9,497.7v-0.6c0-0.4-0.2-0.7-0.8-0.7h-1v-0.7h0.8c0.2,0,0.4-0.2,0.4-0.4c0-0.2-0.2-0.4-0.4-0.4h-3.8
					c-0.6,0-1,0.5-1.1,1c0,0,0,0,0,0v2.8c0,0.6,0.5,1,1,1c0,0,0,0,0,0h3.8c0.2,0,0.4-0.2,0.4-0.4c0-0.2-0.2-0.4-0.4-0.4h-0.8v-0.7h1
					c0.4,0,0.7-0.2,0.8-0.6C219.9,497.8,219.9,497.8,219.9,497.7z M225.9,504.4v-2.8c0-0.6-0.5-1-1-1.1c0,0,0,0,0,0h-9.8
					c-0.6,0-1,0.5-1.1,1c0,0,0,0,0,0v2.8c0,0.6,0.5,1,1,1.1c0,0,0,0,0,0h2.2c-0.3,0.6-1,0.9-2.5,1c-0.2,0-0.4,0.2-0.4,0.5
					c0,0.2,0.2,0.4,0.4,0.4h0c2.1-0.2,3.1-0.8,3.7-1.9h2.3v0.5c0,0.7,0.5,1.3,1.1,1.3c0.1,0,0.1,0,0.2,0h2.8c0.3,0,0.4-0.2,0.4-0.5
					c0-0.2-0.2-0.5-0.4-0.5c0,0,0,0,0,0h-2.3c-0.4,0-0.5-0.2-0.5-0.5v-0.3h2.7C225.4,505.4,225.9,505,225.9,504.4
					C225.9,504.4,225.9,504.4,225.9,504.4z M217.2,496.4h-2v-0.3c0-0.2,0.1-0.3,0.3-0.3c0,0,0,0,0,0h1.7V496.4z M218.9,497.6
					c0,0.1-0.1,0.2-0.2,0.2h-3.4v-0.7h3.4c0.1,0,0.2,0.1,0.2,0.2c0,0,0,0,0,0V497.6z M224.7,501.9h-9.4v-0.4c0-0.2,0.1-0.3,0.3-0.3
					c0,0,0,0,0,0h8.8c0.2,0,0.3,0.1,0.3,0.3c0,0,0,0,0,0V501.9z M217.2,499.2h-1.7c-0.2,0-0.3-0.1-0.3-0.3c0,0,0,0,0,0v-0.3h2V499.2
					z M224.7,503.3h-9.4v-0.7h9.4V503.3z M224.7,504.4c0,0.2-0.1,0.3-0.3,0.3c0,0,0,0,0,0h-8.8c-0.2,0-0.3-0.1-0.3-0.3c0,0,0,0,0,0
					V504h9.4V504.4z M240.2,501.3c0-3.5-2.1-5.7-5.8-5.7c-3.5-0.2-6.4,2.5-6.6,6c0,0.2,0,0.4,0,0.6c0,2.7,1.4,4.8,3.3,4.8
					c2.3,0,3.6-3.1,3.8-8.4c0-0.2-0.2-0.4-0.6-0.4c-0.4,0-0.6,0.2-0.6,0.4c-0.1,4.5-1,7.1-2.5,7.1c-1.2,0-2.1-1.4-2.1-3.5
					c-0.2-2.8,1.9-5.2,4.7-5.3c0.2,0,0.4,0,0.6,0c3.1,0,4.6,1.8,4.6,4.5c0,0.7-0.2,1.4-0.6,2c0,0.1-0.1,0.1-0.1,0.2
					c0.1,0.4,0.4,0.7,0.8,0.7c0.1,0,0.3,0,0.3-0.2C239.9,503.2,240.2,502.2,240.2,501.3z M254.3,500.7c0-0.2-0.1-0.3-0.2-0.4
					c-0.5-0.3-0.9-0.7-1.3-1.2l1.3-2.3c0.1-0.2,0.1-0.4,0.1-0.6c0-0.4-0.3-0.7-0.7-0.7c0,0,0,0,0,0h-1.4c-0.2,0-0.4,0.2-0.4,0.5
					c0,0.3,0.2,0.5,0.4,0.5h0.9c0.1,0,0.2,0.1,0.2,0.2c0,0,0,0.1,0,0.1l-1,1.6c-0.5-0.8-0.9-1.6-1.2-2.5c-0.1-0.5-0.6-0.9-1.1-0.8
					h-1.8c-0.5,0-0.9,0.3-1.1,0.7c-0.3,0.5-0.6,1-1.1,1.3c-0.1,0.1-0.2,0.2-0.2,0.4c0,0.3,0.2,0.5,0.5,0.5c0,0,0,0,0,0
					c0.5,0,1.2-1.2,1.5-1.6c0.1-0.2,0.3-0.3,0.5-0.3h1.2c0.1,0,0.2,0.1,0.2,0.2c0,0,0,0,0,0c-0.5,1.7-1.7,3.2-3.3,4.1
					c-0.1,0.1-0.2,0.2-0.2,0.4c0,0.3,0.2,0.5,0.5,0.5c0,0,0,0,0,0c0.1,0,0.1,0,0.2,0c1.7-1,2.9-2.5,3.5-4.3c0.6,1.7,1.7,3.1,3.1,4.2
					c0.1,0,0.2,0.1,0.2,0.1C254.1,501.2,254.3,501,254.3,500.7C254.3,500.7,254.3,500.7,254.3,500.7z M248.9,497.3
					c-0.1-0.3-0.3-0.5-0.5-0.5c-0.3,0.1-0.5,0.3-0.5,0.5c0.1,0.3,0.3,0.5,0.5,0.5C248.6,497.8,248.8,497.6,248.9,497.3z
					 M251.9,500.6c0-0.3-0.2-0.5-0.5-0.5h-2.3c-0.3,0-0.5,0.3-0.5,0.5c0,0.3,0.2,0.5,0.5,0.5h2.3C251.7,501.1,252,500.8,251.9,500.6
					L251.9,500.6z M247.9,498.5c-0.1-0.3-0.3-0.5-0.5-0.5c-0.2,0.1-0.4,0.3-0.5,0.5c0.1,0.3,0.3,0.5,0.5,0.5
					C247.7,499,247.8,498.8,247.9,498.5z M253.7,505.9c0-0.2-0.2-0.6-0.5-0.6c-0.2,0-0.6,0.2-0.6,0.4c0,0.2,0.2,0.7,0.5,0.7
					C253.2,506.3,253.7,506.1,253.7,505.9z M254,502.9c0-0.3-0.2-0.5-0.4-0.5h-6.7c-0.3,0-0.5,0.3-0.4,0.5c0,0.3,0.2,0.5,0.4,0.5
					h2.9v2.3c0,0.3-0.2,0.6-0.6,0.6c0,0,0,0,0,0h-0.3c-0.2,0-0.4,0.2-0.4,0.5c0,0.3,0.2,0.5,0.4,0.6h0.6c0.8,0,1.4-0.6,1.4-1.4
					c0,0,0-0.1,0-0.1v-2.5h2.7C253.9,503.4,254.1,503.2,254,502.9z M246,502.4V502c0.1-0.7-0.2-1.5-0.6-2.1
					c-0.2-0.2-0.3-0.4-0.3-0.7c0-0.1,0-0.2,0.1-0.3l0.6-2.1c0.1-0.2,0.1-0.4,0.1-0.7c0-0.5-0.4-1-0.9-1c0,0-0.1,0-0.1,0h-1.7
					c-0.6,0-1,0.5-1.1,1c0,0,0,0,0,0v9.7c0,0.3,0.3,0.5,0.5,0.4c0.3,0,0.5-0.2,0.5-0.4v-9.3c0-0.2,0.1-0.3,0.3-0.3c0,0,0,0,0,0h1.1
					c0.2,0,0.3,0.1,0.3,0.2l-0.5,2.3c0,0.2-0.1,0.3-0.1,0.5c0,0.4,0.2,0.8,0.4,1.1c0.3,0.5,0.5,1.1,0.4,1.7v0.4
					c0,1.2-0.8,1.1-0.8,1.6c0,0.3,0.2,0.5,0.5,0.5c0,0,0,0,0,0c0.1,0,0.2,0,0.3-0.1C245.6,503.9,246,503.1,246,502.4z M247.8,505.7
					c0-0.3-0.4-0.5-0.7-0.5c-0.3,0-0.4,0.4-0.4,0.7c0,0.2,0.4,0.5,0.6,0.5C247.6,506.3,247.8,505.9,247.8,505.7z M268.3,503.4
					c0-0.2-0.1-0.4-0.3-0.5c-0.5-0.2-1.1-0.4-1.6-0.6V498h1.3c0.2,0,0.4-0.2,0.4-0.6s-0.2-0.6-0.4-0.6h-1.3v-1.2
					c0-0.2-0.3-0.4-0.6-0.4s-0.6,0.2-0.6,0.4v1.2H262c-0.2,0-0.4,0.2-0.4,0.6s0.2,0.6,0.4,0.6h3.2v4c-0.8-0.2-1.6-0.3-2.4-0.3
					c-2.4,0-3.5,1.4-3.5,2.9c0,1.5,1.3,2.8,3.5,2.8c2.4,0,3.7-1.3,3.7-3.7v-0.2c0.4,0.1,0.8,0.3,1.2,0.5c0,0,0.1,0,0.2,0
					C268,504.1,268.3,503.8,268.3,503.4L268.3,503.4z M257.4,504.9v-9.3c0-0.2-0.3-0.4-0.6-0.4c-0.4,0-0.6,0.2-0.6,0.4v9.3
					c0,0.2,0.3,0.4,0.6,0.4C257.1,505.3,257.4,505.1,257.4,504.9z M265.1,503.7c0.2,1.2-0.7,2.4-1.9,2.5c-0.2,0-0.4,0-0.6,0
					c-1.3,0-2.2-0.7-2.2-1.6c0-0.9,0.8-1.8,2.2-1.8c0.9,0,1.7,0.1,2.5,0.3L265.1,503.7z M273.7,506.8c0-0.1,0-0.1,0-0.2
					c-0.6-1.4-1.4-2.8-2.3-4.1c-0.1-0.1-0.3-0.2-0.4-0.2c-0.3,0-0.6,0.2-0.7,0.6c0,0,0,0,0,0c0,0.1,0,0.1,0.1,0.2
					c0.8,1.3,1.5,2.6,2.1,4c0.1,0.2,0.3,0.3,0.5,0.3C273.3,507.5,273.6,507.2,273.7,506.8z M92.9,521.6v-3.1c0-0.6-0.5-1-1-1
					c0,0,0,0,0,0h-4.3v-1.9c0-0.3-0.3-0.5-0.6-0.5c-0.3,0-0.6,0.2-0.6,0.5v1.9H82c-0.6,0-1,0.4-1,1c0,0,0,0,0,0v2.1
					c0,0.3,0.3,0.5,0.6,0.5c0.4,0,0.6-0.2,0.6-0.5V519c0-0.2,0.1-0.3,0.3-0.3c0,0,0,0,0,0h8.7c0.2,0,0.3,0.1,0.3,0.3c0,0,0,0,0,0
					v2.5c0,3.6-1.9,4.2-4.9,4.4c-0.3,0-0.5,0.3-0.4,0.5c0,0.5,0.3,0.7,0.6,0.7h0.1C90.1,526.8,92.9,526.2,92.9,521.6z M104.3,519.2
					c0-0.3-0.3-0.5-0.6-0.5c-0.2,0-0.4,0.1-0.5,0.3c-0.5,1.1-1.7,1.8-3.4,2.1l-2.5,0.6c-0.2,0.1-0.4,0.3-0.4,0.5
					c0,0.3,0.2,0.5,0.5,0.6c0,0,0.1,0,0.1,0l2.6-0.6c0.3-0.1,0.5-0.1,0.7-0.2v5.1c0,0.3,0.3,0.5,0.6,0.5c0.3,0,0.5-0.2,0.6-0.5v-5.5
					c1.1-0.4,1.9-1.2,2.4-2.2C104.3,519.4,104.3,519.3,104.3,519.2L104.3,519.2z M114.1,517.3c0-0.3-0.2-0.5-0.4-0.6l-3.2-0.6
					c-0.3,0-0.5,0.4-0.5,0.7c0,0.3,0.2,0.5,0.4,0.6l3.2,0.6C113.9,518,114.1,517.7,114.1,517.3L114.1,517.3z M120.5,522.1
					c0-0.4-0.3-0.6-0.6-0.7c-0.2,0-0.4,0.1-0.5,0.2c-1.8,2.5-4.6,4.1-7.7,4.3c-0.3,0-0.5,0.3-0.5,0.6c0,0.4,0.2,0.7,0.6,0.7
					c3.5-0.1,6.7-1.9,8.6-4.9C120.4,522.3,120.5,522.2,120.5,522.1z M135.1,515.8c0-0.2-0.2-0.7-0.5-0.7c-0.3,0-0.7,0.2-0.7,0.5
					c0,0.2,0.1,0.7,0.4,0.7C134.7,516.3,135.1,516.1,135.1,515.8z M132.9,515.8c0-0.2-0.1-0.7-0.4-0.7c-0.3,0-0.7,0.2-0.7,0.5
					c0,0.2,0.2,0.7,0.4,0.7C132.5,516.3,132.9,516.1,132.9,515.8z M132.8,521.6c0-0.3-0.2-0.5-0.4-0.6c-1.5-0.3-3-0.8-4.3-1.5v-3.9
					c0-0.3-0.3-0.5-0.6-0.5c-0.3,0-0.6,0.2-0.6,0.5v11.6c0,0.3,0.3,0.5,0.6,0.5c0.3,0,0.6-0.2,0.6-0.5v-6.2c1.3,0.7,2.7,1.1,4.1,1.4
					h0.1C132.6,522.2,132.9,522,132.8,521.6z M148.9,521.6v-3.1c0-0.6-0.5-1-1-1c0,0,0,0,0,0h-4.3v-1.9c0-0.3-0.3-0.5-0.6-0.5
					c-0.3,0-0.6,0.2-0.6,0.5v1.9H138c-0.6,0-1,0.4-1,1c0,0,0,0,0,0v2.1c0,0.3,0.3,0.5,0.6,0.5c0.4,0,0.6-0.2,0.6-0.5V519
					c0-0.2,0.1-0.3,0.3-0.3c0,0,0,0,0,0h8.7c0.2,0,0.3,0.1,0.3,0.3c0,0,0,0,0,0v2.5c0,3.6-1.9,4.2-4.9,4.4c-0.3,0-0.5,0.3-0.4,0.5
					c0,0.5,0.3,0.7,0.6,0.7h0.1C146.1,526.8,148.9,526.2,148.9,521.6L148.9,521.6z M163.5,517.9c0-0.3-0.2-0.6-0.5-0.6h-1.8v-1.8
					c0-0.3-0.3-0.5-0.6-0.5c-0.3,0-0.6,0.2-0.6,0.5v1.8h-6.4v-1.7c0-0.3-0.3-0.5-0.6-0.5c-0.3,0-0.6,0.2-0.6,0.5v1.7H151
					c-0.3,0-0.5,0.3-0.5,0.6c0,0.4,0.2,0.6,0.5,0.6h1.2v2.4c0,0.3,0.3,0.5,0.6,0.5c0.3,0,0.6-0.2,0.6-0.5v-2.4h6.4v2.4
					c0,2.6-1.1,4.4-4,4.8c-0.2,0.1-0.4,0.3-0.4,0.5c0,0.4,0.2,0.7,0.6,0.7h0.1c3.6-0.6,5.1-3,5.1-6.2v-2.4h1.8
					C163.3,518.5,163.5,518.2,163.5,517.9L163.5,517.9z M175.1,516.7c0-0.3-0.3-0.6-0.7-0.6c-0.3,0-0.5,0.1-0.6,0.3
					c-0.8,1.8-1.8,2.5-4.7,3.2l-2.7,0.6c-0.3,0.1-0.4,0.3-0.4,0.6c0,0.4,0.3,0.7,0.5,0.7c0,0,0.1,0,0.1,0l2.7-0.6
					c0.4-0.1,0.8-0.2,1.1-0.3v6.5c0,0.3,0.3,0.6,0.6,0.5c0.3,0,0.6-0.2,0.6-0.5v-6.9c1.5-0.5,2.7-1.7,3.2-3.2
					C175.1,516.8,175.1,516.8,175.1,516.7L175.1,516.7z M190.8,515.7c0-0.2-0.2-0.7-0.4-0.7c-0.3,0-0.7,0.2-0.7,0.5
					c0,0.2,0.2,0.7,0.4,0.7C190.3,516.1,190.8,516,190.8,515.7z M188.6,515.7c0-0.2-0.2-0.7-0.4-0.7c-0.3,0-0.7,0.2-0.7,0.4
					c0,0.2,0.1,0.7,0.4,0.7C188.2,516.1,188.6,516,188.6,515.7z M189.3,525.3c0-0.2-0.1-0.4-0.2-0.5l-1.8-1.1c1-1.6,1.6-3.4,1.6-5.2
					c0-0.7-0.4-1.3-1.1-1.3H181c-0.3,0-0.5,0.3-0.5,0.6c0,0.3,0.2,0.6,0.5,0.6h6.2c0.2,0,0.3,0.1,0.3,0.3c0,0,0,0,0,0v0
					c-0.2,4.3-2.7,6.7-6.9,7.3c-0.3,0-0.5,0.3-0.5,0.6c0,0.3,0.2,0.6,0.5,0.7h0.1c2.1-0.2,4.2-1.1,5.7-2.6l1.8,1.3
					c0.1,0.1,0.2,0.1,0.3,0.1C189,526,189.3,525.7,189.3,525.3L189.3,525.3z M205.2,521.3c0-3.5-2.1-5.7-5.8-5.7
					c-3.5-0.2-6.4,2.5-6.6,6c0,0.2,0,0.4,0,0.6c0,2.7,1.4,4.8,3.3,4.8c2.3,0,3.6-3.1,3.8-8.4c0-0.2-0.2-0.4-0.6-0.4
					c-0.4,0-0.6,0.2-0.6,0.4c-0.1,4.5-1,7.1-2.5,7.1c-1.2,0-2.1-1.4-2.1-3.5c-0.2-2.8,1.9-5.2,4.7-5.3c0.2,0,0.4,0,0.6,0
					c3.1,0,4.6,1.8,4.6,4.5c0,0.7-0.2,1.4-0.6,2c0,0.1-0.1,0.1-0.1,0.2c0.1,0.4,0.4,0.7,0.8,0.7c0.1,0,0.3,0,0.3-0.2
					C204.9,523.2,205.2,522.2,205.2,521.3L205.2,521.3z M219.1,518.6c0-0.3-0.2-0.5-0.4-0.5h-0.8v-1.4h0.8c0.3,0,0.5-0.3,0.4-0.5
					c0-0.3-0.2-0.5-0.4-0.5h-0.8v-0.5c0-0.3-0.3-0.5-0.6-0.5c-0.3,0-0.6,0.2-0.6,0.5v0.5h-2.5v-0.5c0-0.3-0.3-0.5-0.6-0.5
					c-0.3,0-0.6,0.2-0.6,0.5v0.5H212c-0.3,0-0.4,0.2-0.4,0.5c0,0.3,0.2,0.5,0.4,0.5h0.9v1.4H212c-0.3,0-0.5,0.2-0.4,0.5
					c0,0.3,0.2,0.5,0.4,0.5h2.8v1.1h-2c-0.6,0-1,0.5-1,1c0,0,0,0,0,0v3.4c0,0.6,0.5,1,1,1c0,0,0,0,0,0h5.1c0.6,0,1-0.5,1.1-1
					c0,0,0,0,0,0v-3.4c0-0.6-0.5-1-1-1c0,0,0,0,0,0h-2v-1.1h2.8C218.9,519.1,219.1,518.8,219.1,518.6L219.1,518.6z M218.2,526.7
					c0-0.2-0.3-0.6-0.5-0.6c-0.2,0-0.6,0.3-0.6,0.5c0,0.2,0.3,0.6,0.5,0.6C217.7,527.2,218.2,526.9,218.2,526.7L218.2,526.7z
					 M211.2,521c-0.1-0.3-0.3-0.5-0.6-0.6c-0.3,0.1-0.5,0.3-0.6,0.6c0.1,0.3,0.3,0.5,0.6,0.6C211,521.5,211.2,521.3,211.2,521
					L211.2,521z M211.3,516.9c0-0.3-0.2-0.5-0.5-0.6h-1.2v-0.5c0-0.3-0.3-0.5-0.6-0.5c-0.3,0-0.5,0.2-0.6,0.5v0.5H207
					c-0.3,0-0.5,0.3-0.5,0.6c0,0.3,0.2,0.5,0.5,0.6h1.5v0.7c-0.1,1.7-0.7,3.3-1.8,4.7c-0.1,0.1-0.1,0.2-0.1,0.3
					c0,0.3,0.2,0.5,0.5,0.5c0,0,0,0,0,0c0.1,0,0.2,0,0.3-0.1c0.4-0.6,0.8-1.2,1.1-1.8v4.5c0,0.3,0.3,0.5,0.6,0.5
					c0.3,0,0.5-0.2,0.6-0.5v-8.8h1.2C211.2,517.5,211.4,517.2,211.3,516.9L211.3,516.9z M213.6,526.5c0-0.2-0.5-0.5-0.7-0.5
					c-0.2,0-0.5,0.4-0.5,0.6c0,0.3,0.4,0.5,0.6,0.5C213.4,527.2,213.6,526.7,213.6,526.5L213.6,526.5z M216.6,518.1h-2.5v-1.4h2.5
					L216.6,518.1z M217.9,522.5h-2.1v-1.4h1.7c0.2,0,0.3,0.1,0.3,0.3c0,0,0,0,0,0V522.5z M217.9,524.4c0,0.2-0.1,0.3-0.3,0.3
					c0,0,0,0,0,0h-1.7v-1.4h2.1V524.4z M214.8,522.5h-2v-1c0-0.2,0.1-0.3,0.3-0.3c0,0,0,0,0,0h1.7V522.5z M214.8,524.8h-1.7
					c-0.2,0-0.3-0.1-0.3-0.3c0,0,0,0,0,0v-1h2V524.8z M231.3,515.5c0-0.3-0.2-0.5-0.4-0.5h-2.8c-0.3,0-0.4,0.2-0.4,0.5
					c0,0.2,0.2,0.5,0.4,0.5h2.8C231.1,516,231.3,515.8,231.3,515.5z M232.5,519.5v-1.2c0-0.5-0.4-1-0.9-1c0,0-0.1,0-0.1,0h-4.1
					c-0.5,0-1,0.4-1,0.9c0,0,0,0.1,0,0.1v1.2c0,0.5,0.4,1,0.9,1c0,0,0.1,0,0.1,0h4.1c0.5,0,1-0.4,1-0.9
					C232.5,519.6,232.5,519.6,232.5,519.5L232.5,519.5z M232.9,526.2v-3.3c0-0.6-0.5-1-1-1c0,0,0,0,0,0h-4.7c-0.6,0-1,0.5-1,1
					c0,0,0,0,0,0v3.3c0,0.6,0.5,1,1,1c0,0,0,0,0,0h4.7C232.4,527.2,232.9,526.8,232.9,526.2C232.9,526.2,232.9,526.2,232.9,526.2
					L232.9,526.2z M225.4,525v-7.6c0-0.6-0.5-1-1-1c0,0,0,0,0,0h-0.7v-1c0-0.2-0.2-0.4-0.4-0.4c-0.2,0-0.4,0.2-0.5,0.4v1h-0.7
					c-0.6,0-1,0.5-1,1c0,0,0,0,0,0v6.2c0,0.2,0.2,0.4,0.4,0.4c0.2,0,0.4-0.2,0.4-0.4v-5.9c0-0.2,0.2-0.3,0.3-0.3h0.5v9.8
					c0,0.3,0.3,0.4,0.5,0.4c0.2,0,0.4-0.2,0.4-0.4v-9.8h0.5c0.2,0,0.3,0.1,0.3,0.3c0,0,0,0,0,0v7.3c0,0.2,0,0.5-0.1,0.7
					c-0.1,0.1-0.2,0.2-0.2,0.3c0,0.2,0.2,0.4,0.4,0.4c0.1,0,0.2,0,0.3-0.1C225.2,525.9,225.4,525.4,225.4,525L225.4,525z
					 M231.4,519.3c0,0.2-0.1,0.3-0.3,0.3c0,0,0,0,0,0h-3.2c-0.2,0-0.3-0.1-0.3-0.3c0,0,0,0,0,0v-0.7c0-0.2,0.1-0.3,0.3-0.3
					c0,0,0,0,0,0h3.2c0.2,0,0.3,0.1,0.3,0.3c0,0,0,0,0,0L231.4,519.3z M231.9,524.1h-1.9v-1.4h1.6c0.2,0,0.3,0.1,0.3,0.3
					c0,0,0,0,0,0L231.9,524.1z M231.9,526c0,0.2-0.1,0.3-0.3,0.3c0,0,0,0,0,0h-1.6V525h1.9L231.9,526z M229.1,524.1h-1.9v-1
					c0-0.2,0.1-0.3,0.3-0.3c0,0,0,0,0,0h1.6L229.1,524.1z M229.1,526.4h-1.6c-0.2,0-0.3-0.1-0.3-0.3c0,0,0,0,0,0v-1h1.9L229.1,526.4
					z M247.1,520.4c0-0.3-0.2-0.7-0.5-0.7h0c-1,0.1-2,0.3-2.9,0.6c-0.8-0.9-2-1.4-3.3-1.4c-0.9,0-1.8,0.2-2.6,0.7l0,0
					c0.4-0.8,0.7-1.6,0.9-2.5h2.3c0.2,0,0.4-0.2,0.4-0.6c0-0.3-0.2-0.6-0.4-0.6h-2c0.1-0.2,0.1-0.4,0.1-0.6c0-0.2-0.2-0.4-0.6-0.4
					c-0.7,0-0.7,0.5-0.8,1h-1.8c-0.2,0-0.4,0.3-0.4,0.6c0,0.4,0.2,0.6,0.4,0.6h1.6c-0.3,1.2-0.8,2.3-1.4,3.3c0,0.1-0.1,0.1-0.1,0.2
					c0,0.4,0.5,0.7,0.7,0.7c0.1,0,0.2,0,0.3-0.1c0.8-0.8,1.8-1.3,3-1.3c0.8,0,1.7,0.2,2.3,0.8c-2.9,0.9-5,2.3-5,4.2
					c0,1.6,1.1,2.6,3.6,2.6h0.7c0.2,0,0.4-0.2,0.4-0.6c0-0.4-0.2-0.6-0.4-0.6h-0.7c-1.6,0-2.4-0.4-2.4-1.5c0-1.4,1.8-2.5,4.4-3.2
					c0.2,0.5,0.4,1.1,0.4,1.7v0.6c0,0.2,0.2,0.3,0.6,0.3s0.6-0.2,0.6-0.4v-0.7c0-0.6-0.1-1.3-0.4-1.8c0.8-0.2,1.6-0.3,2.5-0.4
					C246.9,520.9,247.1,520.7,247.1,520.4L247.1,520.4z M261.3,517.8v-1.1c0-0.6-0.5-1-1-1c0,0,0,0,0,0h-2.2v-0.5
					c0-0.3-0.3-0.5-0.6-0.5c-0.4,0-0.6,0.2-0.6,0.5v0.5h-2.2c-0.6,0-1,0.4-1,1c0,0,0,0,0,0v1.1c0,0.3,0.3,0.5,0.6,0.5
					c0.2,0,0.4-0.2,0.5-0.4V517c0-0.2,0.1-0.3,0.3-0.3c0,0,0,0,0,0h4.7c0.2,0,0.3,0.1,0.3,0.3c0,0,0,0,0,0v0.8
					c0,0.3,0.3,0.5,0.6,0.4C261,518.2,261.3,518,261.3,517.8z M260.9,526.2v-4.3c0-0.6-0.5-1-1-1c0,0,0,0,0,0h-1.2l0.4-1.6h1.1
					c0.3,0,0.5-0.3,0.4-0.6c0-0.2-0.2-0.4-0.4-0.4h-2.9c-0.3,0-0.5,0.3-0.4,0.6c0,0.2,0.2,0.4,0.4,0.4h0.8l-0.4,1.6h0
					c-0.6,0-1,0.5-1,1c0,0,0,0,0,0v4.3c0,0.6,0.5,1,1,1c0,0,0,0,0,0h2.3C260.4,527.2,260.9,526.8,260.9,526.2
					C260.9,526.2,260.9,526.2,260.9,526.2z M256,518.8L256,518.8c0-0.3-0.2-0.5-0.5-0.5c-0.3,0-0.5,0.2-0.5,0.4
					c0,1.3-0.4,2.5-1.2,3.4c-0.1,0.1-0.1,0.2-0.1,0.3c0,0.3,0.2,0.5,0.5,0.5c0,0,0,0,0,0c0.3,0,0.4-0.2,0.6-0.4v3.7
					c0,0.2,0.2,0.4,0.5,0.4c0.3,0,0.5-0.2,0.5-0.4v-4.2c0-0.2-0.2-0.4-0.4-0.4C255.7,520.8,255.9,519.8,256,518.8z M253.2,522.2
					L253.2,522.2l-0.5-2.7c0-0.2-0.2-0.3-0.4-0.3c-0.2,0-0.4,0.2-0.4,0.4l0.2,1.2c-0.4,0.2-0.8,0.3-1.2,0.2h-0.7
					c-0.1,0-0.2-0.1-0.2-0.1c0-0.1,0-0.1,0.1-0.1l2.4-3.5c0-0.1,0.1-0.1,0.1-0.2c0-0.3-0.2-0.5-0.5-0.5c-0.1,0-0.2,0.1-0.3,0.2
					l-0.6,0.9H250c-0.1,0-0.2,0-0.2-0.1c0-0.1,0-0.1,0.1-0.1l1.1-1.6c0-0.1,0.1-0.1,0.1-0.2c0-0.3-0.2-0.5-0.5-0.5
					c-0.1,0-0.2,0.1-0.3,0.1l-1.2,1.8c-0.2,0.2-0.2,0.5-0.2,0.8c0,0.5,0.4,0.9,0.9,0.9c0,0,0,0,0,0h0.7l-1.3,1.9
					c-0.2,0.2-0.3,0.5-0.3,0.8c0,0.4,0.4,0.8,0.8,0.8c0,0,0,0,0,0h0.9v5c0,0.3,0.3,0.4,0.5,0.4c0.2,0,0.4-0.2,0.4-0.4v-5
					c0.3,0,0.7-0.1,1-0.3l0.1,0.6c0.1,0.2,0.2,0.3,0.4,0.3C253.1,522.6,253.2,522.4,253.2,522.2z M253.3,525.9
					c0-0.3-0.2-0.6-0.5-0.6c-0.2,0-0.6,0.2-0.6,0.4c0,0.2,0.2,0.7,0.4,0.7S253.3,526.1,253.3,525.9z M249.8,525
					c0-0.3-0.3-0.4-0.6-0.4c-0.3,0-0.4,0.4-0.4,0.7c0,0.3,0.4,0.4,0.7,0.4C249.7,525.6,249.8,525.2,249.8,525z M260,523.6h-2.5v-1.4
					c0-0.2,0.1-0.3,0.3-0.3c0,0,0,0,0,0h1.9c0.2,0,0.3,0.1,0.3,0.3c0,0,0,0,0,0V523.6z M260,525.9c0,0.2-0.1,0.3-0.3,0.3
					c0,0,0,0,0,0h-1.9c-0.2,0-0.3-0.1-0.3-0.3c0,0,0,0,0,0v-1.4h2.5V525.9z M275.2,521.2c0.1-2.2-1.3-4.2-3.4-4.8l0.2-0.7
					c0,0,0-0.1,0-0.1c0-0.3-0.3-0.5-0.7-0.5c-0.2,0-0.5,0.1-0.5,0.3l-0.1,0.7c-0.4-0.1-0.8-0.1-1.1-0.1c-1.3,0-2.6,0.3-3.7,1l-0.5-1
					c-0.1-0.1-0.2-0.2-0.4-0.2c-0.3,0-0.7,0.3-0.7,0.6c0,0,0,0.1,0,0.1l0.6,1.2c-1.3,1.1-2,2.7-2.1,4.4c0,2.5,1.5,4,3.3,4
					c2.6,0,4-2.6,5.5-8.6c1.5,0.5,2.5,2,2.4,3.6c0,1.5-0.9,2.9-2.3,3.4c-0.2,0.1-0.3,0.3-0.3,0.4c0,0.4,0.2,0.7,0.6,0.8
					c0,0,0.1,0,0.1,0C274,525,275.2,523.2,275.2,521.2L275.2,521.2z M270.3,517.3c-1.3,5.7-2.6,7.6-4.2,7.6c-1.3,0-2.2-1.2-2.2-2.7
					c0.1-1.3,0.6-2.5,1.6-3.4l1.2,2.6c0.1,0.1,0.2,0.2,0.3,0.2c0.3,0,0.6-0.3,0.6-0.5c0,0,0-0.1,0-0.1l-1.3-2.7
					c0.9-0.6,2.1-0.9,3.2-0.9C269.7,517.2,270,517.2,270.3,517.3z M288.9,523.1c0-2.2-1.5-3.9-5.1-3.9c-0.9,0-1.8,0.1-2.6,0.4v-0.1
					l4.4-3.1c0.1-0.1,0.2-0.2,0.2-0.3c0-0.2-0.2-0.8-0.6-0.8h-7.6c-0.2,0-0.4,0.2-0.4,0.6c0,0.4,0.2,0.6,0.4,0.6h5.7
					c0.1,0,0.2,0,0.2,0.1c0,0,0,0.1-0.1,0.1l-4.2,3.1c-0.1,0.1-0.2,0.2-0.2,0.3c0,0.3,0.3,0.7,0.6,0.7c0,0,0.1,0,0.1,0
					c1.1-0.5,2.2-0.7,3.4-0.7c3.2,0,4.5,1.3,4.5,3c0,1.5-1.3,3.2-4.5,3.2c-2.5,0-3.3-1-3.3-1.8c0-0.8,0.6-1.4,1.3-1.4
					c0.1,0,0.1,0,0.2,0c1,0,2,0.6,2.5,1.5c0.1,0.1,0.2,0.1,0.3,0.1c0.3,0,0.5-0.3,0.5-0.5c0-0.1,0-0.1,0-0.2c-0.8-1.1-2-1.8-3.3-1.9
					c-1.3-0.2-2.5,0.8-2.7,2.1c0,0.1,0,0.1,0,0.2c0,1.3,0.9,2.9,4.6,2.9C287.5,527.4,288.9,525.1,288.9,523.1L288.9,523.1z
					 M301.9,516.7c0-0.4-0.3-0.8-0.6-0.8h-6.4c-0.2,0-0.4,0.2-0.4,0.6s0.2,0.6,0.4,0.6h4.9c0.1,0,0.2,0,0.2,0.1
					c0,0.1-0.1,0.1-0.1,0.2l-0.8,0.8c-0.1,0.1-0.1,0.2-0.1,0.3c0,0.3,0.3,0.6,0.7,0.6c0.1,0,0.2,0,0.3-0.1l1.8-1.8
					C301.9,516.9,301.9,516.8,301.9,516.7L301.9,516.7z M301.9,526.5c0-0.4-0.2-0.6-0.4-0.6h-4.7c-2.7,0-4.1-0.4-4.1-2.1
					c0-0.8,0.6-1.4,0.6-1.6c0-0.3-0.4-0.5-0.8-0.5c-0.2,0-0.4,0.1-0.4,0.2c-0.4,0.6-0.6,1.3-0.6,2c0,2.2,1.5,3.2,5.4,3.2h4.7
					C301.7,527.1,301.9,526.9,301.9,526.5z M315.5,516.3c0-0.4-0.3-0.8-0.6-0.8c-1.4,0.6-2.8,1.3-4.2,2.1c-0.2,0.1-0.4,0.2-0.6,0.3
					l-0.9-2.6c-0.1-0.2-0.3-0.3-0.4-0.3c-0.4,0-0.8,0.3-0.8,0.6c0,0,0,0.1,0,0.1l1.1,2.9c-1.9,1.4-2.8,2.9-2.8,4.6
					c0,1.9,1.4,3.7,4.9,3.7h2.6c0.2,0,0.4-0.3,0.4-0.6c0-0.3-0.2-0.6-0.4-0.6h-2.5c-2.6,0-3.7-1.2-3.7-2.5c0-1.6,1.1-3.1,3.7-4.7
					c0.9-0.6,2.8-1.5,3.9-2C315.4,516.6,315.5,516.5,315.5,516.3z M331.9,519.5c0-0.2-0.2-0.7-0.5-0.7c-0.2,0-0.7,0.2-0.7,0.5
					c0,0.2,0.2,0.7,0.5,0.7C331.4,520,331.9,519.8,331.9,519.5z M329.7,520.2c0-0.2-0.2-0.7-0.5-0.7c-0.2,0-0.7,0.2-0.7,0.5
					c0,0.2,0.2,0.7,0.5,0.7C329.2,520.7,329.7,520.5,329.7,520.2z M331.3,516.4c0-0.4-0.2-0.7-0.5-0.7h-11.1c-0.3,0-0.4,0.3-0.4,0.6
					s0.2,0.6,0.4,0.6l8.1,0c0.1,0,0.2,0,0.2,0s0,0.1-0.2,0.1c-5,1.4-7.2,3.4-7.2,5.7c0,1.7,1,3.5,3.7,4.2c0,0,0.1,0,0.1,0
					c0.3,0,0.5-0.4,0.5-0.8c0-0.2-0.1-0.4-0.3-0.5c-1.9-0.6-2.7-1.7-2.7-3.1c0-2.3,2.7-4,9-5.8C331.1,516.9,331.3,516.7,331.3,516.4
					C331.3,516.4,331.3,516.4,331.3,516.4z M127.9,546v-10c0-0.6-0.5-1-1-1c0,0,0,0,0,0h-3.2c-0.6,0-1,0.5-1.1,1c0,0,0,0,0,0v2.1
					c0,0.6,0.5,1,1,1c0,0,0,0,0,0h3.1v6.4c0,0.3-0.3,0.6-0.6,0.7c0,0,0,0,0,0h-0.3c-0.2,0-0.4,0.2-0.4,0.5c0,0.3,0.2,0.5,0.5,0.5
					c0,0,0,0,0,0h0.7C127.3,547.4,127.9,546.9,127.9,546C127.9,546.1,127.9,546.1,127.9,546z M124.2,540.3c0-0.3-0.4-0.5-0.7-0.5
					c-0.3,0-0.4,0.4-0.4,0.7c0,0.3,0.4,0.5,0.6,0.5C124,541,124.2,540.6,124.2,540.3L124.2,540.3z M121,540.5c0-0.2-0.2-0.7-0.4-0.7
					s-0.7,0.2-0.7,0.5c0,0.2,0.2,0.7,0.5,0.7C120.6,541,121,540.8,121,540.5L121,540.5z M121.3,538.2v-2.1c0-0.6-0.5-1-1-1
					c0,0,0,0,0,0h-3.2c-0.6,0-1,0.5-1.1,1c0,0,0,0,0,0v9.4c0,0.3,0.3,0.5,0.6,0.5c0.3,0,0.5-0.2,0.6-0.5v-6.2h3.1
					C120.8,539.3,121.3,538.8,121.3,538.2C121.3,538.2,121.3,538.2,121.3,538.2L121.3,538.2z M125,543.5v-1.4c0-0.6-0.5-1-1-1.1
					c0,0,0,0,0,0h-4c-0.6,0-1,0.5-1.1,1c0,0,0,0,0,0v1.4c0,0.6,0.5,1,1,1c0,0,0,0,0,0h0.4c-0.1,0.8-0.7,1.6-1.5,1.8
					c-0.2,0-0.3,0.2-0.3,0.4c0,0.3,0.2,0.5,0.5,0.5c0,0,0,0,0,0c0.1,0,0.1,0,0.2,0c1.1-0.4,1.9-1.5,2-2.7h1.1v1.4
					c0,0.8,0.3,1.2,1.2,1.2h0.7c0.3,0,0.4-0.2,0.4-0.5c0-0.2-0.1-0.4-0.4-0.5c0,0,0,0,0,0H124c-0.4,0-0.5-0.1-0.5-0.5v-1.2h0.5
					C124.6,544.6,125,544.1,125,543.5C125,543.5,125,543.5,125,543.5L125,543.5z M126.8,536.8h-3v-0.6c0-0.2,0.1-0.3,0.3-0.3
					c0,0,0,0,0,0h2.3c0.2,0,0.3,0.1,0.3,0.3c0,0,0,0,0,0L126.8,536.8z M126.8,538.5h-2.6c-0.2,0-0.3-0.1-0.3-0.3c0,0,0,0,0,0v-0.6h3
					L126.8,538.5z M120.2,536.8h-3v-0.6c0-0.2,0.1-0.3,0.3-0.3c0,0,0,0,0,0h2.3c0.2,0,0.3,0.1,0.3,0.3c0,0,0,0,0,0L120.2,536.8z
					 M120.2,538.1c0,0.2-0.1,0.3-0.3,0.3c0,0,0,0,0,0h-2.6v-0.9h3L120.2,538.1z M123.9,543.3c0,0.2-0.1,0.3-0.3,0.3c0,0,0,0,0,0
					h-3.2c-0.2,0-0.3-0.2-0.3-0.4v-1c0-0.2,0.1-0.3,0.3-0.3c0,0,0,0,0,0h3.2c0.2,0,0.3,0.1,0.3,0.3c0,0,0,0,0,0V543.3z M141.4,536.3
					c0-0.3-0.2-0.5-0.4-0.5h-2.6c0.1-0.2,0.1-0.5,0.2-0.7c0-0.3-0.3-0.5-0.5-0.5c-0.3,0-0.5,0.2-0.6,0.4c-0.1,0.7-0.4,1.4-0.8,1.9
					c0,0.1-0.1,0.1-0.1,0.2c0,0.3,0.3,0.5,0.6,0.5c0.1,0,0.3-0.1,0.4-0.2c0.2-0.2,0.4-0.5,0.5-0.8h3
					C141.2,536.7,141.4,536.5,141.4,536.3L141.4,536.3z M141.4,538.9c0-0.3-0.2-0.5-0.4-0.5h-2.5c-0.3,0-0.4,0.2-0.4,0.5
					c0,0.3,0.2,0.5,0.4,0.5h2.5C141.2,539.4,141.4,539.2,141.4,538.9L141.4,538.9z M135.9,537.7v-0.6c0-0.4-0.2-0.7-0.8-0.7h-1v-0.7
					h0.8c0.2,0,0.4-0.2,0.3-0.4c0-0.2-0.2-0.4-0.3-0.4h-3.8c-0.6,0-1,0.5-1.1,1c0,0,0,0,0,0v2.8c0,0.6,0.5,1,1,1c0,0,0,0,0,0h3.8
					c0.2,0,0.4-0.2,0.3-0.4c0-0.2-0.2-0.4-0.3-0.4h-0.8v-0.7h1c0.4,0,0.7-0.2,0.8-0.6C135.9,537.8,135.9,537.8,135.9,537.7z
					 M141.9,544.4v-2.8c0-0.6-0.5-1-1-1c0,0,0,0,0,0h-9.8c-0.6,0-1,0.5-1.1,1c0,0,0,0,0,0v2.8c0,0.6,0.5,1,1,1c0,0,0,0,0,0h2.2
					c-0.3,0.6-1,0.9-2.5,1c-0.2,0-0.4,0.2-0.4,0.5c0,0.2,0.2,0.4,0.4,0.4h0c2.1-0.2,3.1-0.8,3.7-1.9h2.3v0.5c0,0.7,0.5,1.3,1.1,1.3
					c0.1,0,0.1,0,0.2,0h2.8c0.3,0,0.4-0.2,0.4-0.5c0-0.2-0.2-0.5-0.4-0.5c0,0,0,0,0,0h-2.3c-0.4,0-0.5-0.2-0.5-0.5v-0.3h2.7
					C141.4,545.4,141.9,545,141.9,544.4C141.9,544.4,141.9,544.4,141.9,544.4z M133.2,536.4h-2v-0.3c0-0.2,0.1-0.3,0.3-0.3
					c0,0,0,0,0,0h1.7V536.4z M134.9,537.6c0,0.1-0.1,0.2-0.2,0.2h-3.4v-0.7h3.4c0.1,0,0.2,0.1,0.2,0.2c0,0,0,0,0,0V537.6z
					 M140.7,541.9h-9.4v-0.4c0-0.2,0.1-0.3,0.3-0.3c0,0,0,0,0,0h8.8c0.2,0,0.3,0.1,0.3,0.3c0,0,0,0,0,0V541.9z M133.2,539.2h-1.7
					c-0.2,0-0.3-0.1-0.3-0.3c0,0,0,0,0,0v-0.4h2V539.2z M140.7,543.3h-9.4v-0.7h9.4V543.3z M140.7,544.4c0,0.2-0.1,0.3-0.3,0.3
					c0,0,0,0,0,0h-8.8c-0.2,0-0.3-0.1-0.3-0.3c0,0,0,0,0,0V544h9.4L140.7,544.4z M156.5,535.6c0-0.3-0.2-0.6-0.5-0.6h-9.1
					c-0.3,0-0.5,0.3-0.5,0.6c0,0.3,0.2,0.6,0.5,0.6h7.4v9.4c0,0.3-0.3,0.6-0.6,0.6h-1.7c-0.3,0-0.5,0.3-0.5,0.6
					c0,0.3,0.2,0.6,0.5,0.6h1.8c0.9,0,1.7-0.7,1.7-1.6c0,0,0,0,0,0v-9.5h0.4C156.3,536.2,156.5,535.9,156.5,535.6z M152.7,543.5v-4
					c0-0.6-0.5-1-1-1c0,0,0,0,0,0h-6.2c-0.6,0-1,0.4-1.1,1c0,0,0,0,0,0v4c0,0.6,0.4,1,1,1c0,0,0,0,0,0h6.2
					C152.2,544.5,152.7,544.1,152.7,543.5C152.7,543.5,152.7,543.5,152.7,543.5z M151.5,543.1c0,0.2-0.2,0.3-0.4,0.3H146
					c-0.2,0-0.3-0.2-0.4-0.3c0,0,0,0,0,0V540c0-0.2,0.1-0.3,0.3-0.3c0,0,0,0,0,0h5.1c0.2,0,0.3,0.1,0.4,0.3V543.1z M170.3,535.9
					c0-0.3-0.2-0.5-0.5-0.5c0,0,0,0,0,0c0,0-0.1,0-0.1,0l-3.5,1.1v-1.3c0-0.3-0.3-0.5-0.6-0.5c-0.3,0-0.6,0.2-0.6,0.5v3.9
					c0,0.8,0.7,1.5,1.5,1.5c0,0,0,0,0,0h2c0.3,0,0.5-0.3,0.5-0.6c0-0.3-0.2-0.5-0.5-0.6h-1.8c-0.3,0-0.5-0.2-0.5-0.5c0,0,0,0,0,0
					v-1.3l3.8-1.2C170.2,536.3,170.3,536.1,170.3,535.9L170.3,535.9z M164.1,538.2C164.1,538.1,164.1,538.1,164.1,538.2l-0.7-2.6
					c-0.1-0.2-0.3-0.4-0.5-0.4c-0.3,0-0.6,0.2-0.6,0.5c0,0,0,0.1,0,0.1l0.3,1c-1,0.3-2.1,0.4-3.2,0.4l0.6-1.8c0,0,0-0.1,0-0.1
					c0-0.3-0.3-0.6-0.6-0.5c-0.2,0-0.5,0.1-0.5,0.3l-0.7,2.1H158c-0.3,0-0.5,0.3-0.5,0.5c0,0.3,0.2,0.5,0.5,0.6
					c2.7,0,3.9-0.1,4.9-0.5l0.1,0.5c0.1,0.2,0.3,0.4,0.5,0.4C163.8,538.7,164.1,538.5,164.1,538.2z M170.3,542.5
					c0-0.3-0.2-0.6-0.5-0.6c0,0-0.1,0-0.1,0l-3.5,1.1v-1.3c0-0.3-0.3-0.5-0.6-0.5c-0.3,0-0.6,0.2-0.6,0.5v4c0,0.8,0.7,1.5,1.5,1.5
					c0,0,0,0,0,0h2c0.3,0,0.5-0.3,0.5-0.6c0-0.3-0.2-0.5-0.5-0.5h-1.8c-0.3,0-0.5-0.2-0.5-0.5v-1.5l3.8-1.2
					C170.2,542.8,170.3,542.7,170.3,542.5L170.3,542.5z M163.8,546v-5.4c0-0.6-0.5-1-1-1c0,0,0,0,0,0h-3.7c-0.6,0-1,0.5-1,1
					c0,0,0,0,0,0v5.5c0,0.3,0.3,0.5,0.6,0.5c0.3,0,0.6-0.2,0.6-0.5v-1h3.4v0.9c0,0.3-0.2,0.5-0.5,0.5H161c-0.2,0-0.4,0.2-0.4,0.5
					c0,0.2,0.2,0.5,0.4,0.5h1.4c0.7,0,1.3-0.5,1.4-1.2C163.9,546.1,163.9,546.1,163.8,546L163.8,546z M162.6,541.8h-3.4v-1
					c0-0.2,0.1-0.3,0.3-0.3c0,0,0,0,0,0h2.7c0.2,0,0.3,0.1,0.3,0.3c0,0,0,0,0,0V541.8z M162.6,544.1h-3.4v-1.4h3.4V544.1z
					 M183.8,536.6c0-0.4-0.2-0.6-0.4-0.6h-2.6c-0.2,0-0.4,0.2-0.4,0.6c0,0.3,0.2,0.6,0.4,0.6h2.5C183.7,537.2,183.8,537,183.8,536.6
					L183.8,536.6z M184.2,543c0-0.2-0.1-0.4-0.3-0.5c-0.3-0.1-0.7-0.2-1.1-0.3v-2.6c0-0.2-0.2-0.4-0.6-0.4s-0.6,0.2-0.6,0.4v2.3
					c-0.9-0.2-1.8-0.3-2.7-0.3c-2.1,0-3.5,1.2-3.5,3c0,1.6,1.4,2.8,3.4,2.8c2.7,0,4-1.5,4-3.7v-0.4c0.3,0.1,0.6,0.2,0.9,0.3
					C184,543.7,184.2,543.4,184.2,543L184.2,543z M177.8,537.1c0-0.4-0.2-0.6-0.4-0.6h-2.1c0.1-0.3,0.1-0.7,0.2-1
					c0-0.2-0.2-0.4-0.6-0.4s-0.6,0.2-0.7,0.4c0,0.2-0.1,0.6-0.2,1h-1.9c-0.2,0-0.4,0.2-0.4,0.6s0.2,0.6,0.4,0.6h1.7
					c-0.3,1.4-0.6,3-0.9,4.2c0,0,0,0.1,0,0.1c0,0.3,0.4,0.5,0.8,0.5c0.2,0,0.4-0.1,0.5-0.3c0.3-1.3,0.7-3.1,1-4.5h2.3
					C177.6,537.7,177.8,537.4,177.8,537.1L177.8,537.1z M181.6,543.6c0.1,1.3-0.8,2.5-2.1,2.7c-0.2,0-0.4,0-0.5,0
					c-1.6,0-2.3-0.8-2.3-1.7c0-1.2,1-1.9,2.4-1.9c0.9,0,1.8,0.1,2.6,0.4L181.6,543.6z M197.8,536.2c0-0.3-0.1-0.7-0.4-0.7
					c-0.3,0-0.7,0.1-0.7,0.4c0,0.3,0.1,0.7,0.4,0.7C197.4,536.7,197.8,536.5,197.8,536.2z M198.1,546.4c0-0.2-0.1-0.3-0.2-0.4
					c-1.9-1.5-3-3.8-3-6.2l0-0.5h2.2c0.3,0,0.6-0.3,0.5-0.6c0-0.3-0.2-0.6-0.5-0.6H195v-2.5c0-0.3-0.3-0.5-0.6-0.5
					c-0.3,0-0.6,0.2-0.6,0.5v2.5h-2.1c-0.3,0-0.5,0.3-0.5,0.6c0,0.3,0.2,0.6,0.5,0.6h2.1v0.1c0.1,2.5-1.1,5-3.1,6.6
					c-0.1,0.1-0.2,0.3-0.2,0.5c0,0.3,0.3,0.6,0.6,0.6c0,0,0,0,0,0c0.1,0,0.2,0,0.3-0.1c1.4-1.1,2.4-2.5,3-4.2c0.5,1.6,1.5,3,2.8,4.1
					c0.1,0.1,0.2,0.1,0.3,0.1C197.9,547,198.1,546.7,198.1,546.4C198.1,546.4,198.1,546.4,198.1,546.4z M187.5,538.7
					c0-0.2-0.4-0.5-0.6-0.5s-0.5,0.4-0.5,0.6s0.4,0.5,0.7,0.5S187.5,538.9,187.5,538.7z M189.6,546.4v-10.2c0-0.3-0.3-0.5-0.6-0.5
					c-0.3,0-0.5,0.2-0.6,0.5v6.5c-0.7,0.8-1.5,1.4-2.4,1.9c-0.2,0.1-0.3,0.3-0.3,0.5c0,0.4,0.2,0.6,0.5,0.6c0.5,0,1.9-1.2,2.3-1.6
					v2.3c0,0.3,0.3,0.5,0.6,0.5C189.3,546.9,189.6,546.7,189.6,546.4z M212.2,535.6c0-0.3-0.2-0.5-0.4-0.5l-3.7,0.7v-0.7
					c0-0.3-0.3-0.5-0.6-0.5c-0.3,0-0.6,0.2-0.6,0.5v2.6c0,0.7,0.6,1.3,1.3,1.3c0,0,0.1,0,0.1,0h2.5c0.3,0,0.5-0.2,0.5-0.5
					c0-0.3-0.2-0.5-0.5-0.5h-2.1c-0.3,0-0.5-0.2-0.5-0.5c0,0,0,0,0,0v-0.8l3.8-0.7C212.1,536,212.3,535.8,212.2,535.6z M212.2,540.4
					c0-0.2-0.2-0.5-0.4-0.5l-3.7,0.7V540c0-0.3-0.3-0.5-0.6-0.5c-0.3,0-0.6,0.2-0.6,0.5v2.6c0,0.7,0.6,1.3,1.3,1.3c0,0,0.1,0,0.1,0
					h2.5c0.3,0,0.5-0.3,0.5-0.6c0-0.2-0.2-0.4-0.5-0.5h-2.1c-0.3,0-0.5-0.2-0.5-0.5c0,0,0,0,0,0v-0.8l3.8-0.7
					C212.1,540.9,212.2,540.7,212.2,540.4z M206,537.5c0,0,0-0.1,0-0.1l-0.7-1.8c-0.1-0.2-0.3-0.3-0.5-0.3c-0.3,0-0.5,0.2-0.6,0.4
					c0,0,0,0.1,0,0.1l0.2,0.5c-1,0.3-2.1,0.4-3.1,0.4l0.6-1.3c0,0,0-0.1,0-0.1c0-0.3-0.3-0.5-0.6-0.5c-0.2,0-0.5,0.1-0.6,0.3
					l-0.7,1.7H200c-0.3,0-0.5,0.2-0.4,0.5c0,0.3,0.2,0.5,0.4,0.5c2.8,0,3.7-0.1,4.8-0.5l0.1,0.4c0.1,0.2,0.3,0.3,0.5,0.3
					C205.7,538,206,537.8,206,537.5z M211.4,546.2c0-0.3-0.1-0.6-0.4-0.6c-0.2,0-0.6,0.1-0.6,0.4c0,0.3,0.1,0.7,0.4,0.7
					C211,546.7,211.4,546.6,211.4,546.2L211.4,546.2z M208.5,545c0-0.3-0.1-0.6-0.4-0.6c-0.3,0-0.7,0.1-0.7,0.4
					c0,0.3,0.1,0.7,0.4,0.7C208.2,545.4,208.5,545.3,208.5,545z M205.8,542.7v-3.4c0-0.6-0.5-1-1-1c0,0,0,0,0,0h-3.7
					c-0.6,0-1,0.5-1.1,1c0,0,0,0,0,0v3.6c0,0.3,0.3,0.5,0.6,0.5c0.3,0,0.6-0.2,0.6-0.5v-0.6h3.3v0.4c0,0.2-0.1,0.3-0.3,0.3
					c0,0,0,0,0,0h-0.7c-0.2,0-0.4,0.2-0.3,0.4c0,0.2,0.2,0.4,0.4,0.4c0,0,0,0,0,0h1c0.6,0.1,1.2-0.3,1.2-0.9
					C205.8,542.8,205.8,542.8,205.8,542.7z M208.4,546.7c0-0.3-0.2-0.5-0.5-0.5h-3c-0.3,0-0.5-0.2-0.5-0.5c0,0,0,0,0,0v-1
					c0-0.3-0.3-0.5-0.6-0.5c-0.3,0-0.6,0.2-0.6,0.5v1.1c-0.1,0.7,0.5,1.4,1.2,1.4c0.1,0,0.2,0,0.2,0h3.3
					C208.2,547.2,208.4,547,208.4,546.7L208.4,546.7z M201.6,544.9c0-0.3-0.2-0.5-0.5-0.5c-0.2,0-0.4,0.1-0.5,0.3l-0.7,1.9
					c0,0,0,0.1,0,0.1c0,0.3,0.2,0.5,0.5,0.5c0.2,0,0.4-0.1,0.4-0.3l0.7-2C201.6,544.9,201.6,544.9,201.6,544.9L201.6,544.9z
					 M204.6,539.9h-3.3v-0.5c0-0.2,0.1-0.3,0.3-0.3c0,0,0,0,0,0h2.6c0.2,0,0.3,0.1,0.3,0.3c0,0,0,0,0,0L204.6,539.9z M204.6,541.5
					h-3.3v-0.9h3.3L204.6,541.5z M225.7,536.7c-0.1-0.5-0.5-0.8-1-0.9h-4.3c-0.2,0-0.4,0.3-0.4,0.6s0.2,0.6,0.4,0.6h3.3
					c0.1,0,0.2,0.1,0.2,0.1c0,0.1,0,0.1-0.1,0.2l-0.8,0.9c0,0.1-0.1,0.1-0.1,0.2c0,0.3,0.4,0.6,0.7,0.6c0.1,0,0.2-0.1,0.3-0.1
					l1.5-1.9C225.6,536.9,225.7,536.8,225.7,536.7L225.7,536.7z M225.8,546.4c0-0.4-0.2-0.6-0.4-0.6h-3.8c-2,0-2.8-0.6-2.8-1.8
					c0-0.8,0.5-1.4,0.5-1.6c0-0.3-0.4-0.5-0.7-0.5c-0.2,0-0.4,0.1-0.5,0.2c-0.4,0.6-0.6,1.3-0.6,2.1c0,1.5,0.7,2.8,3.9,2.8h4
					C225.6,547,225.8,546.8,225.8,546.4L225.8,546.4z M215.6,547.1v-11.6c0-0.2-0.2-0.4-0.6-0.4s-0.6,0.2-0.6,0.4v11.6
					c0,0.2,0.2,0.4,0.6,0.4C215.4,547.6,215.6,547.4,215.6,547.1L215.6,547.1z M239.8,536.6c0-0.3-0.2-0.6-0.4-0.6h-2.5
					c-0.2,0-0.4,0.2-0.4,0.6s0.2,0.6,0.4,0.6h2.5C239.7,537.2,239.8,537,239.8,536.6z M240.2,543c0-0.2-0.1-0.4-0.3-0.5
					c-0.3-0.1-0.7-0.2-1.1-0.3v-2.6c0-0.2-0.2-0.4-0.6-0.4s-0.6,0.2-0.6,0.4v2.3c-0.9-0.2-1.8-0.3-2.7-0.3c-2.1,0-3.5,1.2-3.5,3
					c0,1.6,1.4,2.8,3.4,2.8c2.7,0,4-1.5,4-3.7v-0.4c0.3,0.1,0.6,0.2,0.9,0.3C240,543.7,240.2,543.4,240.2,543z M233.8,537.1
					c0-0.4-0.2-0.6-0.4-0.6h-2.1c0.1-0.3,0.1-0.7,0.2-1.1c0-0.2-0.2-0.4-0.6-0.4s-0.6,0.2-0.7,0.4c0,0.2-0.1,0.6-0.2,1h-1.9
					c-0.2,0-0.4,0.2-0.4,0.6c0,0.4,0.2,0.6,0.4,0.6h1.7c-0.3,1.4-0.6,3-0.9,4.2c0,0,0,0.1,0,0.1c0,0.3,0.4,0.5,0.8,0.5
					c0.2,0,0.4-0.1,0.5-0.3c0.3-1.3,0.7-3.1,1-4.5h2.3C233.6,537.7,233.8,537.4,233.8,537.1L233.8,537.1z M237.6,543.6
					c0.1,1.3-0.8,2.5-2.1,2.7c-0.2,0-0.4,0-0.5,0c-1.6,0-2.3-0.8-2.3-1.7c0-1.2,1-1.9,2.4-1.9c0.9,0,1.8,0.1,2.6,0.4L237.6,543.6z
					 M253.6,541.3c0-4.4-2.2-6-5.1-6c-2.1-0.1-4,1.2-4.7,3.1v-2.9c0-0.3-0.2-0.4-0.6-0.4c-0.4,0-0.6,0.2-0.6,0.4v5.8
					c0,0.2,0.2,0.4,0.6,0.4c0.4,0,0.6-0.2,0.6-0.4v-0.5c0-0.1,0-0.2,0.1-0.3c0.4-2.2,2.4-3.8,4.6-3.8c2.4,0,3.8,1.5,3.8,4.7
					c0,2.9-1.3,4.3-3.8,4.7c-0.2,0.1-0.4,0.3-0.4,0.5c0,0.4,0.2,0.7,0.5,0.7h0.1C252,546.7,253.6,544.9,253.6,541.3L253.6,541.3z
					 M267.4,544.3c0-0.2-0.1-0.4-0.3-0.5c-0.9-0.4-1.8-0.8-2.8-1.2v-2.2h1.8c0.2,0,0.4-0.2,0.4-0.5s-0.2-0.6-0.4-0.6h-1.8v-2.2h1.8
					c0.2,0,0.4-0.2,0.4-0.5s-0.2-0.5-0.4-0.5h-1.8v-0.6c0-0.3-0.2-0.4-0.6-0.4s-0.6,0.2-0.6,0.4v0.6h-3.6c-0.2,0-0.4,0.2-0.4,0.5
					s0.2,0.5,0.4,0.5h3.6v2.2h-3.7c-0.2,0-0.4,0.2-0.4,0.5s0.2,0.5,0.4,0.5h3l0.3,0.1h0.4v1.8c-1-0.3-2-0.4-3.1-0.4
					c-2.5,0-3.7,1.3-3.7,2.7s1,2.8,3.8,2.8c3.3,0,4.2-1.7,4.2-3.5c0.7,0.3,1.5,0.7,2.3,1.1c0.1,0,0.1,0,0.2,0
					C267.1,545.1,267.4,544.7,267.4,544.3L267.4,544.3z M263.1,543.5c0,1.5-0.5,2.8-3,2.8c-1.8,0-2.5-0.9-2.5-1.8
					c0-0.9,1-1.6,2.5-1.6C261.2,542.9,262.2,543.1,263.1,543.5L263.1,543.5z M281.2,536.7c0-0.4-0.2-0.6-0.4-0.6h-1.3v-0.6
					c0-0.3-0.3-0.4-0.7-0.4s-0.7,0.2-0.7,0.4v0.6h-5.3c-0.3,0-0.4,0.2-0.4,0.6s0.2,0.6,0.4,0.6h5.3v2.3c-1-0.6-2.2-0.8-3.3-0.8
					c-2.8,0-4.3,1.8-4.3,3.5c0,1.4,1,3.4,3.9,3.4c2.1,0,4-1.4,4.6-3.5c0.2,0.5,0.4,1,0.4,1.6c0,1-0.4,1.9-1.1,2.6
					c-0.1,0.1-0.1,0.2-0.1,0.3c0,0.4,0.3,0.6,0.7,0.6c0.1,0,0.2,0,0.2-0.1c1-0.9,1.5-2.2,1.5-3.5c0-1.1-0.4-2.2-1.1-3.1v-3.4h1.3
					C281,537.3,281.2,537,281.2,536.7L281.2,536.7z M278.1,541c-0.1,1.9-1.7,3.5-3.6,3.5c-2.2,0-2.8-1.4-2.8-2.3
					c0-1,0.9-2.4,3.1-2.4C276.1,539.8,277.2,540.2,278.1,541L278.1,541z M289.1,544.6c0-1.6-1.3-2.8-2.8-2.8s-2.8,1.3-2.8,2.8
					c0,1.6,1.3,2.8,2.8,2.8S289.1,546.1,289.1,544.6C289.1,544.6,289.1,544.6,289.1,544.6z M288.2,544.5c0,1-0.8,1.9-1.9,1.9
					c-1,0-1.9-0.8-1.9-1.9c0,0,0,0,0,0c0-1,0.8-1.9,1.9-1.9C287.3,542.7,288.2,543.5,288.2,544.5
					C288.2,544.5,288.2,544.5,288.2,544.5z"/>
			</g>
			<g id="グループ_23" transform="translate(0 -0.624)">
				<path id="パス_88" class="st4" d="M129.4,411c0-0.3-0.1-0.7-0.4-0.9l-3-1.9c1.8-2.7,2.7-5.8,2.7-9c0-1.2-0.6-2.2-1.8-2.2
					h-11.7c-0.5,0.1-0.9,0.6-0.9,1.1c0,0.5,0.3,1,0.9,1.1h10.7c0.3,0,0.5,0.2,0.6,0.5c0,0,0,0,0,0v0c-0.4,7.4-4.7,11.5-11.9,12.4
					c-0.5,0.1-0.9,0.5-0.9,1c0,0.6,0.4,1.1,0.9,1.2h0.1c3.7-0.3,7.1-1.8,9.8-4.4l3.2,2.2c0.1,0.1,0.3,0.2,0.5,0.2
					C128.8,412.2,129.3,411.7,129.4,411z M154.6,399.3v-3c0-1-0.8-1.8-1.8-1.8c0,0,0,0,0,0h-14.3c-0.5,0.1-0.9,0.5-0.9,1.1
					c-0.1,0.5,0.3,1,0.9,1.1h13.3c0.3,0,0.6,0.2,0.6,0.5c0,0,0,0,0,0v2c0,6.6-3.9,9-10.3,9.1l-1.9-3.9c-0.2-0.3-0.5-0.5-0.8-0.5
					c-0.6,0-1.1,0.5-1.2,1.1c0,0.1,0,0.2,0.1,0.3l4.2,8.7c0.2,0.3,0.5,0.5,0.9,0.5c0.6,0,1.2-0.5,1.2-1.1c0-0.1,0-0.2-0.1-0.3
					l-1.3-2.6C150.3,410.1,154.6,406.4,154.6,399.3z M179.6,404.1c0.1-0.6-0.4-1.1-0.9-1.2h-17.3c-0.6,0.1-1,0.6-0.9,1.2
					c0,0.6,0.4,1,0.9,1.1h17.3C179.2,405.1,179.6,404.6,179.6,404.1z M200.6,404.7c0-0.5-0.3-0.9-0.7-1.1c-2.6-0.5-5.1-1.4-7.4-2.6
					v-6.7c-0.1-0.5-0.5-0.9-1.1-0.9c-0.5,0-1,0.3-1.1,0.9v19.8c0.1,0.5,0.5,0.9,1.1,0.9c0.5,0,1-0.3,1.1-0.9v-10.7
					c2.2,1.1,4.6,1.9,7.1,2.4h0.1C200.2,405.8,200.6,405.3,200.6,404.7L200.6,404.7z M227.8,399.8v-1.1c0-0.8-0.6-1.5-1.4-1.6
					c0,0-0.1,0-0.1,0h-17.6c-0.5,0.1-0.9,0.5-0.9,1.1c0,0.5,0.3,1,0.9,1.1h16.3c0.3,0,0.6,0.2,0.6,0.6c0,0,0,0,0,0
					c0,7.4-3.5,11.5-10.3,12.2c-0.5,0.1-0.8,0.5-0.8,0.9c0,0.7,0.4,1.2,1,1.2h0.1C223.9,413.5,227.8,408.5,227.8,399.8L227.8,399.8z
					 M249.6,401.5c0-0.5-0.3-0.9-0.8-1h-2.2v-2c-0.1-0.5-0.5-0.8-1-0.8c-0.5,0-0.9,0.3-1,0.8v2h-6.7c-0.5,0.1-0.8,0.5-0.8,1
					c0,0.5,0.3,0.9,0.8,1h6.7v0.3c-3.7,3.2-7.7,6-11.9,8.5c-0.3,0.2-0.4,0.5-0.4,0.8c0,0.5,0.3,0.9,0.8,0.9c0.2,0,0.3,0,0.4-0.1
					c3.9-2.3,7.7-4.9,11.1-7.8v7.4c0.1,0.5,0.5,0.8,1,0.8c0.5,0,0.9-0.3,1-0.8v-9.9h2.2C249.3,402.4,249.7,402,249.6,401.5
					L249.6,401.5z M264.5,397.4c0-0.5-0.3-0.9-0.7-1l-5.5-1c-0.6,0-0.9,0.7-0.9,1.2c0,0.5,0.3,0.9,0.7,1l5.4,1
					C264.1,398.5,264.5,398,264.5,397.4L264.5,397.4z M275.4,405.6c0-0.6-0.5-1.1-1.1-1.1c-0.3,0-0.6,0.1-0.8,0.4
					c-3,4.3-7.9,7-13.1,7.3c-0.5,0.1-0.8,0.5-0.8,1c-0.1,0.6,0.4,1.2,1,1.2c6-0.2,11.5-3.3,14.7-8.4
					C275.3,405.9,275.4,405.8,275.4,405.6z M301.9,401.2c0-0.3-0.4-1.2-0.9-1.2c-0.3,0-1.2,0.4-1.2,0.9c0,0.3,0.4,1.2,0.9,1.2
					C301,402,301.9,401.7,301.9,401.2L301.9,401.2z M298.1,402.3c0-0.3-0.4-1.2-0.9-1.2c-0.3,0-1.2,0.4-1.2,0.9
					c0,0.4,0.4,1.2,0.9,1.2C297.2,403.2,298.1,402.8,298.1,402.3L298.1,402.3z M300.8,395.8c0-0.6-0.3-1.2-0.9-1.2h-19
					c-0.4,0-0.7,0.4-0.7,1.1c0,0.6,0.3,1.1,0.7,1.1l14-0.1c0.2,0,0.3,0,0.3,0.1s-0.1,0.1-0.3,0.1c-8.5,2.4-12.3,5.9-12.3,9.8
					c0,2.9,1.7,6,6.4,7.3c0.1,0,0.1,0,0.2,0c0.6,0,0.9-0.7,0.9-1.3c0-0.4-0.2-0.7-0.5-0.8c-3.3-1.1-4.7-2.9-4.7-5.2
					c0-3.9,4.7-6.9,15.4-9.9C300.5,396.7,300.8,396.3,300.8,395.8C300.8,395.8,300.8,395.8,300.8,395.8L300.8,395.8z M132.2,433.1
					v-3.5c0-0.4-0.4-0.7-1-0.7c-0.6,0-1,0.3-1,0.7v3.5c0,0.4,0.4,0.7,1,0.7C131.8,433.8,132.2,433.5,132.2,433.1z M132.4,443.1
					c0-5.1-3.7-7.2-10-7.2c-0.3,0-0.6,0-1,0v-3.4h3.5c0.4,0,0.7-0.4,0.7-1c0-0.6-0.3-1.1-0.7-1.1h-3.5v-1c0-0.4-0.4-0.7-1.1-0.7
					c-0.6,0-1,0.3-1,0.7v1h-4.1c-0.4,0-0.7,0.4-0.7,1.1c0,0.6,0.3,1,0.7,1h4.1v3.6c-5,0.8-8.1,3.5-8.1,7.6c0,3,2,5.7,5.3,5.7
					c3.5,0,4.9-2.3,4.9-5.4v-6c0.2,0,0.5,0,0.7,0h0.4c5.5,0,7.6,1.8,7.6,5c0,0.9-0.3,1.8-0.8,2.6c-0.1,0.1-0.1,0.3-0.1,0.4
					c0,0.6,0.9,1.2,1.4,1.2c0.2,0,0.4-0.1,0.5-0.2C132,445.8,132.5,444.5,132.4,443.1z M119.4,443.6c0,2.5-0.8,3.6-3.1,3.6
					c-1.7-0.1-3.1-1.5-3-3.3c0-0.1,0-0.1,0-0.2c0-3,2-4.9,6.1-5.5V443.6z M155.3,431.6c0-0.4-0.4-1.1-0.8-1.1
					c-0.4,0-1.1,0.4-1.1,0.8c0,0.4,0.4,1.1,0.8,1.1C154.6,432.4,155.3,432,155.3,431.6z M155.3,437.3c0-0.5-0.7-0.8-1.1-0.8
					c-0.5,0-0.8,0.7-0.8,1.1c0,0.4,0.7,0.8,1.1,0.8C154.9,438.4,155.3,437.6,155.3,437.3L155.3,437.3z M157.1,442.3
					c0-0.5-0.3-0.9-0.8-0.9H147V440h2c1,0,1.8-0.8,1.8-1.8c0,0,0,0,0,0v-6.9c0-1-0.8-1.8-1.7-1.8c0,0,0,0-0.1,0h-2.8l0.3-0.6
					c0.1-0.1,0.1-0.2,0.1-0.4c0-0.4-0.3-0.7-0.9-0.7c-0.4,0-0.8,0.2-1,0.6l-0.6,1.1h-1.2c-1,0-1.8,0.8-1.8,1.7c0,0,0,0,0,0.1v6.9
					c0,1,0.8,1.8,1.8,1.8c0,0,0,0,0,0h2v1.3h-9.3c-0.5,0-0.8,0.5-0.8,0.9c0,0.5,0.3,0.9,0.8,0.9h7.5c-1.5,1.9-3.5,3.3-5.8,3.9
					c-0.4,0.1-0.7,0.4-0.7,0.9c0,0.5,0.4,1,0.9,1c0.1,0,0.1,0,0.2,0c3-0.8,5.5-2.5,7.3-5v5.2c0.1,0.5,0.5,0.9,1,0.9
					c0.5,0,1-0.4,1-0.9v-5.2c1.8,2.5,4.3,4.2,7.2,5c0.1,0,0.1,0,0.2,0c0.5,0,0.9-0.5,0.9-1c0-0.4-0.3-0.8-0.7-0.9
					c-2.3-0.6-4.3-2-5.8-3.9h7.4C156.7,443.2,157.1,442.8,157.1,442.3z M138.4,431.3c0-0.5-0.7-0.9-1.1-0.9c-0.4,0-0.8,0.8-0.8,1.1
					c0,0.4,0.7,0.8,1.1,0.8C138,432.4,138.4,431.7,138.4,431.3z M138.4,437.6c0-0.4-0.4-1.1-0.8-1.1c-0.4,0-1.1,0.4-1.1,0.8
					c0,0.4,0.4,1.1,0.8,1.1C137.7,438.4,138.4,438,138.4,437.6z M149,434h-6v-2.1c0-0.3,0.2-0.6,0.6-0.6c0,0,0,0,0,0h4.8
					c0.3,0,0.6,0.2,0.6,0.5c0,0,0,0,0,0V434z M149,437.7c0,0.3-0.2,0.6-0.5,0.6c0,0,0,0,0,0h-4.8c-0.3,0-0.6-0.2-0.6-0.6
					c0,0,0,0,0,0v-2.1h6V437.7z M176.6,448.6c0-0.6-0.3-1.2-0.7-1.2h-0.1c-0.6,0.1-1.1,0.1-1.7,0.1c-4.2,0-7.2-1-7.2-6.3v-11.9
					c0-0.4-0.4-0.7-1.1-0.7c-0.7,0-1.1,0.3-1.1,0.7v12.1c0,5.8,3,8.2,9.2,8.2c0.7,0,1.4-0.1,2.1-0.2
					C176.3,449.4,176.6,449.1,176.6,448.6z M204.9,440.8c0-0.3-0.2-0.7-0.5-0.8c-0.3-0.1-0.7-0.3-1-0.5c0.2-1.5,0.3-3,0.3-4.6
					c0-0.4-0.4-0.7-1.1-0.7s-1.1,0.3-1.1,0.7c0,1.2-0.1,2.5-0.2,3.7c-2.1-0.9-4.3-1.5-6.6-1.8c0.2-1.8,0.3-3.6,0.3-5.5
					c0-1-0.8-1.8-1.8-1.8c0,0,0,0,0,0h-4.9c-0.4,0-0.7,0.4-0.7,1c0,0.6,0.3,1,0.7,1h3.9c0.3,0,0.6,0.3,0.6,0.6c0,0,0,0,0,0
					c0,1.6,0,3-0.1,4.3c-0.4,0-0.7,0-1.1,0c-4.4,0-8.4,2.2-8.4,7c0,3,1.7,5.5,4.8,5.5c3,0,5.5-2.4,6.6-10.3c2.2,0.4,4.4,1,6.5,2
					c-0.3,1.7-0.7,3.3-1.4,4.8c0,0.1-0.1,0.2-0.1,0.3c0,0.6,0.7,1,1.3,1c0.3,0,0.5-0.1,0.7-0.3c0.7-1.5,1.2-3.1,1.5-4.8
					c0.3,0.2,0.6,0.3,1,0.4C204.5,442.1,204.8,441.5,204.9,440.8L204.9,440.8z M192.5,438.6c-0.8,6.2-2.6,8.3-4.6,8.3
					c-1.3,0-2.6-0.9-2.6-3.5c0-3.3,2.8-4.8,6.1-4.8C191.7,438.6,192.1,438.6,192.5,438.6L192.5,438.6z M225.1,447.9
					c0-0.2-0.1-0.5-0.3-0.6c-3.3-2.2-6.7-4.3-10.3-6.1c-1.6-0.8-2.1-1.7-2.1-2.7v-0.4c0-1.3,0.7-2.2,2.6-3.1l7.5-4.1
					c0.2-0.1,0.3-0.4,0.3-0.6c0-0.6-0.5-1.2-1-1.2c-0.1,0-0.2,0-0.3,0.1l-8,4.4c-1.8,1-3.3,2.4-3.3,4.5v0.6c0,2,0.8,3.1,3.2,4.4
					c3.5,1.9,6.9,3.9,10.2,6.2c0.1,0.1,0.2,0.1,0.4,0.1C224.6,449.1,225.1,448.6,225.1,447.9z M253.3,429.4c0-0.3-0.4-1.2-0.8-1.2
					c-0.3,0-1.2,0.4-1.2,0.9c0,0.2,0.3,1.2,0.8,1.2C252.4,430.2,253.3,429.8,253.3,429.4z M249.8,430.5c0-0.3-0.4-1.2-0.8-1.2
					c-0.3,0-1.2,0.4-1.2,0.9c0,0.2,0.3,1.2,0.8,1.2C248.9,431.3,249.8,431,249.8,430.5z M252.3,437.8c0-0.6-0.3-1.1-0.7-1.1h-8.9
					c-0.4,0-0.7,0.4-0.7,1.1c0,0.6,0.3,1.1,0.7,1.1h8.9C252,438.8,252.3,438.4,252.3,437.8z M246,431.4c0-0.6-0.3-1-0.7-1h-7.5
					l0.1-1.1c0-0.4-0.4-0.7-1-0.7c-1.3,0-1.1,0.9-1.2,1.8h-3.2c-0.4,0-0.7,0.4-0.7,1c0,0.6,0.3,1.1,0.7,1.1h2.9
					c-0.6,4.3-1.7,11.3-2.2,13.8c0,0,0,0.1,0,0.1c0,0.5,0.6,0.8,1.2,0.8c0.4,0.1,0.8-0.2,0.9-0.6c0.5-2.6,1.7-9.7,2.3-14.2h7.8
					C245.6,432.4,246,432,246,431.4z M249.6,448.3c0-0.6-0.3-1-0.7-1h-3.7c-4,0-4.7-1.1-4.7-2.2c0-1.1,0.7-1.8,0.7-2.2
					c0-0.4-0.7-0.8-1.2-0.8c-0.3,0-0.5,0.1-0.7,0.3c-0.6,0.9-0.9,1.9-1,3c0,2.1,1.6,3.9,6.6,3.9h3.9
					C249.3,449.3,249.6,448.9,249.6,448.3z M276,432.7c0-0.6-0.3-1.1-0.7-1.1h-5.6c-0.2-0.8-0.4-1.7-0.6-2.4
					c-0.1-0.4-0.5-0.7-1.2-0.7c-0.6,0-1,0.3-1,0.7c0.1,0.8,0.3,1.7,0.6,2.5h-6.1c-0.4,0-0.7,0.4-0.7,1.1s0.3,1.1,0.7,1.1h6.7
					c0.9,2.7,2.1,5.2,3.5,7.6c0.2,0.2,0.5,0.4,0.7,0.4c0.8,0,1.3-0.5,1.3-1c0-0.1,0-0.2-0.1-0.3c-1.4-2.1-2.5-4.3-3.3-6.7h5
					C275.7,433.8,276,433.4,276,432.7z M268.6,448c0-0.6-0.3-1-0.7-1h-2.4c-5.4,0-7-1.2-7-3.6c0-1.6,1.4-2.6,1.4-3.2
					c0-0.5-0.5-0.9-1.2-0.9c-0.2,0-0.5,0.1-0.6,0.2c-1,1.1-1.7,2.6-1.7,4.2c0,3.3,2.2,5.4,8.9,5.4h2.7
					C268.3,449,268.6,448.6,268.6,448z M300.2,439.6L300.2,439.6c-0.3-1.8-0.7-3.6-1.3-5.3c-0.1-0.3-0.5-0.5-0.8-0.5
					c-0.8,0-1.2,0.5-1.2,0.9c0,0.1,0,0.1,0,0.2c0.5,1.6,0.9,3.2,1.2,4.8c0,0.4,0.4,0.6,0.9,0.6C299.6,440.4,300.2,440.1,300.2,439.6
					z M290.8,444.2c-0.1-0.7-0.6-1.2-1.3-1.3c-0.2,0-0.3,0.1-0.5,0.2l-3.4,3.4c-0.1,0.1-0.3,0.2-0.5,0.2c-0.1,0-0.1,0-0.2,0
					c-1.3-0.4-2.3-2.2-2.3-4.7v-12.5c0-0.4-0.5-0.7-1.1-0.7c-0.7,0-1.1,0.3-1.1,0.7v12.7c0,3.2,1.3,6.2,4,6.9
					c0.2,0.1,0.4,0.1,0.6,0.1c0.5,0,0.9-0.2,1.2-0.5l4.2-4C290.7,444.6,290.8,444.4,290.8,444.2z"/>
				<g id="icon" transform="translate(6.434 9.148)">
					<g id="Layer_7" transform="translate(161.159 242.903)">
						<g id="パス_86" transform="translate(-7.5 -2)">
							<path class="st5" d="M70.9,128.3H21.1c-3.5,0-6.8-1.4-9.3-3.8C9.4,122,8,118.7,8,115.2V15.6c0-3.5,1.4-6.8,3.8-9.3
								c2.5-2.5,5.8-3.8,9.3-3.8h49.8c3.5,0,6.8,1.4,9.3,3.8c2.5,2.5,3.8,5.8,3.8,9.3v99.6c0,3.5-1.4,6.8-3.8,9.3
								C77.7,126.9,74.4,128.3,70.9,128.3z M21.1,10.6c-2.8,0-5,2.3-5,5v99.6c0,2.8,2.3,5,5,5h49.8c2.8,0,5-2.3,5-5V15.6
								c0-2.8-2.3-5-5-5h-4.5h-0.5v0.5c0,2.2-1.8,4-4,4H30.1c-2.2,0-4-1.8-4-4v-0.5h-0.5H21.1z"/>
							<path class="st0" d="M21.1,3c-3.4,0-6.5,1.3-8.9,3.7c-2.4,2.4-3.7,5.5-3.7,8.9v99.6c0,3.4,1.3,6.5,3.7,8.9
								c2.4,2.4,5.5,3.7,8.9,3.7h49.8c3.4,0,6.5-1.3,8.9-3.7c2.4-2.4,3.7-5.5,3.7-8.9V15.6c0-3.4-1.3-6.5-3.7-8.9
								C77.4,4.3,74.3,3,70.9,3H21.1 M61.8,14.6c1.9,0,3.5-1.6,3.5-3.5v-1h5.5c3,0,5.5,2.5,5.5,5.5v99.6c0,3-2.5,5.5-5.5,5.5H21.1
								c-3,0-5.5-2.5-5.5-5.5V15.6c0-3,2.5-5.5,5.5-5.5h5.5v1c0,1.9,1.6,3.5,3.5,3.5H61.8 M21.1,2h49.8c7.5,0,13.6,6.1,13.6,13.6
								v99.6c0,7.5-6.1,13.6-13.6,13.6H21.1c-7.5,0-13.6-6.1-13.6-13.6V15.6C7.5,8.1,13.6,2,21.1,2z M61.8,15.6H30.1
								c-2.5,0-4.5-2-4.5-4.5h-4.5c-2.5,0-4.5,2-4.5,4.5v99.6c0,2.5,2,4.5,4.5,4.5h49.8c2.5,0,4.5-2,4.5-4.5V15.6
								c0-2.5-2-4.5-4.5-4.5h-4.5C66.4,13.6,64.3,15.6,61.8,15.6z"/>
						</g>
						<g id="グループ_13" transform="translate(5.758 60) rotate(-45)">
							<path id="パス_13" class="st5" d="M40.8,32.1c7.3-7.3,7.3-19.2,0-26.6s-19.2-7.3-26.6,0c-6.1,6-7.2,15.4-2.8,22.7
								c0.2,0.3,0.1,0.7-0.1,0.9l-9.6,9.6c-1.9,1.9-2.4,4.6-0.7,6.3l0.3,0.3c1.7,1.7,4.4,1.2,6.3-0.7l9.6-9.6c0.3-0.3,0.6-0.3,1-0.1
								C25.4,39.3,34.8,38.1,40.8,32.1z M17.7,28.6c-5.4-5.4-5.4-14.2,0-19.6s14.2-5.4,19.6,0s5.4,14.2,0,19.6c0,0,0,0,0,0
								C31.9,34,23.1,34,17.7,28.6z"/>
							<g id="グループ_12" transform="translate(16.961 7.516)">
								<path id="パス_14" class="st5" d="M1.9,10.1C0.9,10.1,0,9.3,0,8.2c0-0.3,0.1-0.5,0.2-0.8c2.6-6.2,9.8-9.1,16-6.5
									c1,0.4,1.4,1.6,1,2.5c-0.4,1-1.6,1.4-2.5,1C10.4,2.7,5.5,4.7,3.7,9C3.4,9.7,2.7,10.1,1.9,10.1z"/>
							</g>
						</g>
					</g>
				</g>
			</g>
		</g>
		<g id="mission_hedding" transform="translate(0 2)">
			<g id="ribon" transform="translate(38 165.875)">
				<path id="パス_16" class="st5" d="M58.4,18.1c1.9,0.5,3.8,0.8,5.7,0.8c3-0.1,7.1-0.4,12.1-0.8c0.4-2.7,0.9-5.9,1.5-9
					c0.1-0.8,0.3-1.6,0.4-2.5c-1.5,0.8-3.5,1.9-6,3.1c-4.7,2.4-10.1,5.2-12.4,7C59.2,17.1,58.8,17.6,58.4,18.1z"/>
				<path id="パス_17" class="st5" d="M167.5,58.5c23.2,0,41.9,1.9,60.5,3.2c23.6,1.7,50.3,3.6,53.5,0.6
					c-0.4-5.1-0.8-10.4-1.3-15.6c-0.4-4.3-0.9-8.7-1.4-13.1c-0.2-1.4-0.3-2.9-0.5-4.3c-0.3-2.2-0.5-4.4-0.8-6.6
					c-2.1,0.5-4.2,0.8-6.3,0.8c-4.4-0.2-10.2-0.6-17.5-1.2c-19.6-1.6-49.1-3.9-86.1-3.8c-37-0.1-66.6,2.3-86.1,3.8
					c-7.3,0.6-13.1,1.1-17.3,1.2c-2.2,0-4.4-0.3-6.5-0.8c-0.3,2.2-0.5,4.4-0.8,6.6c-0.2,1.5-0.4,2.9-0.5,4.4
					c-0.5,4.4-1,8.8-1.4,13.1c-0.5,5.2-0.9,10.5-1.3,15.6c3.2,3,29.9,1.1,53.5-0.6C125.7,60.5,144.3,58.5,167.5,58.5z"/>
				<path id="パス_18" class="st5" d="M28.9,46.7c6.8-1.2,13.7-2.4,21.5-2.5c0.3-2.8,0.6-5.7,0.9-8.5c0.1-1.3,0.3-2.6,0.4-3.9
					c0.5-4.6,1.1-9.2,1.7-13.8c0,0,0-0.1,0-0.1c0-0.1,0-0.1,0-0.2l0,0v0l0,0c0,0,0,0,0,0c0.3-1.4,1.3-2.9,3.3-4.5
					c2.6-2.2,8-5,13.2-7.6c3.1-1.5,6.1-3.2,9.1-5c0,0,0-0.1,0-0.1c-1.6-1.5-12.6,1.3-20.6,3.3c-15,3.8-34.8,8.8-50,5.4
					c5.2,7,10.3,13.9,15.5,20.8l1.5,2l-2.2,1.3C15.5,38.1,7.7,43,0,47.8C10.2,50,19.3,48.4,28.9,46.7z"/>
				<path id="パス_19" class="st5" d="M277,18.4L277,18.4L277,18.4z"/>
				<path id="パス_20" class="st5" d="M271.2,18.8c1.9,0,3.7-0.2,5.5-0.8c-0.4-0.5-0.9-0.9-1.4-1.3c-2.2-1.9-7.6-4.6-12.4-7
					c-2.5-1.3-4.5-2.3-6-3.1l0.4,2.5c0.5,3.1,1.1,6.3,1.5,9C263.9,18.4,268.1,18.7,271.2,18.8z"/>
				<path id="パス_21" class="st5" d="M281.6,17.7L281.6,17.7L281.6,17.7L281.6,17.7c0,0.1,0,0.1,0,0.2c0,0,0,0.1,0,0.1
					c0.6,4.6,1.2,9.2,1.7,13.7c0.2,1.3,0.3,2.6,0.4,4c0.3,2.8,0.6,5.7,0.9,8.5c7.8,0,14.8,1.3,21.5,2.5c9.6,1.7,18.7,3.3,28.9,1.2
					c-7.7-4.9-15.5-9.7-23.3-14.5l-2.2-1.3l1.5-2c5.1-6.9,10.3-13.9,15.5-20.8c-15.2,3.4-34.9-1.6-50-5.4c-8-2-19-4.8-20.6-3.3
					c0,0,0,0.1,0,0.1c2.9,1.8,5.9,3.5,9.1,5c5.2,2.7,10.6,5.4,13.2,7.6C280.3,14.8,281.3,16.2,281.6,17.7
					C281.6,17.7,281.6,17.7,281.6,17.7z"/>
			</g>
			<path id="パス_87" class="st0" d="M180,212.1c0-0.3-0.1-0.6-0.4-0.8l-2.8-1.8c1.6-2.4,2.5-5.3,2.5-8.2c0-1.1-0.6-2-1.7-2H167
				c-0.5,0.1-0.9,0.5-0.8,1c0,0.5,0.3,0.9,0.8,1h9.8c0.3,0,0.5,0.2,0.5,0.5c0,0,0,0,0,0v0c-0.3,6.8-4.3,10.5-10.9,11.4
				c-0.4,0.1-0.8,0.4-0.8,0.9c0,0.5,0.3,1,0.9,1.1h0.1c3.4-0.3,6.5-1.7,9-4l2.9,2c0.1,0.1,0.3,0.1,0.4,0.2
				C179.6,213.2,180,212.7,180,212.1z M203.2,201.4v-2.8c0-0.9-0.7-1.6-1.6-1.6c0,0,0,0,0,0h-13.1c-0.5,0.1-0.9,0.5-0.8,1
				c0,0.5,0.3,1,0.8,1h12.2c0.3,0,0.5,0.2,0.5,0.5c0,0,0,0,0,0v1.9c0,6.1-3.6,8.3-9.5,8.3l-1.8-3.6c-0.2-0.3-0.5-0.4-0.8-0.4
				c-0.6,0-1,0.4-1.1,1c0,0.1,0,0.2,0.1,0.3l3.9,8c0.2,0.3,0.5,0.5,0.8,0.5c0.6,0,1.1-0.4,1.1-1c0-0.1,0-0.2-0.1-0.3l-1.2-2.4
				C199.3,211.3,203.2,207.9,203.2,201.4z M226.4,211.7c0-0.1,0-0.2-0.1-0.3l-1.7-3.4c-0.2-0.3-0.5-0.4-0.8-0.4c-0.6,0-1,0.4-1.1,1
				c0,0.1,0,0.2,0.1,0.3l1.7,3.5c0.2,0.3,0.5,0.5,0.8,0.4C225.9,212.7,226.4,212.3,226.4,211.7z M227,202.3c0-0.5-0.3-0.9-0.8-1
				h-8.1v-4.6c-0.1-0.5-0.5-0.8-1-0.8c-0.5,0-0.9,0.3-1,0.8v4.6h-7.9c-0.5,0.1-0.9,0.5-0.8,1c0,0.5,0.3,1,0.8,1h7.9v11.6
				c0.1,0.5,0.5,0.9,1,0.8c0.5,0,0.9-0.3,1-0.8v-11.6h8.1C226.7,203.2,227.1,202.8,227,202.3z M211.5,208.5c-0.1-0.6-0.6-1-1.1-1
				c-0.3,0-0.6,0.1-0.8,0.4l-1.7,3.4c0,0.1-0.1,0.2-0.1,0.3c0,0.6,0.5,1,1.1,1c0.3,0,0.6-0.2,0.8-0.4l1.7-3.5
				C211.5,208.7,211.5,208.6,211.5,208.5z M250.2,203.1c0-0.2-0.4-1.1-0.8-1.1c-0.3,0-1.1,0.4-1.1,0.8c0,0.2,0.4,1.1,0.8,1.1
				C249.3,203.9,250.2,203.6,250.2,203.1z M246.7,204.1c0-0.2-0.4-1.1-0.8-1.1c-0.3,0-1.1,0.4-1.1,0.8c0,0.4,0.4,1.1,0.8,1.1
				C245.9,204.9,246.7,204.6,246.7,204.1z M249.2,198.2c0-0.6-0.3-1.1-0.8-1.1h-17.4c-0.4,0-0.7,0.4-0.7,1s0.3,1,0.7,1l12.8-0.1
				c0.2,0,0.2,0,0.2,0.1c0,0-0.1,0.1-0.2,0.1c-7.8,2.2-11.3,5.4-11.3,9c0,2.7,1.5,5.5,5.9,6.7c0.1,0,0.1,0,0.2,0
				c0.5,0,0.8-0.6,0.8-1.2c0-0.3-0.2-0.6-0.5-0.7c-3-1-4.3-2.7-4.3-4.8c0-3.6,4.3-6.3,14.1-9C249,199,249.2,198.6,249.2,198.2
				C249.2,198.2,249.2,198.2,249.2,198.2z"/>
		</g>
	</g>
</g>
</svg>
