<?xml version="1.0" encoding="utf-8"?>
<!-- Generator: Adobe Illustrator 26.0.2, SVG Export Plug-In . SVG Version: 6.00 Build 0)  -->
<svg version="1.1" id="レイヤー_1" xmlns="http://www.w3.org/2000/svg" xmlns:xlink="http://www.w3.org/1999/xlink" x="0px"
	 y="0px" viewBox="0 0 402 416.4" style="enable-background:new 0 0 402 416.4;" xml:space="preserve">
<style type="text/css">
	.st0{fill:#FFFFFF;}
	.st1{clip-path:url(#SVGID_00000181048071690569596540000003125455801057342907_);}
	.st2{fill:#FAFAFA;}
	.st3{fill:none;stroke:#BEBEBE;stroke-dasharray:5,7;}
	.st4{fill:#333333;}
	.st5{fill:#298C6D;}
</style>
<g id="main" transform="translate(11 -164.957)">
	<g id="bg">
		<g id="mission_bg">
			<path id="mission_bg-2" class="st0" d="M84.7,184l104.4,8.7c0.7,0.1,1.3,0.1,2,0l104.4-8.7c3.1-0.3,6.1,0.7,8.5,2.6l20.1,15.7
				c0.8,0.6,1.5,1.4,2.2,2.2l15.7,20.4c1.9,2.4,2.8,5.4,2.6,8.5l-8.7,125.8c0,0.6,0,125.3,0,125.9c8.8,126.6-291.8,128.4-291.7,5.2
				c0-1.7,0.1-127.6,0.2-129.4c0-0.6,0-1.2,0-1.7l-8.7-125.8c-0.2-3,0.7-6,2.5-8.5l15.7-20.4c0.6-0.8,1.4-1.6,2.2-2.2l20.1-15.7
				C78.5,184.7,81.6,183.8,84.7,184z"/>
			<g>
				<defs>
					<path id="SVGID_1_" d="M-11,471h402l0,0v50c0,33.1-26.9,60-60,60H49c-33.1,0-60-26.9-60-60V471L-11,471z"/>
				</defs>
				<clipPath id="SVGID_00000167385610433048191420000014780734493090729145_">
					<use xlink:href="#SVGID_1_"  style="overflow:visible;"/>
				</clipPath>
				
					<g id="bg-2" transform="translate(2 120.957)" style="clip-path:url(#SVGID_00000167385610433048191420000014780734493090729145_);">
					<path id="bg-3" class="st2" d="M82.7,63l104.4,8.7c0.7,0.1,1.3,0.1,2,0L293.5,63c3.1-0.3,6.1,0.7,8.5,2.6l20.1,15.7
						c0.8,0.6,1.5,1.4,2.2,2.2l15.7,20.4c1.9,2.4,2.8,5.4,2.6,8.5l-8.7,125.8c0,0.6,0,125.3,0,125.9
						c8.8,126.6-291.8,128.4-291.7,5.2c0-1.7,0.1-127.6,0.2-129.4c0-0.6,0-1.2,0-1.7l-8.7-125.8c-0.2-3,0.7-6,2.5-8.5l15.7-20.4
						c0.6-0.8,1.4-1.6,2.2-2.2l20.1-15.7C76.5,63.7,79.6,62.8,82.7,63z"/>
				</g>
			</g>
			<line id="線_12" class="st3" x1="44.5" y1="471.5" x2="336.5" y2="471.5"/>
		</g>
	</g>
	<g id="main_" transform="translate(-16 -2.918)">
		<g id="main-2" transform="translate(0 -2.552)">
			<g id="text">
				<path id="パス_89" class="st4" d="M161.3,508.3c0-0.2-0.1-0.4-0.2-0.5l-1.8-1.1c1-1.6,1.6-3.4,1.6-5.2c0-0.7-0.4-1.3-1.1-1.3
					H153c-0.3,0-0.5,0.3-0.5,0.6c0,0.3,0.2,0.6,0.5,0.6h6.2c0.2,0,0.3,0.1,0.3,0.3c0,0,0,0,0,0v0c-0.2,4.3-2.8,6.7-6.9,7.3
					c-0.3,0-0.5,0.3-0.5,0.6c0,0.3,0.2,0.6,0.5,0.7h0.1c2.1-0.2,4.2-1.1,5.7-2.6l1.9,1.3c0.1,0.1,0.2,0.1,0.3,0.1
					C161,509,161.3,508.7,161.3,508.3z M176,501.4v-1.8c0-0.6-0.5-1-1-1c0,0,0,0,0,0h-8.3c-0.3,0-0.5,0.3-0.5,0.6
					c0,0.3,0.2,0.6,0.5,0.6h7.7c0.2,0,0.3,0.1,0.3,0.3c0,0,0,0,0,0v1.2c0,3.9-2.3,5.3-6,5.3l-1.1-2.3c-0.1-0.2-0.3-0.3-0.5-0.3
					c-0.4,0-0.7,0.3-0.7,0.6c0,0.1,0,0.1,0,0.2l2.5,5.1c0.1,0.2,0.3,0.3,0.5,0.3c0.4,0,0.7-0.3,0.7-0.6c0-0.1,0-0.1,0-0.2l-0.8-1.5
					C173.5,507.8,176,505.6,176,501.4L176,501.4z M190.6,504.2c0-0.3-0.2-0.6-0.5-0.7h-10.1c-0.3,0-0.6,0.3-0.5,0.7
					c0,0.3,0.2,0.6,0.5,0.6H190C190.4,504.8,190.6,504.6,190.6,504.2L190.6,504.2z M202.8,504.6c0-0.3-0.2-0.5-0.4-0.6
					c-1.5-0.3-3-0.8-4.3-1.5v-3.9c0-0.3-0.3-0.5-0.6-0.5c-0.3,0-0.6,0.2-0.6,0.5v11.5c0,0.3,0.3,0.5,0.6,0.5c0.3,0,0.6-0.2,0.6-0.5
					v-6.2c1.3,0.7,2.7,1.1,4.1,1.4h0.1C202.6,505.2,202.9,505,202.8,504.6L202.8,504.6z M218.7,501.8v-0.6c0-0.5-0.3-0.9-0.8-0.9
					c0,0-0.1,0-0.1,0h-10.2c-0.3,0-0.5,0.3-0.5,0.6c0,0.3,0.2,0.6,0.5,0.6h9.5c0.2,0,0.3,0.1,0.3,0.3c0,0,0,0,0,0c0,4.3-2,6.7-6,7.1
					c-0.3,0-0.5,0.3-0.4,0.5c0,0.4,0.2,0.7,0.6,0.7h0C216.4,509.8,218.7,506.8,218.7,501.8L218.7,501.8z M231.5,502.8
					c0-0.3-0.2-0.5-0.5-0.6h-1.3V501c0-0.3-0.3-0.5-0.6-0.5c-0.3,0-0.5,0.2-0.6,0.5v1.2h-3.9c-0.3,0-0.5,0.3-0.5,0.6
					c0,0.3,0.2,0.5,0.5,0.6h3.9v0.2c-2.2,1.9-4.5,3.5-7,4.9c-0.2,0.1-0.3,0.3-0.3,0.4c0,0.3,0.2,0.5,0.5,0.5c0.1,0,0.2,0,0.3-0.1
					c2.3-1.3,4.5-2.8,6.5-4.6v4.3c0,0.3,0.3,0.5,0.6,0.5c0.3,0,0.5-0.2,0.6-0.5v-5.8h1.3C231.3,503.3,231.5,503,231.5,502.8z
					 M240.1,500.3c0-0.3-0.2-0.5-0.4-0.6l-3.2-0.6c-0.3,0-0.5,0.4-0.5,0.7c0,0.3,0.2,0.5,0.4,0.6l3.2,0.6
					C239.9,501,240.1,500.7,240.1,500.3z M246.5,505.1c0-0.4-0.3-0.6-0.6-0.7c-0.2,0-0.4,0.1-0.5,0.2c-1.8,2.5-4.6,4.1-7.7,4.3
					c-0.3,0-0.5,0.3-0.5,0.6c0,0.4,0.2,0.7,0.6,0.7c3.5-0.1,6.7-1.9,8.6-4.9C246.4,505.3,246.5,505.2,246.5,505.1z M261.3,506.4
					c0-0.2-0.1-0.4-0.3-0.5c-0.5-0.2-1.1-0.4-1.6-0.6V501h1.3c0.2,0,0.4-0.2,0.4-0.6s-0.2-0.6-0.4-0.6h-1.3v-1.2
					c0-0.2-0.3-0.4-0.6-0.4s-0.6,0.2-0.6,0.4v1.2H255c-0.2,0-0.4,0.2-0.4,0.6s0.2,0.6,0.4,0.6h3.2v4c-0.8-0.2-1.6-0.3-2.4-0.3
					c-2.4,0-3.5,1.4-3.5,2.9c0,1.5,1.3,2.8,3.5,2.8c2.4,0,3.7-1.3,3.7-3.7v-0.2c0.4,0.1,0.8,0.3,1.2,0.5c0,0,0.1,0,0.2,0
					C261,507.1,261.3,506.8,261.3,506.4L261.3,506.4z M250.4,507.9v-9.3c0-0.2-0.3-0.4-0.6-0.4c-0.4,0-0.6,0.2-0.6,0.4v9.3
					c0,0.2,0.3,0.4,0.6,0.4C250.1,508.3,250.4,508.1,250.4,507.9z M258.1,506.7c0.2,1.2-0.7,2.4-1.9,2.5c-0.2,0-0.4,0-0.6,0
					c-1.3,0-2.2-0.7-2.2-1.6c0-0.9,0.8-1.8,2.2-1.8c0.9,0,1.7,0.1,2.5,0.3L258.1,506.7z M120.7,518.5c0-0.3-0.3-0.4-0.6-0.4
					c-0.4,0-0.4,0.4-0.4,0.7c0,0.3,0.3,0.4,0.6,0.4S120.7,518.9,120.7,518.5z M118.1,518.6c0-0.2-0.2-0.6-0.4-0.6s-0.7,0.1-0.7,0.4
					c0,0.3,0.1,0.7,0.4,0.7C117.7,519.1,118.1,519,118.1,518.6z M115.9,518.5c0-0.3-0.2-0.5-0.5-0.5c-0.2,0-0.4,0.1-0.5,0.3
					c-0.3,1-0.8,1.9-1.6,2.6c-0.1,0.1-0.2,0.2-0.2,0.4c0,0.3,0.2,0.5,0.5,0.5c0,0,0,0,0,0c0.1,0,0.2,0,0.3-0.1
					C114.8,520.9,115.5,519.8,115.9,518.5C115.9,518.6,115.9,518.5,115.9,518.5L115.9,518.5z M121.5,524.5c0-0.3-0.2-0.5-0.5-0.6
					h-1.5v-3h1.5c0.3,0,0.5-0.3,0.5-0.6c0-0.3-0.2-0.6-0.5-0.6h-4.4c-0.3,0-0.5,0.3-0.5,0.6c0,0.3,0.2,0.6,0.5,0.6h1.8v8
					c-0.5-0.1-0.9-0.4-1.2-0.8c0.3-1.1,0.4-2.3,0.4-3.5c0-0.2-0.2-0.4-0.4-0.4c-0.2,0-0.4,0.1-0.4,0.4c0,0,0,0,0,0
					c-0.1,2.4-0.4,3.5-1,4.4c0,0.1-0.1,0.1-0.1,0.2c0,0.3,0.2,0.5,0.5,0.5c0.3,0,0.5-0.5,0.7-0.7c0.5,0.7,1.3,1.1,2.1,1.1h1.6
					c0.3,0,0.5-0.3,0.5-0.6c0-0.3-0.2-0.6-0.5-0.6h-1v-3.9h1.5C121.3,525.1,121.5,524.8,121.5,524.5L121.5,524.5z M116.1,522
					L116.1,522c0-0.3-0.2-0.5-0.5-0.5c-0.2,0-0.4,0.1-0.5,0.4c-0.2,1.3-0.9,2.4-1.8,3.3c-0.1,0.1-0.2,0.3-0.2,0.5
					c0,0.3,0.2,0.5,0.5,0.5c0,0,0,0,0,0c0.3,0,0.5-0.3,0.7-0.5v3.7c0,0.2,0.2,0.4,0.5,0.4c0.2,0,0.4-0.2,0.5-0.4V525
					c0-0.1-0.1-0.3-0.2-0.4C115.5,523.8,115.9,522.9,116.1,522L116.1,522z M113,525.2L113,525.2l-0.5-2.7c0-0.2-0.2-0.3-0.4-0.3
					c-0.2,0-0.4,0.2-0.4,0.4l0.2,1.3c-0.3,0.1-0.7,0.2-1.1,0.2h-0.8c-0.1,0-0.2-0.1-0.2-0.1c0-0.1,0-0.1,0.1-0.1l2.4-3.5
					c0-0.1,0.1-0.1,0.1-0.2c0-0.3-0.2-0.5-0.5-0.5c-0.1,0-0.2,0.1-0.3,0.2l-0.6,0.9H110c-0.1,0-0.2-0.1-0.2-0.1c0-0.1,0-0.1,0.1-0.1
					l1.1-1.6c0-0.1,0.1-0.1,0.1-0.2c0-0.3-0.2-0.5-0.5-0.5c-0.1,0-0.2,0.1-0.3,0.1l-1.2,1.8c-0.2,0.2-0.3,0.5-0.3,0.8
					c0,0.5,0.4,0.9,0.9,0.9c0,0,0,0,0.1,0h0.7l-1.3,1.9c-0.2,0.2-0.3,0.5-0.3,0.8c0,0.4,0.3,0.8,0.7,0.8c0,0,0.1,0,0.1,0h0.8v5
					c0,0.2,0.2,0.4,0.5,0.4c0.2,0,0.4-0.2,0.5-0.4v-5c0.3,0,0.6-0.1,0.8-0.2l0.1,0.5c0,0.2,0.2,0.3,0.3,0.3
					C112.8,525.6,113,525.4,113,525.2L113,525.2z M113.1,528.9c0-0.3-0.2-0.6-0.4-0.6c-0.2,0-0.7,0.2-0.7,0.4c0,0.2,0.2,0.7,0.5,0.7
					C112.7,529.3,113.1,529.2,113.1,528.9z M109.8,528c0-0.3-0.4-0.5-0.6-0.5s-0.5,0.4-0.5,0.7c0,0.2,0.4,0.5,0.6,0.5
					C109.6,528.6,109.8,528.2,109.8,528z M134.9,528.8V520c0-0.6-0.5-1-1-1.1c0,0,0,0,0,0h-5.1l0.3-0.6c0,0,0-0.1,0-0.1
					c0-0.3-0.3-0.5-0.6-0.5c-0.3,0-0.5,0.1-0.6,0.3l-0.4,0.9h-3.3c-0.6,0-1,0.5-1.1,1c0,0,0,0,0,0v8.1c0,0.3,0.3,0.5,0.6,0.5
					c0.3,0,0.6-0.2,0.6-0.5v-7.6c0-0.2,0.1-0.3,0.3-0.3c0,0,0,0,0,0h8.7c0.2,0,0.3,0.1,0.3,0.3c0,0,0,0,0,0v8.1
					c0,0.3-0.2,0.6-0.5,0.6c0,0,0,0,0,0h-0.8c-0.3,0-0.5,0.3-0.5,0.6c0,0,0,0,0,0c0,0.3,0.2,0.6,0.5,0.6h1c0.8,0.1,1.5-0.5,1.6-1.4
					C134.9,529,134.9,528.9,134.9,528.8z M132.1,527.9v-4.6c0-0.6-0.5-1-1-1c0,0,0,0,0,0h-4.1c-0.6,0-1,0.5-1.1,1c0,0,0,0,0,0v4.6
					c0,0.6,0.5,1,1,1c0,0,0,0,0,0h4.1C131.6,529,132.1,528.5,132.1,527.9C132.1,527.9,132.1,527.9,132.1,527.9L132.1,527.9z
					 M130.9,527.5c0,0.2-0.2,0.3-0.3,0.3h-3.2c-0.2,0-0.3-0.2-0.3-0.3v-3.7c0-0.2,0.1-0.3,0.3-0.3c0,0,0,0,0,0h3.2
					c0.2,0,0.3,0.1,0.3,0.3c0,0,0,0,0,0V527.5z M148.5,523.5c0-0.3-0.2-0.6-0.4-0.6h-2.8c-0.4-0.9-0.7-1.8-1-2.7h3.8
					c0.2,0,0.4-0.2,0.4-0.6c0-0.3-0.2-0.6-0.4-0.6h-4.2c-0.1-0.3-0.2-0.5-0.3-0.8c-0.1-0.2-0.3-0.3-0.5-0.3c-0.3,0-0.6,0.2-0.6,0.4
					c0,0.2,0.1,0.5,0.2,0.7h-1.9c-0.2,0-0.4,0.2-0.4,0.6c0,0.4,0.2,0.6,0.4,0.6h2.2c0.3,0.9,0.6,1.8,1,2.7h-3.3
					c-0.2,0-0.4,0.2-0.4,0.6s0.2,0.6,0.4,0.6h3.8c0.4,0.8,0.8,1.6,1.3,2.4c0.1,0.1,0.2,0.2,0.4,0.2c0.4,0,0.7-0.2,0.7-0.5
					c0-0.1,0-0.1-0.1-0.2c-0.4-0.6-0.7-1.2-1.1-1.9h2.3C148.3,524.1,148.5,523.9,148.5,523.5L148.5,523.5z M142.3,529.4
					c0-0.2-0.2-0.4-0.4-0.5c-2.4-0.1-3.2-0.5-3.2-1.6c0-0.5,0.2-1,0.4-1.4c0,0,0-0.1,0-0.1c0-0.3-0.4-0.5-0.8-0.5
					c-0.2,0-0.3,0.1-0.4,0.2c-0.4,0.6-0.6,1.3-0.6,2c0,1.7,1.3,2.4,4.4,2.5C142.1,530.1,142.3,529.9,142.3,529.4z M162.7,519.7
					c-0.1-0.5-0.5-0.8-1-0.9h-4.3c-0.2,0-0.4,0.3-0.4,0.6s0.2,0.6,0.4,0.6h3.3c0.1,0,0.2,0.1,0.2,0.1c0,0.1,0,0.1-0.1,0.2l-0.8,0.9
					c0,0.1-0.1,0.1-0.1,0.2c0,0.3,0.4,0.6,0.7,0.6c0.1,0,0.2-0.1,0.3-0.1l1.5-1.9C162.6,519.9,162.7,519.8,162.7,519.7z
					 M162.8,529.4c0-0.4-0.2-0.6-0.4-0.6h-3.8c-2,0-2.8-0.6-2.8-1.8c0-0.8,0.5-1.4,0.5-1.6c0-0.3-0.4-0.5-0.7-0.5
					c-0.2,0-0.4,0.1-0.5,0.2c-0.4,0.6-0.6,1.3-0.6,2.1c0,1.5,0.7,2.8,3.9,2.8h4C162.6,530,162.8,529.8,162.8,529.4z M152.6,530.1
					v-11.6c0-0.2-0.2-0.4-0.6-0.4s-0.6,0.2-0.6,0.4v11.6c0,0.2,0.2,0.4,0.6,0.4C152.4,530.6,152.6,530.4,152.6,530.1z M174.8,529.8
					c0-0.4-0.2-0.7-0.4-0.7h-0.1c-0.3,0-0.7,0.1-1,0.1c-2.5,0-4.2-0.6-4.2-3.7v-6.9c0-0.2-0.3-0.4-0.6-0.4c-0.4,0-0.6,0.2-0.6,0.4
					v7.1c0,3.4,1.8,4.8,5.4,4.8c0.4,0,0.8,0,1.2-0.1C174.7,530.3,174.8,530.1,174.8,529.8z M191.2,519.4c0-0.3-0.2-0.7-0.5-0.7
					h-11.2c-0.2,0-0.4,0.3-0.4,0.6s0.2,0.6,0.4,0.6l8.1,0c0.1,0,0.2,0,0.2,0s-0.1,0.1-0.2,0.1c-5.1,1.4-6.9,3.4-6.9,5.7
					c0,1.7,1,3.6,3.7,4.2c0,0,0.1,0,0.1,0c0.3,0,0.5-0.4,0.5-0.8c0-0.2-0.1-0.4-0.3-0.5c-1.9-0.6-2.8-1.7-2.8-3.1
					c0-2.2,2-3.8,8.9-5.8C191.1,519.9,191.2,519.7,191.2,519.4z M205.6,518.5c0-0.2-0.2-0.7-0.5-0.7c-0.2,0-0.7,0.2-0.7,0.5
					c0,0.1,0.2,0.7,0.5,0.7C205.1,519,205.6,518.8,205.6,518.5z M203.5,519.1c0-0.2-0.2-0.7-0.5-0.7c-0.2,0-0.7,0.2-0.7,0.5
					c0,0.1,0.2,0.7,0.5,0.7C203,519.6,203.5,519.4,203.5,519.1L203.5,519.1z M201.5,519.7c0-0.4-0.3-0.8-0.6-0.8h-6.1
					c-0.2,0-0.4,0.2-0.4,0.6s0.2,0.6,0.4,0.6h4.6c0.1,0,0.2,0,0.2,0.1c0,0.1,0,0.1-0.1,0.2l-0.8,0.8c-0.1,0.1-0.1,0.2-0.1,0.3
					c0.1,0.3,0.3,0.6,0.7,0.6c0.1,0,0.2,0,0.3-0.1l1.8-1.8C201.5,519.9,201.5,519.8,201.5,519.7L201.5,519.7z M204.3,529.5
					c0-0.4-0.2-0.6-0.4-0.6h-5.2c-2.7,0-4.1-0.4-4.1-2.1c0-0.8,0.5-1.4,0.5-1.6c0-0.3-0.4-0.5-0.7-0.5c-0.2,0-0.4,0.1-0.5,0.2
					c-0.4,0.6-0.6,1.3-0.6,2c0,2.2,1.5,3.2,5.4,3.2h5.2C204.1,530.1,204.3,529.9,204.3,529.5z M218.9,528.8V520
					c0-0.3-0.3-0.5-0.6-0.5c-0.3,0-0.5,0.2-0.6,0.5v8.6c0,0.4-0.3,0.7-0.6,0.7c0,0,0,0,0,0h-1.2c-0.3,0-0.5,0.3-0.5,0.5
					c0,0.3,0.2,0.5,0.5,0.6h1.5c0.8,0.1,1.5-0.5,1.6-1.3C218.9,529,218.9,528.9,218.9,528.8L218.9,528.8z M215.5,527.5V520
					c0-0.3-0.3-0.5-0.6-0.5c-0.3,0-0.5,0.2-0.6,0.5v7.5c0,0.3,0.3,0.5,0.6,0.5C215.2,528,215.5,527.8,215.5,527.5L215.5,527.5z
					 M212.4,524.8c0-0.2-0.3-0.6-0.6-0.6c-0.3,0.1-0.5,0.3-0.6,0.6c0.1,0.3,0.3,0.5,0.5,0.6C212.1,525.3,212.3,525.1,212.4,524.8z
					 M213.4,521.8c0-0.3-0.2-0.5-0.5-0.6h-2.3v-1.8c0.6-0.1,1.3-0.2,1.9-0.4c0.2-0.1,0.3-0.3,0.3-0.5c0-0.4-0.2-0.6-0.5-0.6
					c-0.1,0-0.1,0-0.2,0c-1.7,0.4-3.4,0.6-5.1,0.6c-0.3,0-0.5,0.3-0.4,0.5c0,0.3,0.2,0.5,0.4,0.5c0.8,0,1.6,0,2.3-0.1v1.7h-2.3
					c-0.3,0-0.5,0.3-0.5,0.6c0,0,0,0,0,0c0,0.3,0.2,0.5,0.5,0.5c0,0,0,0,0,0h2.3c-0.4,1.7-1.3,3.3-2.6,4.5c-0.1,0.1-0.2,0.3-0.2,0.4
					c0,0.3,0.2,0.5,0.5,0.5c0,0,0,0,0,0c0.1,0,0.2,0,0.3-0.1c0.8-0.8,1.5-1.7,2-2.8v5.1c0,0.3,0.3,0.5,0.6,0.5
					c0.3,0,0.5-0.2,0.6-0.5v-7.7h2.3C213.2,522.3,213.4,522.1,213.4,521.8z M232.9,528.8v-9.7c0-0.6-0.5-1-1-1c0,0,0,0,0,0h-9.1
					c-0.6,0-1,0.5-1.1,1c0,0,0,0,0,0v5.7c0.1,1.2-0.2,2.3-0.9,3.3c-0.1,0.1-0.1,0.2-0.1,0.3c0,0.3,0.3,0.6,0.6,0.6c0,0,0,0,0,0
					c0.2,0,0.3-0.1,0.4-0.2c0.5-0.7,0.9-1.6,1.1-2.4h3.9v2.3c0,0.3,0.3,0.5,0.6,0.5c0.3,0,0.6-0.2,0.6-0.5v-2.3h3.7v2.3
					c0,0.3-0.2,0.5-0.5,0.6c0,0,0,0,0,0h-0.5c-0.3,0-0.5,0.3-0.5,0.6c0,0.3,0.2,0.6,0.5,0.6h0.7c0.8,0.1,1.5-0.6,1.6-1.4
					C232.9,529,232.9,528.9,232.9,528.8L232.9,528.8z M231.7,521.7H228v-2.6h3.4c0.2,0,0.3,0.1,0.3,0.3c0,0,0,0,0,0V521.7z
					 M231.7,525.3H228v-2.6h3.7V525.3z M226.7,521.7H223v-2.2c0-0.2,0.2-0.3,0.3-0.3h3.4L226.7,521.7z M226.7,525.3H223
					c0-0.2,0-0.3,0-0.5v-2.1h3.8L226.7,525.3z M245.1,529.4c0-0.1-0.1-0.3-0.2-0.4c-1.9-1.3-3.9-2.5-6-3.5c-1-0.5-1.2-1-1.2-1.6
					v-0.2c0-0.8,0.4-1.3,1.5-1.8l4.4-2.4c0.1-0.1,0.2-0.2,0.2-0.3c0-0.4-0.3-0.7-0.6-0.7c-0.1,0-0.1,0-0.2,0l-4.7,2.5
					c-1.1,0.4-1.8,1.5-1.9,2.6v0.3c0,1.2,0.5,1.8,1.9,2.6c2.1,1.1,4,2.3,6,3.6c0.1,0,0.1,0.1,0.2,0.1
					C244.9,530.1,245.1,529.8,245.1,529.4L245.1,529.4z M261.6,518.6c0-0.2-0.2-0.7-0.5-0.7c-0.2,0-0.7,0.2-0.7,0.5
					c0,0.1,0.2,0.7,0.5,0.7C261.1,519.1,261.6,518.9,261.6,518.6z M259.6,519.2c0-0.2-0.2-0.7-0.5-0.7c-0.2,0-0.7,0.2-0.7,0.5
					c0,0.1,0.2,0.7,0.5,0.7C259,519.7,259.6,519.5,259.6,519.2z M261,523.5c0-0.4-0.2-0.6-0.4-0.6h-5.2c-0.2,0-0.4,0.2-0.4,0.6
					s0.2,0.6,0.4,0.6h5.2C260.8,524.1,261,523.8,261,523.5z M257.3,519.7c0-0.4-0.2-0.6-0.4-0.6h-4.4l0.1-0.7c0-0.2-0.2-0.4-0.6-0.4
					c-0.7,0-0.7,0.5-0.7,1h-1.8c-0.3,0-0.4,0.2-0.4,0.6s0.2,0.6,0.4,0.6h1.7c-0.4,2.5-1,6.6-1.3,8.1c0,0,0,0.1,0,0.1
					c0,0.3,0.3,0.5,0.7,0.5c0.2,0,0.5-0.1,0.5-0.3c0.3-1.5,1-5.7,1.3-8.3h4.6C257.1,520.4,257.3,520.1,257.3,519.7L257.3,519.7z
					 M259.4,529.6c0-0.4-0.2-0.6-0.4-0.6h-2.2c-2.3,0-2.7-0.7-2.7-1.3c0-0.7,0.4-1.1,0.4-1.3c0-0.2-0.4-0.5-0.7-0.5
					c-0.2,0-0.3,0.1-0.4,0.2c-0.3,0.5-0.5,1.1-0.6,1.8c0,1.2,0.9,2.3,3.8,2.3h2.3C259.2,530.2,259.4,530,259.4,529.6L259.4,529.6z
					 M274.8,520.5c0-0.4-0.2-0.6-0.4-0.6h-3.3c-0.1-0.5-0.3-1-0.3-1.4c0-0.3-0.3-0.4-0.7-0.4s-0.6,0.2-0.6,0.4
					c0.1,0.5,0.2,1,0.3,1.4h-3.5c-0.2,0-0.4,0.3-0.4,0.6s0.2,0.6,0.4,0.6h3.9c0.5,1.5,1.2,3,2.1,4.4c0.1,0.1,0.3,0.2,0.4,0.2
					c0.5,0,0.8-0.3,0.8-0.6c0-0.1,0-0.1-0.1-0.2c-0.8-1.2-1.4-2.5-1.9-3.9h2.9C274.6,521.2,274.8,520.9,274.8,520.5z M270.5,529.4
					c0-0.4-0.2-0.6-0.4-0.6h-1.4c-3.1,0-4.1-0.7-4.1-2.1c0-0.9,0.8-1.5,0.8-1.9c0-0.3-0.3-0.5-0.7-0.5c-0.1,0-0.3,0-0.4,0.1
					c-0.6,0.7-1,1.5-1,2.4c0,1.9,1.3,3.2,5.2,3.2h1.6C270.3,530.1,270.5,529.8,270.5,529.4L270.5,529.4z M288.9,524.5L288.9,524.5
					c-0.2-1.1-0.4-2.1-0.7-3.1c-0.1-0.2-0.3-0.3-0.5-0.3c-0.5,0-0.7,0.3-0.7,0.5c0,0,0,0.1,0,0.1c0.3,0.9,0.5,1.9,0.7,2.8
					c0,0.2,0.2,0.4,0.5,0.4C288.6,525,288.9,524.8,288.9,524.5L288.9,524.5z M283.5,527.2c0-0.4-0.4-0.7-0.7-0.7
					c-0.1,0-0.2,0-0.3,0.1l-2,2c-0.1,0.1-0.2,0.1-0.3,0.1c0,0-0.1,0-0.1,0c-0.8-0.3-1.3-1.3-1.3-2.8v-7.3c0-0.2-0.3-0.4-0.6-0.4
					c-0.4,0-0.6,0.2-0.6,0.4v7.4c0,1.9,0.8,3.6,2.3,4c0.1,0,0.2,0.1,0.4,0.1c0.3,0,0.5-0.1,0.7-0.3l2.4-2.3
					C283.4,527.5,283.5,527.4,283.5,527.2L283.5,527.2z M296.1,527.6c0-1.6-1.3-2.8-2.8-2.8s-2.8,1.3-2.8,2.8s1.3,2.8,2.8,2.8
					C294.8,530.4,296.1,529.1,296.1,527.6L296.1,527.6z M295.2,527.5c0,1-0.8,1.9-1.9,1.9c-1,0-1.9-0.8-1.9-1.9c0,0,0,0,0,0
					c0-1,0.8-1.9,1.9-1.9S295.2,526.5,295.2,527.5C295.2,527.5,295.2,527.5,295.2,527.5z"/>
			</g>
			<g id="グループ_23" transform="translate(0 -0.624)">
				<path id="パス_88" class="st4" d="M129.4,411c0-0.3-0.1-0.7-0.4-0.9l-3-1.9c1.8-2.7,2.7-5.8,2.7-9c0-1.2-0.6-2.2-1.8-2.2
					h-11.7c-0.5,0.1-0.9,0.6-0.9,1.1c0,0.5,0.3,1,0.9,1.1h10.7c0.3,0,0.5,0.2,0.6,0.5c0,0,0,0,0,0v0c-0.4,7.4-4.7,11.5-11.9,12.4
					c-0.5,0.1-0.9,0.5-0.9,1c0,0.6,0.4,1.1,0.9,1.2h0.1c3.7-0.3,7.1-1.8,9.8-4.4l3.2,2.2c0.1,0.1,0.3,0.2,0.5,0.2
					C128.8,412.2,129.3,411.7,129.4,411z M154.6,399.3v-3c0-1-0.8-1.8-1.8-1.8c0,0,0,0,0,0h-14.3c-0.5,0.1-0.9,0.5-0.9,1.1
					c-0.1,0.5,0.3,1,0.9,1.1h13.3c0.3,0,0.6,0.2,0.6,0.5c0,0,0,0,0,0v2c0,6.6-3.9,9-10.3,9.1l-1.9-3.9c-0.2-0.3-0.5-0.5-0.8-0.5
					c-0.6,0-1.1,0.5-1.2,1.1c0,0.1,0,0.2,0.1,0.3l4.2,8.7c0.2,0.3,0.5,0.5,0.9,0.5c0.6,0,1.2-0.5,1.2-1.1c0-0.1,0-0.2-0.1-0.3
					l-1.3-2.6C150.3,410.1,154.6,406.4,154.6,399.3z M179.6,404.1c0.1-0.6-0.4-1.1-0.9-1.2h-17.3c-0.6,0.1-1,0.6-0.9,1.2
					c0,0.6,0.4,1,0.9,1.1h17.3C179.2,405.1,179.6,404.6,179.6,404.1z M200.6,404.7c0-0.5-0.3-0.9-0.7-1.1c-2.6-0.5-5.1-1.4-7.4-2.6
					v-6.7c-0.1-0.5-0.5-0.9-1.1-0.9c-0.5,0-1,0.3-1.1,0.9v19.8c0.1,0.5,0.5,0.9,1.1,0.9c0.5,0,1-0.3,1.1-0.9v-10.7
					c2.2,1.1,4.6,1.9,7.1,2.4h0.1C200.2,405.8,200.6,405.3,200.6,404.7L200.6,404.7z M227.8,399.8v-1.1c0-0.8-0.6-1.5-1.4-1.6
					c0,0-0.1,0-0.1,0h-17.6c-0.5,0.1-0.9,0.5-0.9,1.1c0,0.5,0.3,1,0.9,1.1h16.3c0.3,0,0.6,0.2,0.6,0.6c0,0,0,0,0,0
					c0,7.4-3.5,11.5-10.3,12.2c-0.5,0.1-0.8,0.5-0.8,0.9c0,0.7,0.4,1.2,1,1.2h0.1C223.9,413.5,227.8,408.5,227.8,399.8L227.8,399.8z
					 M249.6,401.5c0-0.5-0.3-0.9-0.8-1h-2.2v-2c-0.1-0.5-0.5-0.8-1-0.8c-0.5,0-0.9,0.3-1,0.8v2h-6.7c-0.5,0.1-0.8,0.5-0.8,1
					c0,0.5,0.3,0.9,0.8,1h6.7v0.3c-3.7,3.2-7.7,6-11.9,8.5c-0.3,0.2-0.4,0.5-0.4,0.8c0,0.5,0.3,0.9,0.8,0.9c0.2,0,0.3,0,0.4-0.1
					c3.9-2.3,7.7-4.9,11.1-7.8v7.4c0.1,0.5,0.5,0.8,1,0.8c0.5,0,0.9-0.3,1-0.8v-9.9h2.2C249.3,402.4,249.7,402,249.6,401.5
					L249.6,401.5z M264.5,397.4c0-0.5-0.3-0.9-0.7-1l-5.5-1c-0.6,0-0.9,0.7-0.9,1.2c0,0.5,0.3,0.9,0.7,1l5.4,1
					C264.1,398.5,264.5,398,264.5,397.4L264.5,397.4z M275.4,405.6c0-0.6-0.5-1.1-1.1-1.1c-0.3,0-0.6,0.1-0.8,0.4
					c-3,4.3-7.9,7-13.1,7.3c-0.5,0.1-0.8,0.5-0.8,1c-0.1,0.6,0.4,1.2,1,1.2c6-0.2,11.5-3.3,14.7-8.4
					C275.3,405.9,275.4,405.8,275.4,405.6z M301.9,401.2c0-0.3-0.4-1.2-0.9-1.2c-0.3,0-1.2,0.4-1.2,0.9c0,0.3,0.4,1.2,0.9,1.2
					C301,402,301.9,401.7,301.9,401.2L301.9,401.2z M298.1,402.3c0-0.3-0.4-1.2-0.9-1.2c-0.3,0-1.2,0.4-1.2,0.9
					c0,0.4,0.4,1.2,0.9,1.2C297.2,403.2,298.1,402.8,298.1,402.3L298.1,402.3z M300.8,395.8c0-0.6-0.3-1.2-0.9-1.2h-19
					c-0.4,0-0.7,0.4-0.7,1.1c0,0.6,0.3,1.1,0.7,1.1l14-0.1c0.2,0,0.3,0,0.3,0.1s-0.1,0.1-0.3,0.1c-8.5,2.4-12.3,5.9-12.3,9.8
					c0,2.9,1.7,6,6.4,7.3c0.1,0,0.1,0,0.2,0c0.6,0,0.9-0.7,0.9-1.3c0-0.4-0.2-0.7-0.5-0.8c-3.3-1.1-4.7-2.9-4.7-5.2
					c0-3.9,4.7-6.9,15.4-9.9C300.5,396.7,300.8,396.3,300.8,395.8C300.8,395.8,300.8,395.8,300.8,395.8L300.8,395.8z M132.2,433.1
					v-3.5c0-0.4-0.4-0.7-1-0.7c-0.6,0-1,0.3-1,0.7v3.5c0,0.4,0.4,0.7,1,0.7C131.8,433.8,132.2,433.5,132.2,433.1z M132.4,443.1
					c0-5.1-3.7-7.2-10-7.2c-0.3,0-0.6,0-1,0v-3.4h3.5c0.4,0,0.7-0.4,0.7-1c0-0.6-0.3-1.1-0.7-1.1h-3.5v-1c0-0.4-0.4-0.7-1.1-0.7
					c-0.6,0-1,0.3-1,0.7v1h-4.1c-0.4,0-0.7,0.4-0.7,1.1c0,0.6,0.3,1,0.7,1h4.1v3.6c-5,0.8-8.1,3.5-8.1,7.6c0,3,2,5.7,5.3,5.7
					c3.5,0,4.9-2.3,4.9-5.4v-6c0.2,0,0.5,0,0.7,0h0.4c5.5,0,7.6,1.8,7.6,5c0,0.9-0.3,1.8-0.8,2.6c-0.1,0.1-0.1,0.3-0.1,0.4
					c0,0.6,0.9,1.2,1.4,1.2c0.2,0,0.4-0.1,0.5-0.2C132,445.8,132.5,444.5,132.4,443.1z M119.4,443.6c0,2.5-0.8,3.6-3.1,3.6
					c-1.7-0.1-3.1-1.5-3-3.3c0-0.1,0-0.1,0-0.2c0-3,2-4.9,6.1-5.5V443.6z M155.3,431.6c0-0.4-0.4-1.1-0.8-1.1
					c-0.4,0-1.1,0.4-1.1,0.8c0,0.4,0.4,1.1,0.8,1.1C154.6,432.4,155.3,432,155.3,431.6z M155.3,437.3c0-0.5-0.7-0.8-1.1-0.8
					c-0.5,0-0.8,0.7-0.8,1.1c0,0.4,0.7,0.8,1.1,0.8C154.9,438.4,155.3,437.6,155.3,437.3L155.3,437.3z M157.1,442.3
					c0-0.5-0.3-0.9-0.8-0.9H147V440h2c1,0,1.8-0.8,1.8-1.8c0,0,0,0,0,0v-6.9c0-1-0.8-1.8-1.7-1.8c0,0,0,0-0.1,0h-2.8l0.3-0.6
					c0.1-0.1,0.1-0.2,0.1-0.4c0-0.4-0.3-0.7-0.9-0.7c-0.4,0-0.8,0.2-1,0.6l-0.6,1.1h-1.2c-1,0-1.8,0.8-1.8,1.7c0,0,0,0,0,0.1v6.9
					c0,1,0.8,1.8,1.8,1.8c0,0,0,0,0,0h2v1.3h-9.3c-0.5,0-0.8,0.5-0.8,0.9c0,0.5,0.3,0.9,0.8,0.9h7.5c-1.5,1.9-3.5,3.3-5.8,3.9
					c-0.4,0.1-0.7,0.4-0.7,0.9c0,0.5,0.4,1,0.9,1c0.1,0,0.1,0,0.2,0c3-0.8,5.5-2.5,7.3-5v5.2c0.1,0.5,0.5,0.9,1,0.9
					c0.5,0,1-0.4,1-0.9v-5.2c1.8,2.5,4.3,4.2,7.2,5c0.1,0,0.1,0,0.2,0c0.5,0,0.9-0.5,0.9-1c0-0.4-0.3-0.8-0.7-0.9
					c-2.3-0.6-4.3-2-5.8-3.9h7.4C156.7,443.2,157.1,442.8,157.1,442.3z M138.4,431.3c0-0.5-0.7-0.9-1.1-0.9c-0.4,0-0.8,0.8-0.8,1.1
					c0,0.4,0.7,0.8,1.1,0.8C138,432.4,138.4,431.7,138.4,431.3z M138.4,437.6c0-0.4-0.4-1.1-0.8-1.1c-0.4,0-1.1,0.4-1.1,0.8
					c0,0.4,0.4,1.1,0.8,1.1C137.7,438.4,138.4,438,138.4,437.6z M149,434h-6v-2.1c0-0.3,0.2-0.6,0.6-0.6c0,0,0,0,0,0h4.8
					c0.3,0,0.6,0.2,0.6,0.5c0,0,0,0,0,0V434z M149,437.7c0,0.3-0.2,0.6-0.5,0.6c0,0,0,0,0,0h-4.8c-0.3,0-0.6-0.2-0.6-0.6
					c0,0,0,0,0,0v-2.1h6V437.7z M176.6,448.6c0-0.6-0.3-1.2-0.7-1.2h-0.1c-0.6,0.1-1.1,0.1-1.7,0.1c-4.2,0-7.2-1-7.2-6.3v-11.9
					c0-0.4-0.4-0.7-1.1-0.7c-0.7,0-1.1,0.3-1.1,0.7v12.1c0,5.8,3,8.2,9.2,8.2c0.7,0,1.4-0.1,2.1-0.2
					C176.3,449.4,176.6,449.1,176.6,448.6z M204.9,440.8c0-0.3-0.2-0.7-0.5-0.8c-0.3-0.1-0.7-0.3-1-0.5c0.2-1.5,0.3-3,0.3-4.6
					c0-0.4-0.4-0.7-1.1-0.7s-1.1,0.3-1.1,0.7c0,1.2-0.1,2.5-0.2,3.7c-2.1-0.9-4.3-1.5-6.6-1.8c0.2-1.8,0.3-3.6,0.3-5.5
					c0-1-0.8-1.8-1.8-1.8c0,0,0,0,0,0h-4.9c-0.4,0-0.7,0.4-0.7,1c0,0.6,0.3,1,0.7,1h3.9c0.3,0,0.6,0.3,0.6,0.6c0,0,0,0,0,0
					c0,1.6,0,3-0.1,4.3c-0.4,0-0.7,0-1.1,0c-4.4,0-8.4,2.2-8.4,7c0,3,1.7,5.5,4.8,5.5c3,0,5.5-2.4,6.6-10.3c2.2,0.4,4.4,1,6.5,2
					c-0.3,1.7-0.7,3.3-1.4,4.8c0,0.1-0.1,0.2-0.1,0.3c0,0.6,0.7,1,1.3,1c0.3,0,0.5-0.1,0.7-0.3c0.7-1.5,1.2-3.1,1.5-4.8
					c0.3,0.2,0.6,0.3,1,0.4C204.5,442.1,204.8,441.5,204.9,440.8L204.9,440.8z M192.5,438.6c-0.8,6.2-2.6,8.3-4.6,8.3
					c-1.3,0-2.6-0.9-2.6-3.5c0-3.3,2.8-4.8,6.1-4.8C191.7,438.6,192.1,438.6,192.5,438.6L192.5,438.6z M225.1,447.9
					c0-0.2-0.1-0.5-0.3-0.6c-3.3-2.2-6.7-4.3-10.3-6.1c-1.6-0.8-2.1-1.7-2.1-2.7v-0.4c0-1.3,0.7-2.2,2.6-3.1l7.5-4.1
					c0.2-0.1,0.3-0.4,0.3-0.6c0-0.6-0.5-1.2-1-1.2c-0.1,0-0.2,0-0.3,0.1l-8,4.4c-1.8,1-3.3,2.4-3.3,4.5v0.6c0,2,0.8,3.1,3.2,4.4
					c3.5,1.9,6.9,3.9,10.2,6.2c0.1,0.1,0.2,0.1,0.4,0.1C224.6,449.1,225.1,448.6,225.1,447.9z M253.3,429.4c0-0.3-0.4-1.2-0.8-1.2
					c-0.3,0-1.2,0.4-1.2,0.9c0,0.2,0.3,1.2,0.8,1.2C252.4,430.2,253.3,429.8,253.3,429.4z M249.8,430.5c0-0.3-0.4-1.2-0.8-1.2
					c-0.3,0-1.2,0.4-1.2,0.9c0,0.2,0.3,1.2,0.8,1.2C248.9,431.3,249.8,431,249.8,430.5z M252.3,437.8c0-0.6-0.3-1.1-0.7-1.1h-8.9
					c-0.4,0-0.7,0.4-0.7,1.1c0,0.6,0.3,1.1,0.7,1.1h8.9C252,438.8,252.3,438.4,252.3,437.8z M246,431.4c0-0.6-0.3-1-0.7-1h-7.5
					l0.1-1.1c0-0.4-0.4-0.7-1-0.7c-1.3,0-1.1,0.9-1.2,1.8h-3.2c-0.4,0-0.7,0.4-0.7,1c0,0.6,0.3,1.1,0.7,1.1h2.9
					c-0.6,4.3-1.7,11.3-2.2,13.8c0,0,0,0.1,0,0.1c0,0.5,0.6,0.8,1.2,0.8c0.4,0.1,0.8-0.2,0.9-0.6c0.5-2.6,1.7-9.7,2.3-14.2h7.8
					C245.6,432.4,246,432,246,431.4z M249.6,448.3c0-0.6-0.3-1-0.7-1h-3.7c-4,0-4.7-1.1-4.7-2.2c0-1.1,0.7-1.8,0.7-2.2
					c0-0.4-0.7-0.8-1.2-0.8c-0.3,0-0.5,0.1-0.7,0.3c-0.6,0.9-0.9,1.9-1,3c0,2.1,1.6,3.9,6.6,3.9h3.9
					C249.3,449.3,249.6,448.9,249.6,448.3z M276,432.7c0-0.6-0.3-1.1-0.7-1.1h-5.6c-0.2-0.8-0.4-1.7-0.6-2.4
					c-0.1-0.4-0.5-0.7-1.2-0.7c-0.6,0-1,0.3-1,0.7c0.1,0.8,0.3,1.7,0.6,2.5h-6.1c-0.4,0-0.7,0.4-0.7,1.1s0.3,1.1,0.7,1.1h6.7
					c0.9,2.7,2.1,5.2,3.5,7.6c0.2,0.2,0.5,0.4,0.7,0.4c0.8,0,1.3-0.5,1.3-1c0-0.1,0-0.2-0.1-0.3c-1.4-2.1-2.5-4.3-3.3-6.7h5
					C275.7,433.8,276,433.4,276,432.7z M268.6,448c0-0.6-0.3-1-0.7-1h-2.4c-5.4,0-7-1.2-7-3.6c0-1.6,1.4-2.6,1.4-3.2
					c0-0.5-0.5-0.9-1.2-0.9c-0.2,0-0.5,0.1-0.6,0.2c-1,1.1-1.7,2.6-1.7,4.2c0,3.3,2.2,5.4,8.9,5.4h2.7
					C268.3,449,268.6,448.6,268.6,448z M300.2,439.6L300.2,439.6c-0.3-1.8-0.7-3.6-1.3-5.3c-0.1-0.3-0.5-0.5-0.8-0.5
					c-0.8,0-1.2,0.5-1.2,0.9c0,0.1,0,0.1,0,0.2c0.5,1.6,0.9,3.2,1.2,4.8c0,0.4,0.4,0.6,0.9,0.6C299.6,440.4,300.2,440.1,300.2,439.6
					z M290.8,444.2c-0.1-0.7-0.6-1.2-1.3-1.3c-0.2,0-0.3,0.1-0.5,0.2l-3.4,3.4c-0.1,0.1-0.3,0.2-0.5,0.2c-0.1,0-0.1,0-0.2,0
					c-1.3-0.4-2.3-2.2-2.3-4.7v-12.5c0-0.4-0.5-0.7-1.1-0.7c-0.7,0-1.1,0.3-1.1,0.7v12.7c0,3.2,1.3,6.2,4,6.9
					c0.2,0.1,0.4,0.1,0.6,0.1c0.5,0,0.9-0.2,1.2-0.5l4.2-4C290.7,444.6,290.8,444.4,290.8,444.2z"/>
				<g id="icon" transform="translate(6.434 9.148)">
					<g id="Layer_7" transform="translate(161.159 242.903)">
						<g id="パス_86" transform="translate(-7.5 -2)">
							<path class="st5" d="M70.9,128.3H21.1c-3.5,0-6.8-1.4-9.3-3.8C9.4,122,8,118.7,8,115.2V15.6c0-3.5,1.4-6.8,3.8-9.3
								c2.5-2.5,5.8-3.8,9.3-3.8h49.8c3.5,0,6.8,1.4,9.3,3.8c2.5,2.5,3.8,5.8,3.8,9.3v99.6c0,3.5-1.4,6.8-3.8,9.3
								C77.7,126.9,74.4,128.3,70.9,128.3z M21.1,10.6c-2.8,0-5,2.3-5,5v99.6c0,2.8,2.3,5,5,5h49.8c2.8,0,5-2.3,5-5V15.6
								c0-2.8-2.3-5-5-5h-4.5h-0.5v0.5c0,2.2-1.8,4-4,4H30.1c-2.2,0-4-1.8-4-4v-0.5h-0.5H21.1z"/>
							<path class="st0" d="M21.1,3c-3.4,0-6.5,1.3-8.9,3.7c-2.4,2.4-3.7,5.5-3.7,8.9v99.6c0,3.4,1.3,6.5,3.7,8.9
								c2.4,2.4,5.5,3.7,8.9,3.7h49.8c3.4,0,6.5-1.3,8.9-3.7c2.4-2.4,3.7-5.5,3.7-8.9V15.6c0-3.4-1.3-6.5-3.7-8.9
								C77.4,4.3,74.3,3,70.9,3H21.1 M61.8,14.6c1.9,0,3.5-1.6,3.5-3.5v-1h5.5c3,0,5.5,2.5,5.5,5.5v99.6c0,3-2.5,5.5-5.5,5.5H21.1
								c-3,0-5.5-2.5-5.5-5.5V15.6c0-3,2.5-5.5,5.5-5.5h5.5v1c0,1.9,1.6,3.5,3.5,3.5H61.8 M21.1,2h49.8c7.5,0,13.6,6.1,13.6,13.6
								v99.6c0,7.5-6.1,13.6-13.6,13.6H21.1c-7.5,0-13.6-6.1-13.6-13.6V15.6C7.5,8.1,13.6,2,21.1,2z M61.8,15.6H30.1
								c-2.5,0-4.5-2-4.5-4.5h-4.5c-2.5,0-4.5,2-4.5,4.5v99.6c0,2.5,2,4.5,4.5,4.5h49.8c2.5,0,4.5-2,4.5-4.5V15.6
								c0-2.5-2-4.5-4.5-4.5h-4.5C66.4,13.6,64.3,15.6,61.8,15.6z"/>
						</g>
						<g id="グループ_13" transform="translate(5.758 60) rotate(-45)">
							<path id="パス_13" class="st5" d="M40.8,32.1c7.3-7.3,7.3-19.2,0-26.6s-19.2-7.3-26.6,0c-6.1,6-7.2,15.4-2.8,22.7
								c0.2,0.3,0.1,0.7-0.1,0.9l-9.6,9.6c-1.9,1.9-2.4,4.6-0.7,6.3l0.3,0.3c1.7,1.7,4.4,1.2,6.3-0.7l9.6-9.6c0.3-0.3,0.6-0.3,1-0.1
								C25.4,39.3,34.8,38.1,40.8,32.1z M17.7,28.6c-5.4-5.4-5.4-14.2,0-19.6s14.2-5.4,19.6,0s5.4,14.2,0,19.6c0,0,0,0,0,0
								C31.9,34,23.1,34,17.7,28.6z"/>
							<g id="グループ_12" transform="translate(16.961 7.516)">
								<path id="パス_14" class="st5" d="M1.9,10.1C0.9,10.1,0,9.3,0,8.2c0-0.3,0.1-0.5,0.2-0.8c2.6-6.2,9.8-9.1,16-6.5
									c1,0.4,1.4,1.6,1,2.5c-0.4,1-1.6,1.4-2.5,1C10.4,2.7,5.5,4.7,3.7,9C3.4,9.7,2.7,10.1,1.9,10.1z"/>
							</g>
						</g>
					</g>
				</g>
			</g>
		</g>
		<g id="mission_hedding" transform="translate(0 2)">
			<g id="ribon" transform="translate(38 165.875)">
				<path id="パス_16" class="st5" d="M58.4,18.1c1.9,0.5,3.8,0.8,5.7,0.8c3-0.1,7.1-0.4,12.1-0.8c0.4-2.7,0.9-5.9,1.5-9
					c0.1-0.8,0.3-1.6,0.4-2.5c-1.5,0.8-3.5,1.9-6,3.1c-4.7,2.4-10.1,5.2-12.4,7C59.2,17.1,58.8,17.6,58.4,18.1z"/>
				<path id="パス_17" class="st5" d="M167.5,58.5c23.2,0,41.9,1.9,60.5,3.2c23.6,1.7,50.3,3.6,53.5,0.6
					c-0.4-5.1-0.8-10.4-1.3-15.6c-0.4-4.3-0.9-8.7-1.4-13.1c-0.2-1.4-0.3-2.9-0.5-4.3c-0.3-2.2-0.5-4.4-0.8-6.6
					c-2.1,0.5-4.2,0.8-6.3,0.8c-4.4-0.2-10.2-0.6-17.5-1.2c-19.6-1.6-49.1-3.9-86.1-3.8c-37-0.1-66.6,2.3-86.1,3.8
					c-7.3,0.6-13.1,1.1-17.3,1.2c-2.2,0-4.4-0.3-6.5-0.8c-0.3,2.2-0.5,4.4-0.8,6.6c-0.2,1.5-0.4,2.9-0.5,4.4
					c-0.5,4.4-1,8.8-1.4,13.1c-0.5,5.2-0.9,10.5-1.3,15.6c3.2,3,29.9,1.1,53.5-0.6C125.7,60.5,144.3,58.5,167.5,58.5z"/>
				<path id="パス_18" class="st5" d="M28.9,46.7c6.8-1.2,13.7-2.4,21.5-2.5c0.3-2.8,0.6-5.7,0.9-8.5c0.1-1.3,0.3-2.6,0.4-3.9
					c0.5-4.6,1.1-9.2,1.7-13.8c0,0,0-0.1,0-0.1c0-0.1,0-0.1,0-0.2l0,0v0l0,0c0,0,0,0,0,0c0.3-1.4,1.3-2.9,3.3-4.5
					c2.6-2.2,8-5,13.2-7.6c3.1-1.5,6.1-3.2,9.1-5c0,0,0-0.1,0-0.1c-1.6-1.5-12.6,1.3-20.6,3.3c-15,3.8-34.8,8.8-50,5.4
					c5.2,7,10.3,13.9,15.5,20.8l1.5,2l-2.2,1.3C15.5,38.1,7.7,43,0,47.8C10.2,50,19.3,48.4,28.9,46.7z"/>
				<path id="パス_19" class="st5" d="M277,18.4L277,18.4L277,18.4z"/>
				<path id="パス_20" class="st5" d="M271.2,18.8c1.9,0,3.7-0.2,5.5-0.8c-0.4-0.5-0.9-0.9-1.4-1.3c-2.2-1.9-7.6-4.6-12.4-7
					c-2.5-1.3-4.5-2.3-6-3.1l0.4,2.5c0.5,3.1,1.1,6.3,1.5,9C263.9,18.4,268.1,18.7,271.2,18.8z"/>
				<path id="パス_21" class="st5" d="M281.6,17.7L281.6,17.7L281.6,17.7L281.6,17.7c0,0.1,0,0.1,0,0.2c0,0,0,0.1,0,0.1
					c0.6,4.6,1.2,9.2,1.7,13.7c0.2,1.3,0.3,2.6,0.4,4c0.3,2.8,0.6,5.7,0.9,8.5c7.8,0,14.8,1.3,21.5,2.5c9.6,1.7,18.7,3.3,28.9,1.2
					c-7.7-4.9-15.5-9.7-23.3-14.5l-2.2-1.3l1.5-2c5.1-6.9,10.3-13.9,15.5-20.8c-15.2,3.4-34.9-1.6-50-5.4c-8-2-19-4.8-20.6-3.3
					c0,0,0,0.1,0,0.1c2.9,1.8,5.9,3.5,9.1,5c5.2,2.7,10.6,5.4,13.2,7.6C280.3,14.8,281.3,16.2,281.6,17.7
					C281.6,17.7,281.6,17.7,281.6,17.7z"/>
			</g>
			<path id="パス_87" class="st0" d="M180,212.1c0-0.3-0.1-0.6-0.4-0.8l-2.8-1.8c1.6-2.4,2.5-5.3,2.5-8.2c0-1.1-0.6-2-1.7-2H167
				c-0.5,0.1-0.9,0.5-0.8,1c0,0.5,0.3,0.9,0.8,1h9.8c0.3,0,0.5,0.2,0.5,0.5c0,0,0,0,0,0v0c-0.3,6.8-4.3,10.5-10.9,11.4
				c-0.4,0.1-0.8,0.4-0.8,0.9c0,0.5,0.3,1,0.9,1.1h0.1c3.4-0.3,6.5-1.7,9-4l2.9,2c0.1,0.1,0.3,0.1,0.4,0.2
				C179.6,213.2,180,212.7,180,212.1z M203.2,201.4v-2.8c0-0.9-0.7-1.6-1.6-1.6c0,0,0,0,0,0h-13.1c-0.5,0.1-0.9,0.5-0.8,1
				c0,0.5,0.3,1,0.8,1h12.2c0.3,0,0.5,0.2,0.5,0.5c0,0,0,0,0,0v1.9c0,6.1-3.6,8.3-9.5,8.3l-1.8-3.6c-0.2-0.3-0.5-0.4-0.8-0.4
				c-0.6,0-1,0.4-1.1,1c0,0.1,0,0.2,0.1,0.3l3.9,8c0.2,0.3,0.5,0.5,0.8,0.5c0.6,0,1.1-0.4,1.1-1c0-0.1,0-0.2-0.1-0.3l-1.2-2.4
				C199.3,211.3,203.2,207.9,203.2,201.4z M226.4,211.7c0-0.1,0-0.2-0.1-0.3l-1.7-3.4c-0.2-0.3-0.5-0.4-0.8-0.4c-0.6,0-1,0.4-1.1,1
				c0,0.1,0,0.2,0.1,0.3l1.7,3.5c0.2,0.3,0.5,0.5,0.8,0.4C225.9,212.7,226.4,212.3,226.4,211.7z M227,202.3c0-0.5-0.3-0.9-0.8-1
				h-8.1v-4.6c-0.1-0.5-0.5-0.8-1-0.8c-0.5,0-0.9,0.3-1,0.8v4.6h-7.9c-0.5,0.1-0.9,0.5-0.8,1c0,0.5,0.3,1,0.8,1h7.9v11.6
				c0.1,0.5,0.5,0.9,1,0.8c0.5,0,0.9-0.3,1-0.8v-11.6h8.1C226.7,203.2,227.1,202.8,227,202.3z M211.5,208.5c-0.1-0.6-0.6-1-1.1-1
				c-0.3,0-0.6,0.1-0.8,0.4l-1.7,3.4c0,0.1-0.1,0.2-0.1,0.3c0,0.6,0.5,1,1.1,1c0.3,0,0.6-0.2,0.8-0.4l1.7-3.5
				C211.5,208.7,211.5,208.6,211.5,208.5z M250.2,203.1c0-0.2-0.4-1.1-0.8-1.1c-0.3,0-1.1,0.4-1.1,0.8c0,0.2,0.4,1.1,0.8,1.1
				C249.3,203.9,250.2,203.6,250.2,203.1z M246.7,204.1c0-0.2-0.4-1.1-0.8-1.1c-0.3,0-1.1,0.4-1.1,0.8c0,0.4,0.4,1.1,0.8,1.1
				C245.9,204.9,246.7,204.6,246.7,204.1z M249.2,198.2c0-0.6-0.3-1.1-0.8-1.1h-17.4c-0.4,0-0.7,0.4-0.7,1s0.3,1,0.7,1l12.8-0.1
				c0.2,0,0.2,0,0.2,0.1c0,0-0.1,0.1-0.2,0.1c-7.8,2.2-11.3,5.4-11.3,9c0,2.7,1.5,5.5,5.9,6.7c0.1,0,0.1,0,0.2,0
				c0.5,0,0.8-0.6,0.8-1.2c0-0.3-0.2-0.6-0.5-0.7c-3-1-4.3-2.7-4.3-4.8c0-3.6,4.3-6.3,14.1-9C249,199,249.2,198.6,249.2,198.2
				C249.2,198.2,249.2,198.2,249.2,198.2z"/>
		</g>
	</g>
</g>
</svg>
