<svg xmlns="http://www.w3.org/2000/svg" xmlns:xlink="http://www.w3.org/1999/xlink" width="402" height="397.322" viewBox="0 0 402 397.322">
  <defs>
    <clipPath id="clip-path">
      <path id="長方形_11" data-name="長方形 11" d="M0,0H402a0,0,0,0,1,0,0V50a60,60,0,0,1-60,60H60A60,60,0,0,1,0,50V0A0,0,0,0,1,0,0Z" transform="translate(-13 350)" fill="#fafafa"/>
    </clipPath>
  </defs>
  <g id="mission_bg" transform="translate(11 -184)">
    <path id="mission_bg-2" data-name="mission_bg" d="M-58.683-107.65,45.726-98.965a12.207,12.207,0,0,0,2.019,0l104.41-8.685a12.212,12.212,0,0,1,8.541,2.56l20.118,15.746a12.306,12.306,0,0,1,2.175,2.194l15.664,20.364a12.464,12.464,0,0,1,2.55,8.459L192.5,67.44c-.04.574-.04,125.3,0,125.876,8.76,126.634-291.819,128.407-291.72,5.241,0-1.67.063-127.595.188-129.393a12.648,12.648,0,0,0,0-1.725l-8.7-125.767a12.463,12.463,0,0,1,2.549-8.459L-89.515-87.15a12.355,12.355,0,0,1,2.174-2.194l20.117-15.746A12.215,12.215,0,0,1-58.683-107.65Z" transform="translate(143.351 291.692)" fill="#fff"/>
    <g id="bg" transform="translate(2 121)" clip-path="url(#clip-path)">
      <path id="bg-2" data-name="bg" d="M-58.683-107.65,45.726-98.965a12.207,12.207,0,0,0,2.019,0l104.41-8.685a12.212,12.212,0,0,1,8.541,2.56l20.118,15.746a12.306,12.306,0,0,1,2.175,2.194l15.664,20.364a12.464,12.464,0,0,1,2.55,8.459L192.5,67.44c-.04.574-.04,125.3,0,125.876,8.76,126.634-291.819,128.407-291.72,5.241,0-1.67.063-127.595.188-129.393a12.648,12.648,0,0,0,0-1.725l-8.7-125.767a12.463,12.463,0,0,1,2.549-8.459L-89.515-87.15a12.355,12.355,0,0,1,2.174-2.194l20.117-15.746A12.215,12.215,0,0,1-58.683-107.65Z" transform="translate(141.351 170.692)" fill="#fafafa"/>
    </g>
    <line id="線_12" data-name="線 12" x2="292" transform="translate(44.5 471.5)" fill="none" stroke="#bebebe" stroke-width="1" stroke-dasharray="5 7"/>
  </g>
</svg>
