<svg xmlns="http://www.w3.org/2000/svg" width="99.608" height="99.608" viewBox="0 0 99.608 99.608">
  <g id="mission_symbol_02" transform="translate(0 49.804) rotate(-45)">
    <g id="グループ_13" data-name="グループ 13" transform="translate(0 0)">
      <path id="パス_13" data-name="パス 13" d="M62.076,48.775A28.58,28.58,0,0,0,21.659,8.357a28.024,28.024,0,0,0-4.3,34.492,1.2,1.2,0,0,1-.166,1.432L2.613,58.863c-2.9,2.9-3.593,6.96-1.019,9.534l.443.443c2.574,2.574,6.632,1.883,9.534-1.019L26.121,53.271a1.22,1.22,0,0,1,1.463-.2A28.024,28.024,0,0,0,62.076,48.775ZM26.935,43.5a21.117,21.117,0,1,1,29.864,0A21.141,21.141,0,0,1,26.935,43.5Z" fill="#ae88db"/>
      <g id="グループ_12" data-name="グループ 12" transform="translate(25.81 11.438)">
        <path id="パス_14" data-name="パス 14" d="M2.949,15.433a2.951,2.951,0,0,1-2.715-4.1A18.59,18.59,0,0,1,24.571,1.468a2.95,2.95,0,1,1-2.3,5.433,12.684,12.684,0,0,0-16.605,6.73A2.951,2.951,0,0,1,2.949,15.433Z" transform="translate(0 0)" fill="#ae88db"/>
      </g>
    </g>
  </g>
</svg>
