<svg xmlns="http://www.w3.org/2000/svg" width="335.082" height="63.961" viewBox="0 0 335.082 63.961">
  <g id="mission_hedding_magic" transform="translate(-38 -165.875)">
    <g id="ribon" transform="translate(38 165.875)">
      <path id="パス_16" data-name="パス 16" d="M425.428,344.71a19.863,19.863,0,0,0,5.694.769c3-.125,7.1-.429,12.137-.829.393-2.685.932-5.853,1.464-8.966.139-.808.272-1.634.4-2.458-1.546.846-3.495,1.856-5.988,3.127-4.746,2.422-10.127,5.166-12.363,7.04A9.216,9.216,0,0,0,425.428,344.71Z" transform="translate(-367.046 -326.651)" fill="#ae88db"/>
      <path id="パス_17" data-name="パス 17" d="M534.983,384.115c23.241,0,41.919,1.91,60.545,3.245,23.575,1.689,50.258,3.6,53.487.584-.373-5.135-.811-10.382-1.3-15.608-.41-4.327-.874-8.712-1.368-13.114-.162-1.436-.341-2.873-.511-4.31q-.391-3.319-.815-6.643a27.127,27.127,0,0,1-6.347.8c-4.366-.169-10.168-.636-17.513-1.227-19.561-1.574-49.124-3.927-86.122-3.833-37.03-.135-66.577,2.259-86.136,3.833-7.345.591-13.147,1.058-17.331,1.227a27.943,27.943,0,0,1-6.531-.811q-.418,3.316-.811,6.625c-.172,1.458-.355,2.916-.518,4.373-.492,4.388-.954,8.762-1.363,13.076-.492,5.224-.931,10.474-1.3,15.608,3.233,3.011,29.914,1.1,53.488-.584C493.155,386.025,511.743,384.115,534.983,384.115Z" transform="translate(-367.487 -325.568)" fill="#ae88db"/>
      <path id="パス_18" data-name="パス 18" d="M401.269,373.923c6.754-1.2,13.719-2.433,21.511-2.48.276-2.826.6-5.69.909-8.546.143-1.31.267-2.608.417-3.919q.782-6.86,1.683-13.751c0-.029.01-.061.013-.09.008-.061.014-.12.026-.187v0l0-.02h0c0-.01.01-.018.012-.027.273-1.444,1.321-2.892,3.251-4.5,2.638-2.207,8.026-4.956,13.238-7.615a87.248,87.248,0,0,0,9.059-4.995.469.469,0,0,0-.02-.123c-1.554-1.482-12.563,1.305-20.6,3.334-15.011,3.787-34.757,8.773-49.952,5.365q7.738,10.439,15.456,20.822l1.517,2.039-2.16,1.344q-11.657,7.238-23.263,14.513C382.6,377.228,391.707,375.617,401.269,373.923Z" transform="translate(-372.374 -327.251)" fill="#ae88db"/>
      <path id="パス_19" data-name="パス 19" d="M624.1,343.994h0v0Z" transform="translate(-347.096 -325.57)" fill="#ae88db"/>
      <path id="パス_20" data-name="パス 20" d="M620.113,345.48a18.818,18.818,0,0,0,5.53-.774,10.264,10.264,0,0,0-1.356-1.307c-2.242-1.878-7.623-4.623-12.369-7.045-2.5-1.276-4.46-2.29-6.009-3.14l.419,2.463c.533,3.114,1.073,6.287,1.466,8.974C612.841,345.051,616.974,345.355,620.113,345.48Z" transform="translate(-348.923 -326.652)" fill="#ae88db"/>
      <path id="パス_21" data-name="パス 21" d="M630.628,344.926h0l0,.02v0c.011.067.019.127.026.187,0,.03.01.062.012.09q.9,6.878,1.684,13.749c.151,1.325.277,2.634.42,3.957.31,2.843.63,5.7.906,8.51,7.793.047,14.757,1.283,21.511,2.48,9.56,1.694,18.663,3.3,28.894,1.162q-11.584-7.286-23.262-14.513l-2.16-1.344,1.518-2.039q7.718-10.387,15.456-20.822c-15.191,3.408-34.939-1.576-49.952-5.365-8.024-2.029-19.011-4.8-20.62-3.3a.462.462,0,0,1,0,.086,86.8,86.8,0,0,0,9.061,5c5.212,2.659,10.6,5.407,13.242,7.619,1.924,1.6,2.972,3.05,3.245,4.493A.32.32,0,0,1,630.628,344.926Z" transform="translate(-349.007 -327.249)" fill="#ae88db"/>
    </g>
    <path id="パス_86" data-name="パス 86" d="M-37.95-15.994a.921.921,0,0,0-.814-.99h-11.11a.937.937,0,0,0-.814.99.937.937,0,0,0,.814.99h11.11A.921.921,0,0,0-37.95-15.994Zm0,7.37a.9.9,0,0,0-.792-.968H-49.874a.883.883,0,0,0-.792.968.883.883,0,0,0,.792.968h11.132A.9.9,0,0,0-37.95-8.624ZM-37.2-.088A.938.938,0,0,0-37.884-1.1c-3.652-.9-7.524-1.1-12.8-1.1a.9.9,0,0,0-.814.968.907.907,0,0,0,.814.99A51.512,51.512,0,0,1-38.1.88h.088A.9.9,0,0,0-37.2-.088Zm22.484-9.064V-13.4a.836.836,0,0,0-.88-.726.836.836,0,0,0-.88.726v4.2c0,4.994-1.848,7.81-7.436,8.558a.767.767,0,0,0-.594.748c0,.528.286.99.77.99h.11C-17.182.264-14.718-3.366-14.718-9.152Zm-7.546.968v-.088l-.374-3.234a.761.761,0,0,0-.814-.638.811.811,0,0,0-.88.726L-24-8.1a.764.764,0,0,0,.814.638C-22.748-7.458-22.264-7.722-22.264-8.184Zm-5.346,0v-.088l-.352-3.234a.785.785,0,0,0-.836-.638c-.352,0-.88.22-.88.7l.33,3.344a.756.756,0,0,0,.792.638C-28.05-7.458-27.61-7.722-27.61-8.184Zm25.916-7.282a.779.779,0,0,0-.572-.814l-4.95-.99h-.11a.861.861,0,0,0-.792.946.751.751,0,0,0,.572.814L-2.574-14.5c.044,0,.066.022.11.022A.906.906,0,0,0-1.694-15.466ZM8.888-6.82a1.16,1.16,0,0,0-1.1-1.056.8.8,0,0,0-.66.308A15.881,15.881,0,0,1-5.06-.77a.852.852,0,0,0-.726.88c0,.418.286,1.1.924,1.1A16.845,16.845,0,0,0,8.778-6.446.541.541,0,0,0,8.888-6.82ZM-1.694-9.108a.747.747,0,0,0-.572-.814l-4.95-1.012h-.11a.847.847,0,0,0-.792.946.741.741,0,0,0,.55.814l5.082,1.012A.923.923,0,0,0-1.694-9.108Zm29,8.514v-10.78a1.634,1.634,0,0,0-1.65-1.65h-9.24a.813.813,0,0,0-.726.858.821.821,0,0,0,.726.88H24.97a.521.521,0,0,1,.528.528v4.026H16.39a.813.813,0,0,0-.7.858.813.813,0,0,0,.7.858H25.5v3.85a.521.521,0,0,1-.528.528H17.644a.816.816,0,0,0-.726.814.813.813,0,0,0,.726.858h8.008A1.629,1.629,0,0,0,27.3-.594ZM42.614-14.278a.91.91,0,0,0-.66-.924l-5.06-.88c-.506,0-.858.616-.858,1.1a.871.871,0,0,0,.66.88l4.994.9A1.014,1.014,0,0,0,42.614-14.278ZM52.58-6.754a1.043,1.043,0,0,0-1.012-1.034.94.94,0,0,0-.748.352A15.88,15.88,0,0,1,38.786-.7a.869.869,0,0,0-.77.88,1.065,1.065,0,0,0,.946,1.144A16.792,16.792,0,0,0,52.47-6.336.843.843,0,0,0,52.58-6.754Z" transform="translate(205.289 213.918)" fill="#fff"/>
  </g>
</svg>
