<svg xmlns="http://www.w3.org/2000/svg" width="19.214" height="21.451" viewBox="0 0 19.214 21.451">
  <path id="stopwatch" d="M45.66,4.733,43.409,2.482a.838.838,0,1,0-1.185,1.185l.533.533L41.663,5.294a9.047,9.047,0,0,0-5-2.071V1.676h.754a.838.838,0,1,0,0-1.676H34.232a.838.838,0,1,0,0,1.676h.754V3.222a9.133,9.133,0,1,0,7.862,3.256l1.094-1.094.533.533A.838.838,0,0,0,45.66,4.733ZM35.824,19.775a7.458,7.458,0,1,1,7.458-7.458A7.466,7.466,0,0,1,35.824,19.775Zm4.354-7.458a.838.838,0,0,1-.838.838H35.824a.838.838,0,0,1-.838-.838V7.387a.838.838,0,0,1,1.676,0V11.48h2.678A.838.838,0,0,1,40.178,12.318Z" transform="translate(-26.691)" fill="#298c6d"/>
</svg>
