<svg xmlns="http://www.w3.org/2000/svg" width="154.843" height="58.562" viewBox="0 0 154.843 58.562">
  <g id="icon" transform="matrix(0.985, -0.174, 0.174, 0.985, 10.402, 24.407)">
    <path id="長方形_21" data-name="長方形 21" d="M2.89,0H123.213a17.341,17.341,0,0,1,17.341,17.341v0a17.341,17.341,0,0,1-17.341,17.341H2.89A2.89,2.89,0,0,1,0,31.792V2.89A2.89,2.89,0,0,1,2.89,0Z" transform="translate(0 0)" fill="#f4bd24"/>
    <path id="パス_86" data-name="パス 86" d="M17.208-8.838c0-.2-.288-.9-.648-.9-.252,0-.864.288-.864.666,0,.18.27.882.648.882C16.542-8.208,17.208-8.46,17.208-8.838ZM14.4-7.992c0-.2-.288-.918-.648-.918-.252,0-.864.306-.864.684.018.18.288.864.648.864C13.806-7.362,14.4-7.668,14.4-7.992Zm.36-5.04C14.76-13.5,14.382-14,14-14a51.688,51.688,0,0,0-5.328,2.718c-.252.144-.486.306-.72.45L6.768-14.22a.55.55,0,0,0-.576-.342c-.45,0-1.062.36-1.062.792a.526.526,0,0,0,.036.162L6.534-9.846C4.086-7.992,2.97-6.1,2.97-3.87,2.97-1.386,4.734.864,9.324.864h3.294c.306,0,.558-.342.558-.828,0-.45-.252-.774-.558-.774H9.4c-3.348,0-4.752-1.566-4.752-3.15,0-2.106,1.476-4.014,4.734-5.994a49.016,49.016,0,0,1,5.058-2.592A.561.561,0,0,0,14.76-13.032Zm14.58-.108c0-.468-.252-.774-.558-.774h-6.75c-.306,0-.54.306-.54.774s.234.774.54.774h6.75C29.088-12.366,29.34-12.672,29.34-13.14Zm4.536,8.082c0-3.222-2.016-5.238-5.814-5.166l-.864.018-6.138.324c-.342.018-.576.306-.576.81,0,.432.234.846.558.828l6.246-.36c.216-.018.432-.018.648-.018,2.844,0,4.248,1.332,4.248,3.564,0,2.682-1.6,4.356-6.408,4.77-.288.018-.522.288-.522.72,0,.5.252.882.594.882h.018C32.2,1.314,33.876-1.854,33.876-5.058Zm18.468-8.73c0-.216-.27-.918-.612-.918-.234,0-.9.252-.9.648,0,.18.252.882.648.882C51.678-13.176,52.344-13.428,52.344-13.788Zm.864,2.718c0-.216-.27-.918-.612-.918-.252,0-.9.252-.9.648,0,.18.27.882.63.882C52.542-10.458,53.208-10.71,53.208-11.07ZM52.83-2.34v-.072l-.288-2.736c-.036-.288-.288-.486-.684-.486-.468,0-.882.216-.882.576l.306,2.808a.626.626,0,0,0,.684.468C52.344-1.782,52.83-1.944,52.83-2.34ZM49.86-12.654c0-.414-.378-1.17-.972-1.17H42.1c-.324,0-.558.324-.558.81s.234.792.558.792H46.89c.162,0,.234.036.234.09q0,.054-.162.162l-4.3,2.61a.788.788,0,0,0-.324.738.806.806,0,0,0,.324.738c2.232,1.368,3.78,2.808,3.78,4.734a2.568,2.568,0,0,1-2.7,2.772,6.215,6.215,0,0,1-1.962-.378.162.162,0,0,0-.09-.018c-.324,0-.63.5-.63.99a.653.653,0,0,0,.378.666,7.3,7.3,0,0,0,2.538.45,4.032,4.032,0,0,0,4.158-4.284c0-2.34-1.548-4.05-3.726-5.436a.34.34,0,0,1-.18-.252.34.34,0,0,1,.18-.252l5.22-3.276A.558.558,0,0,0,49.86-12.654Zm-9.72,6.66V-6.03c0-.4-.5-.63-.9-.63a.614.614,0,0,0-.666.5A6.938,6.938,0,0,1,37.332-2.52a.442.442,0,0,0-.09.27.906.906,0,0,0,.918.846.478.478,0,0,0,.432-.2A8.276,8.276,0,0,0,40.14-5.994ZM69.75-7.11c0-4.572-1.782-7.11-6.552-7.272L62.64-14.4l-5.922.27c-.324.018-.576.324-.576.81,0,.468.234.828.54.81l6.03-.27h.522c3.366,0,4.842,1.89,4.842,5.742,0,3.924-3.852,6.084-7.02,6.084h-.468c-.288,0-.522.306-.522.738s.2.882.576.882h.45C65.538.666,69.75-2.124,69.75-7.11ZM83.557-.4V-7.644a.966.966,0,0,0-.975-.975H75.588a.544.544,0,0,0-.481.585.549.549,0,0,0,.481.6h6.474a.3.3,0,0,1,.312.312v6.2a.3.3,0,0,1-.312.312H73.417a.544.544,0,0,0-.481.585.544.544,0,0,0,.481.585h9.165A.963.963,0,0,0,83.557-.4Zm13.13-4.42a.576.576,0,0,0-.507-.624H86.794a.576.576,0,0,0-.507.624.567.567,0,0,0,.507.6H96.18A.567.567,0,0,0,96.687-4.823Zm11.8,3.77a.6.6,0,0,0-.208-.481l-1.625-1.053a8.677,8.677,0,0,0,1.482-4.875c0-.663-.351-1.209-1-1.209h-6.331a.549.549,0,0,0-.481.6.544.544,0,0,0,.481.585h5.8a.292.292,0,0,1,.3.286v.026c-.195,4.03-2.561,6.214-6.422,6.734a.546.546,0,0,0-.468.533.591.591,0,0,0,.507.624h.052a8.625,8.625,0,0,0,5.3-2.379l1.729,1.17a.45.45,0,0,0,.26.091A.685.685,0,0,0,108.491-1.053Z" transform="translate(19.831 24.414)" fill="#fff"/>
    <circle id="楕円形_5" data-name="楕円形 5" cx="4.29" cy="4.29" r="4.29" transform="translate(6.701 13)" fill="#fff"/>
    <path id="パス_15" data-name="パス 15" d="M526.6-1528.947c1.278-1.807-.551-4.32-5.358-5.48s-6.059,4.473-14.578,2.458" transform="matrix(0.985, 0.174, -0.174, 0.985, -776.405, 1432.474)" fill="none" stroke="#333" stroke-linecap="round" stroke-width="2"/>
  </g>
</svg>
