<svg xmlns="http://www.w3.org/2000/svg" width="28.9" height="34.707" viewBox="0 0 28.9 34.707">
  <g id="home" transform="translate(-27.48 -18.083)">
    <path id="パス_86" data-name="パス 86" d="M-5.85-1.02a.353.353,0,0,0-.03-.14l-.79-1.55a.369.369,0,0,0-.35-.19.5.5,0,0,0-.5.44.277.277,0,0,0,.03.13l.77,1.57a.392.392,0,0,0,.36.2A.5.5,0,0,0-5.85-1.02Zm.28-4.27a.426.426,0,0,0-.37-.45h-3.7V-7.83a.426.426,0,0,0-.45-.37.429.429,0,0,0-.46.37v2.09h-3.59a.426.426,0,0,0-.38.45.429.429,0,0,0,.38.46h3.59V.42a.422.422,0,0,0,.46.37A.419.419,0,0,0-9.64.42V-4.83h3.7A.429.429,0,0,0-5.57-5.29Zm-7.07,2.83a.5.5,0,0,0-.51-.44.392.392,0,0,0-.35.19l-.79,1.55a.353.353,0,0,0-.03.14.5.5,0,0,0,.51.46.409.409,0,0,0,.37-.2l.77-1.57A.277.277,0,0,0-12.64-2.46ZM3.99-3.71a.443.443,0,0,0-.39-.48H-3.62a.443.443,0,0,0-.39.48.436.436,0,0,0,.39.46H3.6A.436.436,0,0,0,3.99-3.71ZM14.38-1.22c0-.02-.01-.04-.01-.06l-.74-3.24a.382.382,0,0,0-.4-.29c-.27,0-.49.17-.49.37,0,.02.01.04.01.06l.37,1.65a7.954,7.954,0,0,1-3.73.69H6.82c-.11,0-.18-.06-.18-.15a.254.254,0,0,1,.02-.07A35.541,35.541,0,0,0,7.95-6.35c0-.02.01-.04.01-.06a.436.436,0,0,0-.46-.37.424.424,0,0,0-.42.29A33.247,33.247,0,0,1,5.73-2.22a1.03,1.03,0,0,0-.08.41.625.625,0,0,0,.61.68H9.31a8.462,8.462,0,0,0,4-.75l.18.8a.382.382,0,0,0,.39.27A.477.477,0,0,0,14.38-1.22Z" transform="translate(42 52)" fill="#fff"/>
    <g id="_9-Home" data-name="9-Home" transform="translate(29.087 16.089)">
      <path id="パス_12" data-name="パス 12" d="M16.04,21.835H7.794a3.542,3.542,0,0,1-3.67-3.372V14.042a.708.708,0,0,1,1.417,0v4.421a2.125,2.125,0,0,0,2.253,1.955H16.04a2.125,2.125,0,0,0,2.253-1.955V14.042a.708.708,0,0,1,1.417,0v4.421a3.542,3.542,0,0,1-3.67,3.372Zm5.59-9.415a.708.708,0,0,0,0-1.006L12.42,2.2a.708.708,0,0,0-1.006,0L2.2,11.414A.711.711,0,0,0,3.21,12.42l8.707-8.714,8.707,8.714a.708.708,0,0,0,1.006,0Z" transform="translate(0)" fill="#fff"/>
    </g>
  </g>
</svg>
