<svg xmlns="http://www.w3.org/2000/svg" width="48.417" height="48.417" viewBox="0 0 48.417 48.417">
  <g id="グループ_13" data-name="グループ 13" transform="translate(0)">
    <path id="パス_13" data-name="パス 13" d="M42.672,33.529A19.646,19.646,0,0,0,14.889,5.745a19.264,19.264,0,0,0-2.955,23.71.826.826,0,0,1-.114.984L1.8,40.463c-2,1.995-2.47,4.784-.7,6.554l.3.3c1.769,1.77,4.559,1.295,6.554-.7l10-10a.839.839,0,0,1,1.006-.135A19.264,19.264,0,0,0,42.672,33.529ZM18.516,29.9a14.516,14.516,0,1,1,20.529,0A14.533,14.533,0,0,1,18.516,29.9Z" fill="#ae88db"/>
    <g id="グループ_12" data-name="グループ 12" transform="translate(17.742 7.862)">
      <path id="パス_14" data-name="パス 14" d="M2.027,10.608A2.029,2.029,0,0,1,.161,7.79a12.779,12.779,0,0,1,16.73-6.781,2.028,2.028,0,1,1-1.58,3.735A8.719,8.719,0,0,0,3.9,9.37,2.028,2.028,0,0,1,2.027,10.608Z" transform="translate(0 0)" fill="#ae88db"/>
    </g>
  </g>
</svg>
