<svg xmlns="http://www.w3.org/2000/svg" width="40.504" height="55.518" viewBox="0 0 40.504 55.518">
  <g id="loupe" transform="translate(20.241) rotate(45)">
    <rect id="長方形_8" data-name="長方形 8" width="4.089" height="5.316" transform="translate(24.941 28.653) rotate(-135)" fill="#cbcbcb"/>
    <circle id="楕円形_1" data-name="楕円形 1" cx="12.677" cy="12.677" r="12.677" transform="translate(1.636 1.636)" fill="#e3e3e3"/>
    <path id="パス_1" data-name="パス 1" d="M24.454,24.454A14.342,14.342,0,0,1,4.171,4.171,14.342,14.342,0,0,1,24.454,24.454ZM6.543,6.543a11.046,11.046,0,1,0,15.621,0A11.008,11.008,0,0,0,6.543,6.543Z" transform="translate(0 0)" fill="#cbcbcb"/>
    <path id="パス_2" data-name="パス 2" d="M4.989,0a79.878,79.878,0,0,1,8.588,6.461,5.031,5.031,0,0,1-7.115,7.115A93.326,93.326,0,0,1,0,4.989Z" transform="translate(24.209 24.209)" fill="#f3705a"/>
    <path id="パス_3" data-name="パス 3" d="M1.554,7.2C1.063,6.461.491,5.725,0,4.989L4.989,0C5.807.573,6.543,1.063,7.2,1.554Z" transform="translate(24.29 24.29)" fill="#f05540"/>
    <path id="パス_4" data-name="パス 4" d="M2.167,7.156,7.156,2.167a1.284,1.284,0,0,0,0-1.8,1.284,1.284,0,0,0-1.8,0L.368,5.357a1.284,1.284,0,0,0,0,1.8A1.157,1.157,0,0,0,2.167,7.156Z" transform="translate(22.941 22.941)" fill="#f3705a"/>
    <ellipse id="楕円形_2" data-name="楕円形 2" cx="3.844" cy="1.799" rx="3.844" ry="1.799" transform="translate(10.469 5.889)" fill="#fff"/>
  </g>
</svg>
