<svg xmlns="http://www.w3.org/2000/svg" xmlns:xlink="http://www.w3.org/1999/xlink" width="375" height="77" viewBox="0 0 375 77">
  <defs>
    <clipPath id="clip-path">
      <rect id="長方形_30" data-name="長方形 30" width="375" height="77" transform="translate(-0.068)" fill="#fff" stroke="#707070" stroke-width="1"/>
    </clipPath>
  </defs>
  <g id="stage_bg" transform="translate(0.068)" clip-path="url(#clip-path)">
    <g id="bg" transform="translate(0 -4)">
      <path id="パス_21" data-name="パス 21" d="M-97.519,54.428l132.1,6.413c.244.012,138.239.012,138.483,0l132.106-6.414c5.133-.249,9.126,4.622,8.119,9.906L312.1,70.56a8.655,8.655,0,0,0,.519,4.969l3.938,9.364a8.646,8.646,0,0,1-.5,7.686l-17.15,29.259a8.111,8.111,0,0,1-2.6,2.723l-29.273,18.861a7.619,7.619,0,0,1-4.706,1.206l-89.07-6.708c-.377-.028-138.507-.028-138.884,0l-89.07,6.708a7.62,7.62,0,0,1-4.706-1.206l-29.273-18.861a8.119,8.119,0,0,1-2.6-2.723l-17.152-29.264a8.642,8.642,0,0,1-.5-7.679l3.945-9.4a8.665,8.665,0,0,0,.516-4.966l-1.183-6.192C-106.646,59.051-102.653,54.178-97.519,54.428Z" transform="translate(78.519 -68.836) rotate(-3)" fill="#ef694c"/>
      <path id="パス_21-2" data-name="パス 21" d="M-97.519,54.428l132.1,6.413c.244.012,138.239.012,138.483,0l132.106-6.414c5.133-.249,9.126,4.622,8.119,9.906L312.1,70.56a8.655,8.655,0,0,0,.519,4.969l3.938,9.364a8.646,8.646,0,0,1-.5,7.686l-17.15,29.259a8.111,8.111,0,0,1-2.6,2.723l-29.273,18.861a7.619,7.619,0,0,1-4.706,1.206l-89.07-6.708c-.377-.028-138.507-.028-138.884,0l-89.07,6.708a7.62,7.62,0,0,1-4.706-1.206l-29.273-18.861a8.119,8.119,0,0,1-2.6-2.723l-17.152-29.264a8.642,8.642,0,0,1-.5-7.679l3.945-9.4a8.665,8.665,0,0,0,.516-4.966l-1.183-6.192C-106.646,59.051-102.653,54.178-97.519,54.428Z" transform="translate(88.938 -79.703) rotate(3)" fill="#f4bd24"/>
      <path id="パス_21-3" data-name="パス 21" d="M-97.519,54.428l132.1,6.413c.244.012,138.239.012,138.483,0l132.106-6.414c5.133-.249,9.126,4.622,8.119,9.906L312.1,70.56a8.655,8.655,0,0,0,.519,4.969l3.938,9.364a8.646,8.646,0,0,1-.5,7.686l-17.15,29.259a8.111,8.111,0,0,1-2.6,2.723l-29.273,18.861a7.619,7.619,0,0,1-4.706,1.206l-89.07-6.708c-.377-.028-138.507-.028-138.884,0l-89.07,6.708a7.62,7.62,0,0,1-4.706-1.206l-29.273-18.861a8.119,8.119,0,0,1-2.6-2.723l-17.152-29.264a8.642,8.642,0,0,1-.5-7.679l3.945-9.4a8.665,8.665,0,0,0,.516-4.966l-1.183-6.192C-106.646,59.051-102.653,54.178-97.519,54.428Z" transform="translate(83.586 -74.406)" fill="#298c6d"/>
    </g>
  </g>
</svg>
