<svg xmlns="http://www.w3.org/2000/svg" width="261.051" height="98.995" viewBox="0 0 261.051 98.995">
  <g id="icon" transform="matrix(0.985, -0.174, 0.174, 0.985, 8.635, 42.674)">
    <path id="長方形_21" data-name="長方形 21" d="M3.664,0H208.282A29.314,29.314,0,0,1,237.6,29.314v0a29.314,29.314,0,0,1-29.314,29.314H3.664A3.664,3.664,0,0,1,0,54.963V3.664A3.664,3.664,0,0,1,3.664,0Z" transform="translate(8.369 0.038)" fill="#555"/>
    <path id="パス_86" data-name="パス 86" d="M22.08-21.93A1.235,1.235,0,0,0,21-23.22H1.83A1.258,1.258,0,0,0,.72-21.93a1.3,1.3,0,0,0,1.11,1.35h8.28V.48a1.2,1.2,0,0,0,1.32,1.08A1.194,1.194,0,0,0,12.72.48V-20.58H21A1.278,1.278,0,0,0,22.08-21.93ZM27.81.48V-22.47a1.246,1.246,0,0,0-1.32-1.08,1.225,1.225,0,0,0-1.32,1.08V.48a1.225,1.225,0,0,0,1.32,1.08A1.246,1.246,0,0,0,27.81.48ZM54.93.51V-21.45a1.741,1.741,0,0,0-1.86-1.89h-.84c-.93,0-1.56.72-1.98,1.8L43.8-5.04c-.06.15-.15.24-.21.24-.09,0-.18-.09-.24-.24L36.87-21.69a2.231,2.231,0,0,0-2.16-1.65h-.69a1.752,1.752,0,0,0-1.8,1.89V.51a1.152,1.152,0,0,0,1.23,1.05A1.2,1.2,0,0,0,34.77.51V-19.92q0-.18.09-.18c.03,0,.09.06.12.15L42.03-1.56a1.51,1.51,0,0,0,1.53.9,1.536,1.536,0,0,0,1.56-.87l7.02-18.36c.06-.12.12-.18.15-.18.06,0,.09.06.09.15V.51a1.162,1.162,0,0,0,1.26,1.05A1.193,1.193,0,0,0,54.93.51ZM78.33,0a1.193,1.193,0,0,0-1.05-1.29H62.46a.693.693,0,0,1-.72-.72v-8.16H72.48a1.193,1.193,0,0,0,1.05-1.29,1.173,1.173,0,0,0-1.05-1.29H61.74v-7.2a.686.686,0,0,1,.72-.69H73.59a1.2,1.2,0,0,0,1.11-1.29,1.236,1.236,0,0,0-1.11-1.29H61.26a2.133,2.133,0,0,0-2.13,2.19V-.9a2.1,2.1,0,0,0,2.13,2.13H77.28A1.172,1.172,0,0,0,78.33,0Zm33.69-8.55v-4.86c0-6.75-3.24-9.87-9.96-9.87h-1.44c-6.72,0-9.9,2.94-9.9,9.87v4.86c0,6.78,3.03,9.87,9.9,9.87h1.44C108.93,1.32,112.02-1.77,112.02-8.55Zm-2.64,0c0,5.31-2.55,7.26-7.32,7.26h-1.44c-4.77,0-7.35-1.95-7.35-7.26v-4.86c0-5.28,2.58-7.2,7.35-7.2h1.44c4.77,0,7.32,1.92,7.32,7.2Zm26.13-13.86a1.209,1.209,0,0,0-1.32-1.14,1.331,1.331,0,0,0-1.35.87l-7.8,20.4c-.06.15-.12.24-.21.24-.06,0-.15-.09-.21-.24L117-22.68a1.3,1.3,0,0,0-1.32-.87,1.229,1.229,0,0,0-1.38,1.11,1.276,1.276,0,0,0,.06.33l8.1,21.96a2.093,2.093,0,0,0,2.19,1.5h.36a2.123,2.123,0,0,0,2.16-1.53l8.28-21.87A.761.761,0,0,0,135.51-22.41ZM157.71,0a1.193,1.193,0,0,0-1.05-1.29H141.84a.693.693,0,0,1-.72-.72v-8.16h10.74a1.193,1.193,0,0,0,1.05-1.29,1.173,1.173,0,0,0-1.05-1.29H141.12v-7.2a.686.686,0,0,1,.72-.69h11.13a1.2,1.2,0,0,0,1.11-1.29,1.236,1.236,0,0,0-1.11-1.29H140.64a2.133,2.133,0,0,0-2.13,2.19V-.9a2.1,2.1,0,0,0,2.13,2.13h16.02A1.172,1.172,0,0,0,157.71,0Zm23.46-15.09v-1.32c0-4.98-2.37-6.81-7.56-6.81H162.99c-1.44,0-2.19.66-2.19,2.13V.48a1.164,1.164,0,0,0,1.26,1.08A1.216,1.216,0,0,0,163.41.48V-19.95a.654.654,0,0,1,.66-.69h9.54c3.03,0,4.95.81,4.95,4.29v1.02c0,2.61-1.8,3.66-5.7,3.66H168a1.294,1.294,0,0,0-1.44,1.38,2.126,2.126,0,0,0,.84,1.56l11.07,9.81a1.585,1.585,0,0,0,1.11.48A1.188,1.188,0,0,0,180.9.45a1.248,1.248,0,0,0-.48-.96l-9.84-8.4c-.12-.09-.18-.18-.18-.24s.06-.09.21-.09h2.97C178.17-9.24,181.17-10.8,181.17-15.09Z" transform="translate(41.215 41.319)" fill="#fff"/>
    <circle id="楕円形_5" data-name="楕円形 5" cx="7.252" cy="7.252" r="7.252" transform="translate(19.57 21.975)" fill="#fff"/>
    <path id="パス_15" data-name="パス 15" d="M33.7,9.532c2.16-3.054-.931-7.3-9.057-9.263S14.4,7.83,0,4.424" transform="matrix(0.985, 0.174, -0.174, 0.985, -10.284, 15.525)" fill="none" stroke="#333" stroke-linecap="round" stroke-width="2"/>
  </g>
</svg>
