<svg xmlns="http://www.w3.org/2000/svg" width="261.044" height="98.995" viewBox="0 0 261.044 98.995">
  <g id="icon" transform="matrix(0.985, -0.174, 0.174, 0.985, 8.635, 42.674)">
    <path id="長方形_21" data-name="長方形 21" d="M3.664,0H208.282A29.314,29.314,0,0,1,237.6,29.314v0a29.314,29.314,0,0,1-29.314,29.314H3.664A3.664,3.664,0,0,1,0,54.963V3.664A3.664,3.664,0,0,1,3.664,0Z" transform="translate(8.363 0.037)" fill="#ef694c"/>
    <path id="パス_86" data-name="パス 86" d="M22.8-7.11v-.03a1.193,1.193,0,0,0-1.29-1.05,1.2,1.2,0,0,0-1.35,1.08c-.21,3.6-1.59,5.76-6.72,5.76H11.58c-4.98,0-7.47-2.1-7.47-7.41v-4.47c0-5.1,2.25-7.35,7.47-7.35h4.68a1.247,1.247,0,0,0,1.05-1.32,1.225,1.225,0,0,0-1.05-1.32H11.58c-6.93,0-10.11,3.03-10.11,9.99v4.47c0,6.75,2.94,9.99,10.11,9.99h1.86C21.09,1.23,22.8-2.58,22.8-7.11ZM45.36-.03a1.225,1.225,0,0,0-1.08-1.32H29.4a.681.681,0,0,1-.66-.72v-20.4a1.246,1.246,0,0,0-1.32-1.08,1.246,1.246,0,0,0-1.32,1.08V-.9a2.133,2.133,0,0,0,2.19,2.13H44.28A1.2,1.2,0,0,0,45.36-.03ZM67.29,0a1.193,1.193,0,0,0-1.05-1.29H51.42a.693.693,0,0,1-.72-.72v-8.16H61.44a1.193,1.193,0,0,0,1.05-1.29,1.173,1.173,0,0,0-1.05-1.29H50.7v-7.2a.686.686,0,0,1,.72-.69H62.55a1.2,1.2,0,0,0,1.11-1.29,1.236,1.236,0,0,0-1.11-1.29H50.22a2.133,2.133,0,0,0-2.13,2.19V-.9a2.1,2.1,0,0,0,2.13,2.13H66.24A1.172,1.172,0,0,0,67.29,0ZM92.1.51a.8.8,0,0,0-.09-.36L83.28-21.9a2.319,2.319,0,0,0-2.07-1.44H79.95a2.235,2.235,0,0,0-2.07,1.47L69.21.12a1.178,1.178,0,0,0-.09.42c0,.57.42,1.02,1.32,1.02.75,0,1.14-.24,1.32-.72l8.58-21.6c.06-.18.15-.27.24-.27s.21.09.27.27l5.4,13.65H78.63a1.182,1.182,0,0,0-1.05,1.26,1.143,1.143,0,0,0,1.05,1.26h8.64L89.43.78c.15.51.54.78,1.35.78A1.183,1.183,0,0,0,92.1.51Zm23.31-15.6v-1.32c0-4.98-2.37-6.81-7.56-6.81H97.23c-1.44,0-2.19.66-2.19,2.13V.48A1.164,1.164,0,0,0,96.3,1.56,1.216,1.216,0,0,0,97.65.48V-19.95a.654.654,0,0,1,.66-.69h9.54c3.03,0,4.95.81,4.95,4.29v1.02c0,2.61-1.8,3.66-5.7,3.66h-4.86a1.294,1.294,0,0,0-1.44,1.38,2.126,2.126,0,0,0,.84,1.56l11.07,9.81a1.585,1.585,0,0,0,1.11.48A1.188,1.188,0,0,0,115.14.45a1.248,1.248,0,0,0-.48-.96l-9.84-8.4c-.12-.09-.18-.18-.18-.24s.06-.09.21-.09h2.97C112.41-9.24,115.41-10.8,115.41-15.09Zm7.71.99v-8.67A1.323,1.323,0,0,0,121.71-24a1.373,1.373,0,0,0-1.44,1.23v8.67l.45,9a.985.985,0,0,0,.99.81,1.006,1.006,0,0,0,1.05-.81ZM123.39.27c0-1.05-.45-1.53-1.65-1.53-1.08,0-1.59.45-1.59,1.53,0,1.02.45,1.5,1.59,1.5S123.39,1.38,123.39.27Z" transform="translate(63.665 40.657)" fill="#fff"/>
    <circle id="楕円形_5" data-name="楕円形 5" cx="7.252" cy="7.252" r="7.252" transform="translate(19.57 21.975)" fill="#fff"/>
    <path id="パス_15" data-name="パス 15" d="M33.7,9.532c2.16-3.054-.931-7.3-9.057-9.263S14.4,7.83,0,4.424" transform="matrix(0.985, 0.174, -0.174, 0.985, -10.284, 15.525)" fill="none" stroke="#333" stroke-linecap="round" stroke-width="2"/>
  </g>
</svg>
